<svg width="142" height="58" viewBox="0 0 142 58" fill="none" xmlns="http://www.w3.org/2000/svg">
<path d="M29.4583 46.014C28.37 45.6156 25.8054 43.2693 25.3113 40.7902C25.1819 40.1412 25.0816 39.4476 24.9783 38.7333C24.5883 36.0368 24.1557 33.0458 21.9584 31.0509C19.7349 29.0322 17.5908 27.9963 16.7967 27.7307C15.1202 27.229 11.1144 26.2078 8.50267 26.137C5.23801 26.0484 3.69391 25.8271 2.94392 24.8532C6.29682 24.0563 17.1937 21.0844 22.179 17.4159C26.0383 14.5759 28.6815 10.3756 30.2106 7.94553C30.6567 7.23664 31.008 6.67839 31.2671 6.34848C32.4141 4.88764 33.8082 3.34701 34.267 3.5595C34.3156 4.29127 34.3085 5.15206 34.301 6.0684C34.2742 9.30981 34.2418 13.2464 36.6493 14.6269C38.1137 15.4666 40.153 14.9545 41.856 14.5269C41.96 14.5008 42.0627 14.475 42.164 14.4499C43.9017 14.0182 47.8992 13.166 47.8992 13.166C49.7962 12.7529 53.6018 12.342 54.5609 13.9629C55.3991 15.3795 55.3991 16.0878 55.2667 17.9029C55.1344 19.7179 53.4138 25.2073 52.2227 27.9963C53.6491 26.683 56.8373 22.7105 58.1785 17.3274C59.5196 11.9442 58.5755 10.5541 57.7814 9.75729C56.9873 8.96044 55.1167 8.85419 49.9286 10.2C48.4433 10.5099 45.208 11.1651 44.1492 11.3067C43.9369 11.3351 43.7054 11.3715 43.4614 11.4098C42.1844 11.6104 40.5682 11.8643 39.6052 11.3067C38.4581 10.6427 38.3258 8.96044 38.3258 7.36674C38.3258 7.05465 38.3326 6.71745 38.3395 6.3732C38.3678 4.95949 38.3986 3.42705 37.9728 3.02832C37.5317 2.61514 36.4287 1.70024 35.5464 1.34608C34.4435 0.903388 33.2964 0.460693 32.767 0.460693C32.2376 0.460693 30.7818 0.72631 29.4141 2.58563C28.2671 4.43019 25.6377 8.38493 24.473 9.80156C23.0172 11.5723 20.8554 13.9186 18.2084 15.4681C15.7373 16.9145 12.3409 18.3456 8.23797 19.6737C6.91445 20.0721 3.97626 20.9929 2.81157 21.4887C1.35571 22.1085 0.296898 22.5955 0.0763124 24.3662C-0.144273 26.137 0.102493 27.5121 0.958653 28.0849C2.62937 29.2025 4.83813 29.3844 6.32358 29.5067C6.48558 29.5201 6.63897 29.5327 6.78212 29.5458C8.5615 29.6195 12.8261 30.0238 15.6496 31.0509C18.4731 32.078 19.8849 34.2236 20.2378 35.168C20.5172 36.1714 21.1378 38.4882 21.3849 39.7277C21.6937 41.2772 22.2085 43.4935 23.1937 44.4203C25.0166 46.1352 26.9702 46.0786 28.6607 46.0296C28.934 46.0217 29.2004 46.014 29.4583 46.014Z" fill="white"/>
<path d="M137.905 39.4046L142 44.8515C141.696 44.8515 141.406 44.8535 141.127 44.8555L141.126 44.8555C140.378 44.8607 139.706 44.8655 139.035 44.8294C138.839 44.8188 138.616 44.5576 138.473 44.3619C138.107 43.8565 137.747 43.3443 137.387 42.8319L137.387 42.8313C137.053 42.3565 136.72 41.8813 136.38 41.4109C136.001 40.8894 135.98 40.8858 135.28 40.7678L135.24 40.761C135.176 41.4406 135.183 42.1205 135.189 42.815V42.8177C135.195 43.466 135.201 44.127 135.151 44.8126C134.587 44.8749 134.02 44.8665 133.439 44.858C133.111 44.8532 132.78 44.8483 132.442 44.8559V30.3497L135.158 29.884V38.1181C135.695 38.3176 135.927 38.0173 136.142 37.7391C136.154 37.7234 136.166 37.7077 136.178 37.6922C136.813 36.8812 137.447 36.0693 138.045 35.2318C138.33 34.8324 138.648 34.6554 139.146 34.6793C139.705 34.7061 140.266 34.701 140.895 34.6952C141.178 34.6926 141.475 34.6899 141.793 34.6899L137.905 39.4046Z" fill="white"/>
<path fill-rule="evenodd" clip-rule="evenodd" d="M100.517 44.5496C98.4732 45.0215 96.458 45.419 94.4109 44.8152C92.9348 44.3778 91.9404 43.3685 91.4595 41.8934C90.968 40.3829 91.0183 38.8601 91.5345 37.3726C92.303 35.1494 94.3818 34.0737 96.7712 34.6102C96.9411 34.6484 97.1099 34.6929 97.3101 34.7458L97.3106 34.746L97.3113 34.7462L97.312 34.7464C97.4085 34.7719 97.5123 34.7993 97.6271 34.8289V30.3683L100.416 29.907C100.615 30.5994 100.693 42.3636 100.517 44.5496ZM97.6279 37.339C97.4435 37.2431 97.2541 37.1571 97.0606 37.0813C96.8665 37.0146 96.666 36.9683 96.4624 36.9432C95.3524 36.8104 94.575 37.2885 94.2645 38.3775C93.9768 39.3886 93.9856 40.4139 94.433 41.3878C94.7039 41.9811 95.13 42.4211 95.7847 42.5389C96.3847 42.6486 96.9953 42.669 97.6279 42.476V37.339Z" fill="white"/>
<path d="M41.3646 33.8452C42.5672 33.7895 43.6905 34.0586 44.8693 34.6306C44.9579 34.3834 45.0429 34.1461 45.1258 33.9143L45.1262 33.9132C45.3411 33.3126 45.5425 32.7497 45.7595 32.1533C43.5528 31.1537 41.3823 30.8544 39.1464 31.4936C37.1126 32.0753 35.7573 33.4486 35.0665 35.4451C34.4815 37.1274 34.4709 38.8689 34.9482 40.5804C35.662 43.148 37.3738 44.6311 39.9943 45.0073C41.7608 45.2615 43.5113 45.0711 45.2346 44.6284C45.4512 44.5616 45.6641 44.4833 45.8725 44.3938V37.7879C45.5909 37.7881 45.3143 37.7845 45.04 37.781L45.0397 37.781H45.0392C44.3261 37.7718 43.6284 37.7627 42.899 37.8215C42.899 38.0806 42.9009 38.3306 42.9028 38.5743C42.9068 39.1086 42.9107 39.6127 42.8937 40.1156C42.8861 40.3403 42.8931 40.566 42.9003 40.7953C42.9172 41.3331 42.9347 41.8899 42.764 42.4964C42.5887 42.4964 42.4145 42.4992 42.2413 42.5021L42.24 42.5021H42.2365C41.8535 42.5083 41.475 42.5145 41.0981 42.4902C39.6679 42.3972 38.6823 41.6668 38.1573 40.3254C37.7011 39.1611 37.6914 37.957 37.9235 36.7555C38.2852 34.8661 39.4402 33.9338 41.3646 33.8452Z" fill="white"/>
<path d="M120.025 43.8049V44.8143L122.832 44.817C122.865 44.6325 122.886 44.4462 122.897 44.2592C122.897 44.0767 122.896 43.8943 122.896 43.7119L122.895 43.3584V43.3562C122.89 41.767 122.886 40.1798 122.858 38.5927C122.849 38.0916 122.782 37.5933 122.658 37.1079C122.334 35.8294 121.522 34.9581 120.241 34.6721C119.683 34.5469 119.096 34.5443 118.511 34.5418C118.331 34.541 118.151 34.5402 117.972 34.5358C117.787 34.5317 117.6 34.5652 117.384 34.604C117.276 34.6235 117.16 34.6443 117.033 34.6624V29.9079C116.809 29.9397 116.593 29.9701 116.381 29.9998C115.823 30.0781 115.302 30.1513 114.782 30.2328C114.591 30.2745 114.403 30.3289 114.219 30.3957C114.048 31.8761 114.116 44.1883 114.307 44.8462C114.47 44.8475 114.634 44.8494 114.798 44.8513C115.523 44.8596 116.264 44.8681 117.042 44.8284V42.1625C117.042 41.8888 117.041 41.6151 117.039 41.3414L117.039 41.3357V41.328C117.036 40.7797 117.033 40.2315 117.042 39.6835C117.046 39.4317 117.042 39.1794 117.038 38.9252V38.9221L117.038 38.9202V38.9082C117.028 38.3178 117.018 37.7177 117.105 37.0937C117.269 37.077 117.426 37.0566 117.577 37.0369C117.892 36.9959 118.184 36.9579 118.476 36.9627C119.274 36.9768 119.68 37.2965 119.857 38.0659C119.96 38.5256 120.014 38.9952 120.017 39.4665C120.032 40.5162 120.03 41.5644 120.027 42.6127V42.6143C120.026 43.0112 120.025 43.408 120.025 43.8049Z" fill="white"/>
<path fill-rule="evenodd" clip-rule="evenodd" d="M58.1114 40.7459H51.7948C51.7065 41.4799 52.0868 41.9146 52.5889 42.1501C53.1042 42.3936 53.7015 42.5813 54.2653 42.5796C54.9329 42.5796 55.6 42.4962 56.304 42.4082C56.6077 42.3702 56.9183 42.3314 57.2388 42.298C57.3509 42.9567 57.4717 43.6686 57.5988 44.4229C57.5434 44.4538 57.4916 44.486 57.4417 44.5171C57.3326 44.585 57.2324 44.6473 57.1241 44.677C55.5209 45.1197 53.9027 45.3367 52.258 44.9117C50.6698 44.5 49.5227 43.5455 49.018 41.9624C48.4675 40.243 48.5151 38.5307 49.3798 36.9051C50.6963 34.426 54.1047 33.6292 56.39 35.2547C57.1082 35.7656 57.5812 36.4695 57.8573 37.3C58.2129 38.3757 58.2676 39.4825 58.1114 40.7459ZM55.3091 38.6803C55.2156 37.3327 54.4824 36.7156 53.2718 36.8582C52.3145 36.9706 51.7356 37.7073 51.8601 38.6803H55.3091Z" fill="white"/>
<path fill-rule="evenodd" clip-rule="evenodd" d="M76.712 40.7247H70.3848C70.2965 41.4463 70.6821 41.8695 71.1568 42.129C71.6068 42.3733 72.1468 42.5654 72.6497 42.5716C73.2659 42.5794 73.8836 42.5002 74.5009 42.4211C74.7286 42.3919 74.9563 42.3627 75.1838 42.3379C75.3145 42.3237 75.4439 42.2966 75.5953 42.2648C75.6272 42.2581 75.6602 42.2512 75.6943 42.2442C75.7225 42.2383 75.7515 42.2324 75.7815 42.2265L75.812 42.2205L75.8412 42.2148C75.9216 42.697 75.9986 43.1599 76.0754 43.6216C76.1207 43.8941 76.1659 44.1662 76.2118 44.4416C76.1361 44.4775 76.0665 44.5144 76.0005 44.5494C75.8664 44.6206 75.7468 44.684 75.6197 44.7161C74.1841 45.0791 72.7353 45.2863 71.2574 45.0038C69.1707 44.6036 67.848 43.3322 67.4351 41.2383C67.136 39.726 67.2507 38.2421 68.006 36.8556C69.5289 34.0586 73.6256 33.5469 75.6824 35.8949C76.2665 36.5625 76.5523 37.3576 76.6962 38.2129C76.8407 39.0434 76.8461 39.8924 76.712 40.7247ZM73.9582 38.6804C73.8109 37.3372 73.1553 36.7644 71.98 36.8485C70.9848 36.9193 70.3733 37.6206 70.4104 38.6804H73.9582Z" fill="white"/>
<path d="M82.5214 37.03V44.8214H79.8188C79.622 44.2105 79.5541 36.6688 79.7306 35.0821C79.9351 35.0035 80.1436 34.9358 80.3553 34.8794C81.9435 34.5358 83.544 34.3234 85.1675 34.5677C86.8758 34.8245 87.8472 35.732 88.2266 37.4266C88.3338 37.8861 88.3929 38.3556 88.4031 38.8273C88.4201 40.2967 88.4183 41.7666 88.4165 43.2381V43.2447C88.416 43.6019 88.4156 43.9593 88.4154 44.3168C88.4154 44.4104 88.4042 44.5036 88.3909 44.6127L88.3909 44.6135L88.3885 44.6327C88.3822 44.6851 88.3755 44.7412 88.3695 44.8028H85.5602C85.5586 44.7834 85.557 44.7639 85.5553 44.7443C85.5531 44.7197 85.5508 44.6949 85.5484 44.67L85.5453 44.6375L85.5402 44.5851C85.5234 44.4149 85.5061 44.2383 85.5055 44.0618C85.5035 43.5034 85.5043 42.945 85.5052 42.3867C85.5066 41.4399 85.508 40.4931 85.4958 39.5463C85.4925 39.0459 85.4402 38.5471 85.3396 38.057C85.1905 37.362 84.8234 37.0406 84.1184 36.9875C83.7827 36.9583 83.4441 36.9788 83.0663 37.0017L83.0658 37.0017C82.8937 37.0121 82.7133 37.0231 82.5214 37.03Z" fill="white"/>
<path d="M107.61 37.2026C106.766 37.107 105.992 37.1136 105.239 37.1201C104.653 37.1251 104.08 37.13 103.496 37.0866V34.8271C104.113 34.6554 109.901 34.5943 111.421 34.751C111.577 35.7346 111.62 36.6227 110.803 37.4709C109.957 38.3518 109.185 39.3036 108.413 40.2552L108.412 40.2561L108.412 40.2568C108.128 40.6073 107.843 40.9578 107.555 41.3046C107.388 41.5062 107.238 41.7234 107.048 41.9988C106.967 42.1154 106.88 42.2424 106.78 42.383C107.694 42.4402 108.556 42.4353 109.404 42.4305C110.117 42.4265 110.82 42.4225 111.535 42.4556V44.7966H103.277C103.125 43.8971 103.118 43.0648 103.729 42.291C104.412 41.4281 105.07 40.5456 105.729 39.6629L105.731 39.6609L105.733 39.6583C106.04 39.2464 106.347 38.8344 106.657 38.4245C106.818 38.2137 106.981 38.0056 107.178 37.7549C107.305 37.5927 107.446 37.4127 107.61 37.2026Z" fill="white"/>
<path d="M61.0805 30.3347L63.9322 29.892V40.7566C63.9481 42.1148 64.1087 42.3255 65.4728 42.7133C65.4583 42.8193 65.4444 42.9272 65.4303 43.0364L65.4301 43.0378L65.43 43.0388L65.4299 43.0396L65.4298 43.0403C65.398 43.2872 65.3655 43.5403 65.3228 43.7917C65.281 44.0383 65.2286 44.2934 65.1709 44.5744C65.1434 44.7081 65.1148 44.8477 65.0855 44.9949C63.9384 45.0631 62.8408 44.9604 61.9646 44.1742C61.5976 43.8448 61.3585 43.3162 61.1926 42.8337C61.0435 42.4007 61.0337 41.9058 61.032 41.4374C61.0205 38.4184 61.0223 35.3987 61.0241 32.3789L61.0249 31.0182C61.0266 30.8854 61.0399 30.7546 61.0552 30.6028L61.0553 30.6019L61.0554 30.6013C61.0636 30.5196 61.0725 30.4319 61.0805 30.3347Z" fill="white"/>
<path d="M128.973 44.8232H126.181V34.7156C126.968 34.6725 127.753 34.6842 128.557 34.6963C128.695 34.6984 128.834 34.7005 128.973 34.7023V44.8232Z" fill="white"/>
<path fill-rule="evenodd" clip-rule="evenodd" d="M50.8895 57.5391H50.0804V49.6813C51.1595 49.2554 52.2527 49.1589 53.345 49.5042C54.3253 49.8114 54.86 50.5667 55.1009 51.5406C55.3005 52.317 55.2554 53.1363 54.9721 53.886C54.4709 55.2238 53.2162 55.8772 51.7718 55.5567C51.5993 55.5184 51.4295 55.4671 51.2205 55.4039L51.2201 55.4038C51.1204 55.3736 51.0117 55.3407 50.8895 55.3053V57.5391ZM50.8907 50.5198L50.8907 50.5203C50.8779 50.7114 50.868 50.8589 50.8674 51.0067C50.8674 51.2343 50.8671 51.462 50.8667 51.6897V51.6917C50.8654 52.4618 50.8642 53.2324 50.8771 54.002C50.8813 54.1743 50.946 54.3395 51.0598 54.4686C51.7904 55.1955 53.6186 54.8679 54.0456 53.9143C54.2286 53.5115 54.3307 53.0765 54.3458 52.634C54.3609 52.1916 54.2889 51.7505 54.1339 51.3361C53.9027 50.7004 53.4474 50.2196 52.7327 50.1541C52.3443 50.1188 51.953 50.1276 51.5352 50.137L51.5348 50.137C51.3349 50.1415 51.1289 50.1461 50.9142 50.1461V50.1435C50.9062 50.2884 50.898 50.4112 50.8907 50.5198Z" fill="white"/>
<path fill-rule="evenodd" clip-rule="evenodd" d="M39.059 55.3186C38.1379 55.6418 37.2061 55.6851 36.2726 55.5736C35.302 55.4567 34.7576 54.8653 34.6844 53.9746C34.5962 52.9236 35.0073 52.287 36.015 51.9895C36.3541 51.8999 36.7015 51.8456 37.0517 51.8275C37.2907 51.8091 37.5315 51.8137 37.7698 51.8182H37.7705C37.8759 51.8202 37.9809 51.8222 38.0849 51.8222C38.4176 50.7491 38.0064 50.1205 36.9441 50.0948C36.6303 50.087 36.3153 50.1174 35.9756 50.1502L35.9751 50.1502C35.8134 50.1658 35.646 50.182 35.4706 50.1948C35.4203 50.0302 35.3594 49.8283 35.2941 49.6052C36.0732 49.2413 36.8355 49.2448 37.5882 49.3723C38.4379 49.5157 38.9999 50.0992 39.0484 51.0112C39.0878 51.973 39.0781 52.9369 39.0682 53.9309C39.0636 54.3863 39.059 54.8479 39.059 55.3186ZM38.3364 54.6793V53.7754C38.3364 52.6385 38.0717 52.3933 36.9344 52.5146C36.6437 52.5472 36.3597 52.6236 36.0917 52.7412C35.6038 52.9564 35.4741 53.2849 35.52 53.9029C35.5579 54.3765 35.7979 54.659 36.247 54.7776C36.9123 54.9529 37.5723 54.9963 38.3364 54.6793Z" fill="white"/>
<path fill-rule="evenodd" clip-rule="evenodd" d="M59.3935 49.3148C60.9367 49.2988 61.7467 49.8106 62.2214 50.796C62.7631 51.9205 62.7614 53.083 62.1932 54.1959C61.6761 55.2097 60.7946 55.6675 59.667 55.6188C58.5394 55.5701 57.8044 54.9556 57.3729 53.9702C56.9415 52.9847 56.9626 51.9648 57.3668 50.9678C57.8053 49.8894 58.6708 49.3183 59.3935 49.3148ZM61.8261 52.4827C61.7702 52.3045 61.7209 52.1278 61.6724 51.9539C61.5678 51.5791 61.4669 51.2173 61.3108 50.881C61.0214 50.2613 60.4205 50.024 59.7773 50.0461C59.0979 50.07 58.52 50.3755 58.2332 51.0386C57.8167 52.0037 57.792 52.9909 58.2597 53.9409C58.8526 55.1389 60.6279 55.2256 61.2985 54.072C61.4819 53.7559 61.5783 53.3888 61.6776 53.0105L61.6777 53.0102L61.6778 53.0098C61.7236 52.8352 61.7701 52.6582 61.8261 52.4827Z" fill="white"/>
<path d="M72.8174 49.4254C73.0062 49.9788 72.8544 50.1488 72.4645 50.147H70.6477C70.6477 50.5388 70.644 50.9223 70.6403 51.2998V51.3033C70.6316 52.1973 70.6232 53.0579 70.6654 53.9161C70.6971 54.5492 71.0906 54.8077 71.7489 54.8246C71.9539 54.8283 72.1588 54.8138 72.3612 54.7812C72.5236 54.7562 72.6829 54.7118 72.8669 54.6605L72.9123 54.6479C72.9358 54.6413 72.9597 54.6347 72.9842 54.628L73.2118 55.1522C72.4327 55.7303 71.6086 55.7365 70.7801 55.4576C70.2418 55.2805 69.9454 54.8192 69.8527 54.2606C69.8038 53.9407 69.7805 53.6174 69.783 53.2937C69.776 51.6463 69.776 49.9986 69.783 48.3506C69.783 47.7336 69.7988 47.7308 70.5459 47.6006L70.5559 47.5989C70.5782 48.0145 70.6 48.4255 70.6239 48.8776L70.653 49.4263L72.8174 49.4254Z" fill="white"/>
<path d="M127.589 30.0797C128.603 30.0938 129.297 30.7995 129.284 31.8053C129.27 32.8111 128.544 33.5097 127.547 33.4973C126.55 33.4849 125.849 32.7526 125.858 31.761C125.866 30.7534 126.575 30.0646 127.589 30.0797Z" fill="white"/>
<path d="M45.8998 50.1674V55.4195H45.111C45.098 55.3541 45.0829 55.2921 45.0683 55.2327C45.0384 55.1104 45.011 54.9985 45.0104 54.8883C45.0071 54.3259 45.008 53.7635 45.0089 53.2012V53.2001C45.0104 52.2577 45.0119 51.3152 44.9937 50.3728C44.984 49.8557 45.2001 49.576 45.6704 49.5202C46.3357 49.4378 47.0063 49.3856 47.6769 49.3635C47.9266 49.3546 48.2407 49.4068 48.2151 49.7902C48.1913 50.1461 47.9524 50.1411 47.6939 50.1357L47.6633 50.1351C47.6534 50.1349 47.6435 50.1348 47.6336 50.1346C47.2541 50.1303 46.8728 50.1411 46.4583 50.1528C46.2793 50.1579 46.0938 50.1631 45.8998 50.1674Z" fill="white"/>
<path d="M64.886 55.4142V49.7937C65.7119 49.2554 66.6437 49.2776 67.5772 49.3856C68.0184 49.4361 68.0766 49.7158 67.8657 50.1143C67.7237 50.1143 67.5819 50.1128 67.4403 50.1113L67.4392 50.1113C67.1165 50.1079 66.7944 50.1045 66.4734 50.1187C65.7472 50.1506 65.6704 50.2276 65.6634 50.9554C65.6569 51.6374 65.6577 52.3196 65.6586 53.002V53.0044C65.6592 53.5287 65.6599 54.0531 65.6572 54.5775C65.6572 54.7539 65.6458 54.9306 65.6332 55.1253C65.6273 55.217 65.6211 55.3128 65.6157 55.4142H64.886Z" fill="white"/>
<path d="M41.6558 49.5255H42.3828V55.4142H41.6558V49.5255Z" fill="white"/>
<path d="M42.5928 47.6998C42.5716 48.0434 42.2884 48.3196 41.9752 48.2975C41.8158 48.2777 41.6706 48.1955 41.5714 48.0688C41.4723 47.9421 41.4271 47.7811 41.4458 47.621C41.4943 47.2987 41.6822 47.0898 42.0184 47.0783C42.3546 47.0668 42.6149 47.3519 42.5928 47.6998Z" fill="white"/>
</svg>
