<svg width="126" height="84" viewBox="0 0 126 84" fill="none" xmlns="http://www.w3.org/2000/svg">
<path d="M0.0117964 0H1.38137C1.39426 0.15792 1.40715 0.319061 1.42004 0.480202C1.89698 7.26101 3.93361 13.4939 7.95533 19.0275C8.12392 19.2613 8.30191 19.4888 8.49039 19.7298L8.49066 19.7301C8.57231 19.8345 8.65594 19.9414 8.74163 20.0524C8.79319 15.65 10.1273 11.8116 13.1597 8.57915C13.2997 8.70305 13.4276 8.81811 13.5515 8.92956L13.552 8.92995C13.6761 9.04158 13.7961 9.14956 13.9202 9.25916C13.8325 9.41801 13.7454 9.57492 13.659 9.73052L13.6546 9.73844L13.6543 9.73887L13.654 9.73956C13.3897 10.2153 13.1323 10.6788 12.8858 11.1477C12.0608 12.7076 11.4453 14.3448 11.1682 16.098C10.7041 19.0114 11.1166 21.7347 12.8922 24.1679C13.4949 24.9962 14.2199 25.702 15.0191 26.3466C18.5381 29.1859 22.3504 31.5031 26.6396 33.0017C29.4142 33.9685 32.2564 34.6421 35.1825 34.8903C36.623 35.0127 38.0763 35.0997 39.5232 35.0836C43.3806 35.0353 47.1445 34.3714 50.8118 33.1789C51.4111 32.9834 52.0019 32.7621 52.5928 32.5408C52.8881 32.4302 53.1836 32.3195 53.48 32.2121C53.5346 32.1926 53.5891 32.1743 53.6508 32.1536L53.6513 32.1534L53.6518 32.1533C53.6918 32.1398 53.7349 32.1254 53.7829 32.109C53.8735 32.2795 53.9633 32.4487 54.0534 32.6187L54.0562 32.6239L54.0565 32.6244C54.209 32.912 54.3628 33.2019 54.5241 33.5044C54.4938 33.5262 54.4647 33.5473 54.4363 33.568L54.4347 33.5692C54.3457 33.6338 54.2636 33.6934 54.1761 33.7494C50.9278 35.7991 47.4184 37.2139 43.6803 38.0615C40.5351 38.777 37.3448 39.0509 34.1287 38.8769C26.4043 38.4611 19.4501 35.9409 13.3885 31.097C9.99197 28.3834 7.32372 25.0413 5.1904 21.2642C3.06675 17.4999 1.54894 13.5036 0.707864 9.26239C0.166476 6.56488 -0.0558739 3.84482 0.0117964 1.1022C0.0182035 0.862961 0.0161186 0.623713 0.0139846 0.378835V0.371896C0.0128979 0.24958 0.0117964 0.125847 0.0117964 0Z" fill="white"/>
<path d="M51.4912 45.9703C51.4738 46.0178 51.4592 46.0608 51.4457 46.1009C51.4242 46.1642 51.4054 46.22 51.3817 46.2733C51.1863 46.7199 50.9898 47.1656 50.7933 47.6113C50.4226 48.4522 50.0521 49.2928 49.6898 50.1374C49.5899 50.3727 49.4546 50.4791 49.2 50.4984C48.276 50.5741 47.3534 50.6557 46.4314 50.7372C45.9803 50.7771 45.5294 50.817 45.0784 50.8561L44.764 50.8833C43.4537 50.9968 42.141 51.1104 40.8311 51.2268C40.1093 51.2896 39.3875 51.354 38.6656 51.4185C37.9438 51.483 37.2219 51.5474 36.5 51.6103C35.9731 51.657 35.4455 51.7021 34.9178 51.7472C34.3901 51.7924 33.8624 51.8375 33.3355 51.8842C33.2673 51.8904 33.199 51.9072 33.1222 51.9262C33.0794 51.9367 33.0339 51.9479 32.9843 51.9583C33.1233 52.6563 33.2587 53.3414 33.3932 54.0219L33.5224 54.6752C33.9349 56.7587 34.3466 58.8423 34.7583 60.9258L34.7584 60.9268L34.7605 60.9373C35.1714 63.017 35.5824 65.0967 35.9941 67.1765C36.386 69.1486 36.7788 71.1206 37.1716 73.0922C37.4862 74.6712 37.8007 76.2499 38.1145 77.8279C38.1896 78.2043 38.2643 78.5805 38.3389 78.9566C38.546 80.0003 38.7529 81.0428 38.9685 82.0853C39.0136 82.3012 38.9492 82.4172 38.7687 82.5236C38.0984 82.9232 37.4281 83.3228 36.7707 83.7418C36.5387 83.89 36.3582 83.8707 36.1294 83.7353C34.0058 82.501 31.9788 81.1249 30.0227 79.6391C27.7895 77.9407 25.6723 76.1101 23.6937 74.1184C20.8804 71.2888 18.3926 68.2046 16.3528 64.769C16.1079 64.3533 16.0499 63.9923 16.1723 63.5218C17.2736 59.2667 18.3635 55.0079 19.4537 50.7482L19.454 50.7468L19.456 50.7391C19.791 49.43 20.1261 48.1207 20.4615 46.8115C20.6804 45.9571 20.8985 45.1026 21.1175 44.2447C21.3272 43.4232 21.5377 42.5986 21.7505 41.7678C21.7222 41.7625 21.6949 41.7569 21.6684 41.7515C21.5982 41.7373 21.5332 41.7241 21.4702 41.7194C19.5399 41.5841 17.6063 41.4487 15.6728 41.323C15.4795 41.3101 15.3409 41.2747 15.2281 41.091C14.5391 39.9527 13.8443 38.8164 13.1496 37.6805C12.9573 37.366 12.7649 37.0515 12.5727 36.737C12.5542 36.7081 12.5423 36.6754 12.5277 36.6353L12.5275 36.6349C12.5193 36.6124 12.5102 36.5875 12.4986 36.5597C12.6965 36.5597 12.8914 36.5586 13.0844 36.5575H13.087C13.4684 36.5554 13.8424 36.5533 14.2162 36.5597C15.0799 36.579 15.9435 36.6048 16.8072 36.6435C17.0972 36.6564 17.3937 36.6854 17.6708 36.7627C23.7236 38.402 29.7745 40.0469 35.8249 41.6917L35.8255 41.6918C37.6734 42.1942 39.5214 42.6965 41.3693 43.1987C42.9947 43.6401 44.6202 44.0808 46.2456 44.5214C47.8717 44.9622 49.4978 45.403 51.1239 45.8446C51.1975 45.8647 51.2696 45.8895 51.3583 45.9199C51.3977 45.9334 51.4405 45.948 51.488 45.9639L51.4912 45.9703Z" fill="white"/>
<path d="M77.916 79.2134C77.9036 79.2296 77.8892 79.2483 77.874 79.2717L77.8708 79.2685C77.8231 79.1174 77.7803 78.9681 77.7382 78.8215C77.6439 78.4926 77.5534 78.1769 77.4197 77.8827C77.1863 77.373 76.9404 76.8687 76.6946 76.3643C76.3668 75.6919 76.039 75.0194 75.7407 74.3344C75.5151 73.8155 75.2348 73.6028 74.6805 73.6833C74.4493 73.717 74.2103 73.7116 73.9765 73.7063H73.9758C73.8742 73.704 73.7736 73.7017 73.6751 73.7027V83.8094H75.383V83.3196C75.383 82.9531 75.3841 82.5865 75.3851 82.22V82.2196C75.3878 81.3036 75.3904 80.3876 75.3766 79.4715C75.369 79.0131 75.3256 78.5547 75.2823 78.0979C75.2705 77.9734 75.2587 77.849 75.2477 77.7248C75.2305 77.5228 75.2047 77.3208 75.1789 77.1189C75.166 77.0179 75.1531 76.9169 75.1413 76.8159C75.2445 76.9094 75.2799 77.0125 75.3121 77.1156C75.3593 77.2623 75.4013 77.4114 75.4433 77.5605C75.5306 77.8698 75.6177 78.1789 75.7504 78.466C76.0524 79.124 76.3728 79.7728 76.6931 80.4213C76.9093 80.8592 77.1255 81.2969 77.3359 81.7372C77.4422 81.9595 77.6001 81.9757 77.8064 81.9821C78.0223 81.9918 78.1383 81.908 78.2124 81.7114C78.2698 81.5637 78.339 81.4199 78.4083 81.2758L78.4085 81.2755C78.448 81.1935 78.4876 81.1111 78.525 81.0282C78.6608 80.7282 78.8018 80.4305 78.9428 80.1329C79.4275 79.11 79.9118 78.088 80.1814 76.9771C80.1912 76.9377 80.2155 76.9019 80.2498 76.8513C80.2717 76.8192 80.2976 76.781 80.3264 76.7321C80.0982 78.3711 80.115 79.9771 80.1317 81.5737C80.1395 82.3224 80.1473 83.069 80.1298 83.8159H81.9312V73.6962C81.7958 73.6962 81.6629 73.697 81.5318 73.6977C81.1884 73.6996 80.8573 73.7014 80.5262 73.6898C80.2942 73.6801 80.1781 73.7671 80.0879 73.9766C79.9289 74.3435 79.7627 74.7064 79.5969 75.0686C79.467 75.3523 79.3373 75.6355 79.2114 75.92C79.105 76.1599 78.9931 76.3977 78.8812 76.6354C78.5016 77.442 78.1221 78.2485 77.9578 79.1396C77.9537 79.1642 77.9378 79.185 77.916 79.2134Z" fill="white"/>
<path fill-rule="evenodd" clip-rule="evenodd" d="M99.5491 59.6737V68.1078H100.558V71.5917H99.2816C99.2418 71.2126 99.2007 70.8362 99.159 70.4554C99.1366 70.2503 99.114 70.044 99.0915 69.8353H93.9097C93.8647 70.2465 93.8213 70.6515 93.7773 71.0623L93.7195 71.6014H92.4337V68.1336C92.4811 68.1315 92.5288 68.1287 92.5768 68.1259C92.6756 68.1201 92.7754 68.1143 92.8752 68.1143L92.8953 68.114C93.3303 68.1079 93.354 68.1076 93.4746 67.6663L93.4864 67.6226C93.6695 66.9408 93.8542 66.2528 93.9741 65.5586C94.277 63.8247 94.3608 62.0715 94.3608 60.315V59.6737H99.5491ZM97.68 68.0982V61.3399C97.5578 61.3399 97.4375 61.3395 97.3186 61.3391C96.967 61.3379 96.6274 61.3367 96.2879 61.3464C96.2202 61.3464 96.1364 61.4463 96.101 61.5204C96.0799 61.5646 96.0822 61.6211 96.0846 61.6784C96.0858 61.7088 96.0871 61.7395 96.0849 61.7685C96.0545 62.1329 96.0261 62.4977 95.9977 62.8627L95.9976 62.8643C95.9236 63.816 95.8495 64.7688 95.7401 65.7165C95.6788 66.257 95.567 66.7917 95.4541 67.3314C95.4008 67.5865 95.3472 67.8428 95.2986 68.1014H97.6832L97.68 68.0982Z" fill="white"/>
<path d="M124.247 63.1206C124.24 63.1357 124.232 63.1516 124.224 63.1683C124.195 63.2281 124.161 63.2975 124.137 63.3703C123.886 64.1857 123.509 64.943 123.093 65.6875C122.391 66.9541 121.701 68.2271 121.018 69.5065C120.899 69.7321 120.76 69.8353 120.499 69.8192C120.254 69.8054 120.008 69.8079 119.752 69.8106C119.647 69.8116 119.541 69.8127 119.432 69.8127V59.6802H121.25C121.222 60.5468 121.235 61.412 121.248 62.2768C121.269 63.6311 121.289 64.9846 121.153 66.3417C121.191 66.2406 121.229 66.1395 121.266 66.0385C121.345 65.8241 121.423 65.6099 121.511 65.3975C121.527 65.3606 121.542 65.3236 121.557 65.2866C121.687 64.9778 121.817 64.6665 121.978 64.3758C122.359 63.6796 122.744 62.9862 123.129 62.293L123.129 62.2924L123.131 62.2899L123.131 62.2896L123.131 62.2891L123.131 62.2886C123.563 61.5104 123.995 60.7325 124.421 59.9509C124.543 59.7253 124.685 59.6318 124.94 59.6479C125.185 59.6617 125.432 59.6591 125.686 59.6565C125.789 59.6555 125.894 59.6544 126 59.6544V69.7837H124.186C124.186 69.4079 124.185 69.0336 124.184 68.6601C124.181 67.9157 124.179 67.1745 124.186 66.432C124.193 65.5912 124.211 64.7505 124.23 63.9139L124.23 63.9134C124.235 63.6487 124.241 63.3844 124.247 63.1206Z" fill="white"/>
<path fill-rule="evenodd" clip-rule="evenodd" d="M79.6158 59.6853C79.8103 59.6556 79.9937 59.6276 80.1787 59.6093C81.1068 59.5126 82.0349 59.4417 82.9695 59.5674C84.7064 59.8027 85.3219 60.9081 85.1479 62.4293C85.0448 63.3155 84.6613 64.0213 83.7977 64.3855C83.7841 64.3923 83.7753 64.4118 83.7668 64.4306C83.7632 64.4386 83.7596 64.4465 83.7558 64.4532C83.7591 64.4566 83.7621 64.4603 83.7649 64.4639C83.7703 64.4706 83.7752 64.4769 83.7815 64.479C85.2059 64.8818 85.5185 66.1548 85.4089 67.2796C85.2575 68.8137 84.3229 69.7386 82.7052 69.9127C81.6515 70.0255 80.5912 69.9868 79.5439 69.7773C79.5131 69.7715 79.4822 69.7611 79.4479 69.7495C79.4249 69.7418 79.4003 69.7335 79.3731 69.7257V59.7221H79.3699C79.4543 59.7099 79.536 59.6974 79.6158 59.6853ZM81.1874 68.2948C81.2865 68.3025 81.3789 68.3113 81.4669 68.3198C81.6364 68.336 81.7898 68.3507 81.9447 68.3528C82.9308 68.3625 83.4464 67.8791 83.5012 66.9025C83.5366 66.2548 83.2821 65.7294 82.8051 65.5425C82.4145 65.3896 82.013 65.3994 81.5991 65.4094C81.4632 65.4127 81.326 65.416 81.1874 65.4136V68.2948ZM81.4566 63.9296C81.6155 63.9282 81.7688 63.9268 81.9221 63.9311C82.7987 63.9601 83.7235 62.9417 83.1822 61.6977C83.0629 61.4237 82.8438 61.2465 82.5634 61.1788C82.1155 61.0692 81.6643 61.0692 81.2067 61.1885V63.9311C81.292 63.9311 81.3751 63.9304 81.4566 63.9296Z" fill="white"/>
<path fill-rule="evenodd" clip-rule="evenodd" d="M71.3042 61.8782C71.0012 62.8031 70.9336 63.7603 70.9271 64.7239V64.7271C70.9368 65.6908 70.998 66.6479 71.3009 67.5729C71.7424 68.9297 72.5835 69.8514 74.0723 69.9997C75.6804 70.1576 76.95 69.5388 77.5978 67.9338C77.6912 67.7018 77.775 67.4633 77.8362 67.2216C78.1681 65.9325 78.1746 64.6272 78.036 63.3188C77.9619 62.6226 77.804 61.9459 77.5043 61.3077C76.6407 59.4675 74.2302 58.8294 72.5642 60.0025C71.9035 60.4666 71.5458 61.1369 71.3042 61.8782ZM76.1715 64.3562L76.1715 64.3566C76.185 64.5409 76.199 64.7332 76.2153 64.9366H76.2185C76.2003 65.087 76.1827 65.2462 76.1645 65.4118L76.1644 65.4121C76.1151 65.8603 76.0607 66.3543 75.9736 66.8413C75.9188 67.1475 75.7803 67.4569 75.6062 67.7179C75.0713 68.5236 74.0272 68.5204 73.4761 67.7276C73.1378 67.2474 73.0089 66.6931 72.9444 66.1194C72.8155 64.9656 72.793 63.8119 73.0669 62.6742C73.1474 62.3423 73.2828 62.0039 73.4729 61.7235C73.995 60.9436 74.9939 60.9468 75.545 61.7041C75.8576 62.1328 75.9994 62.6323 76.0638 63.1447C76.1113 63.5316 76.1398 63.9217 76.1715 64.3562Z" fill="white"/>
<path d="M103.455 65.5554V69.8031C102.83 69.816 102.243 69.8192 101.634 69.7999V59.677C101.663 59.6736 101.689 59.6694 101.715 59.6654C101.762 59.658 101.805 59.6512 101.847 59.6512H103.432V63.7861H106.185V59.6705H108.015V69.787H106.22V65.5554H103.455Z" fill="white"/>
<path d="M65.2005 61.3625H67.8333V69.8127H69.5058C69.6476 69.8127 69.6927 69.7257 69.6927 69.5936C69.6905 69.5377 69.6913 69.4818 69.692 69.426C69.6923 69.398 69.6927 69.3701 69.6927 69.3422V60.0991C69.6927 60.0125 69.6874 59.9258 69.6819 59.8358L69.6819 59.8354C69.6788 59.7849 69.6757 59.7334 69.6734 59.6802H63.3894V69.7902H65.2005V61.3625Z" fill="white"/>
<path d="M48.985 73.7188H50.7928V78.1082C51.098 78.102 51.1925 77.9092 51.2887 77.713L51.2987 77.6925C51.4921 77.2961 51.6876 76.9008 51.8831 76.5055C52.2741 75.7148 52.6651 74.9241 53.0389 74.1248C53.1904 73.8058 53.3579 73.6607 53.7253 73.6865C54.0821 73.7112 54.4404 73.7062 54.821 73.7009C54.987 73.6986 55.1572 73.6962 55.3334 73.6962C55.3112 73.7404 55.2909 73.7815 55.2718 73.8202L55.2717 73.8205C55.2185 73.9281 55.1745 74.017 55.1271 74.1023C54.9774 74.3771 54.8273 74.6519 54.6771 74.9268C54.2196 75.7641 53.7617 76.6024 53.3128 77.4443C53.1324 77.7827 52.9422 78.0954 52.6071 78.2984C52.5559 78.3304 52.5118 78.3751 52.4561 78.4315C52.4276 78.4604 52.396 78.4923 52.359 78.5272C52.9338 78.8063 53.2042 79.3053 53.4735 79.8025C53.5152 79.8794 53.5569 79.9563 53.5996 80.0323C54.2407 81.1727 54.8785 82.3163 55.5163 83.46L55.517 83.4613C55.5522 83.5224 55.5831 83.5856 55.6195 83.66L55.6196 83.6603L55.6198 83.6606C55.6467 83.7157 55.6767 83.777 55.7136 83.8481C55.5186 83.8481 55.3291 83.8488 55.1434 83.8496C54.7831 83.851 54.4372 83.8523 54.0927 83.8481C53.9794 83.8466 53.8878 83.8481 53.8126 83.8492H53.8114C53.639 83.8519 53.5531 83.8533 53.4912 83.8154C53.4297 83.7778 53.3919 83.7016 53.3164 83.5496C53.2827 83.4817 53.2414 83.3986 53.1871 83.297C52.6974 82.379 52.2098 81.4569 51.7225 80.5357L51.722 80.5348L51.721 80.5328C51.5963 80.2971 51.4717 80.0615 51.3471 79.826C51.3412 79.8149 51.3353 79.8037 51.3294 79.7925C51.2299 79.6029 51.1311 79.4148 50.8025 79.5456V83.8287H48.985V73.7188Z" fill="white"/>
<path fill-rule="evenodd" clip-rule="evenodd" d="M58.5131 83.8223V80.4029H58.5163C58.6529 80.4029 58.7847 80.4037 58.9132 80.4044H58.9161C59.1654 80.4058 59.4023 80.4071 59.6377 80.4029C61.1362 80.3803 62.2802 79.4457 62.5799 77.9826C62.712 77.338 62.7217 76.6838 62.6154 76.0295C62.3898 74.6598 61.5229 73.7897 60.1566 73.6318C59.5378 73.5609 58.9062 73.5447 58.2811 73.5673C57.9031 73.5809 57.5283 73.6358 57.1534 73.6907L57.153 73.6908C56.9943 73.714 56.8353 73.7373 56.6762 73.7574V83.8223H58.5131ZM58.7595 78.736C58.6805 78.7273 58.5979 78.7183 58.5099 78.7109L58.5066 78.7141C58.5066 78.3367 58.507 77.9663 58.5074 77.6004V77.5997C58.5081 76.8819 58.5088 76.1816 58.5066 75.4817C58.5066 75.3108 58.5646 75.2174 58.7419 75.2109C58.811 75.2083 58.8797 75.2018 58.9482 75.1953C59.0457 75.186 59.143 75.1768 59.2414 75.1787C60.0986 75.2013 60.6109 75.6202 60.7108 76.4711C60.7624 76.8868 60.727 77.338 60.6271 77.7473C60.4692 78.4048 59.9536 78.7432 59.2188 78.7657C59.071 78.7701 58.9231 78.7539 58.7595 78.736Z" fill="white"/>
<path fill-rule="evenodd" clip-rule="evenodd" d="M63.7885 73.7155H65.6027V77.2961C65.645 77.2907 65.6838 77.2853 65.72 77.2803L65.7204 77.2802C65.8137 77.2672 65.8904 77.2565 65.9669 77.2542C66.0887 77.2515 66.2108 77.2459 66.3329 77.2404C66.6434 77.2263 66.9538 77.2122 67.2591 77.2445C68.4515 77.3735 69.1604 78.0083 69.4214 79.1782C69.618 80.0581 69.6051 80.9476 69.3957 81.8274C69.1185 83.0005 68.3709 83.687 67.2011 83.8932C66.1055 84.0866 65.0098 83.9963 63.9206 83.7901C63.897 83.7862 63.8747 83.7739 63.8477 83.759C63.8304 83.7495 63.8111 83.7389 63.7885 83.7288V73.7155ZM65.9312 82.2698C65.8307 82.2678 65.7252 82.2657 65.6124 82.2657V81.4922C65.6124 81.2868 65.6129 81.0812 65.6135 80.8755V80.8723C65.6148 80.3559 65.6161 79.8387 65.6092 79.3233C65.606 79.1073 65.6575 78.9752 65.8928 78.9623C65.9655 78.958 66.0387 78.9505 66.1119 78.943C66.2592 78.928 66.407 78.9129 66.5534 78.9236C67.0916 78.9623 67.4074 79.2781 67.5363 79.7938C67.6684 80.332 67.6652 80.8734 67.5137 81.402C67.3719 81.9015 67.0368 82.2174 66.5051 82.2625C66.3218 82.2776 66.1372 82.2739 65.9318 82.2698L65.9312 82.2698Z" fill="white"/>
<path d="M109.535 59.6641H109.532L109.535 59.6577V59.6641Z" fill="white"/>
<path fill-rule="evenodd" clip-rule="evenodd" d="M109.535 59.6641H111.359V63.2479C111.419 63.2437 111.473 63.2412 111.524 63.2389C111.63 63.234 111.721 63.2299 111.81 63.2124C112.342 63.119 112.867 63.1641 113.389 63.2737C114.353 63.4767 114.907 64.1148 115.149 65.0333C115.407 66.0098 115.384 66.996 115.107 67.9661C114.746 69.2359 113.815 69.8031 112.574 69.9191C111.685 70.0029 110.792 69.9675 109.909 69.8031C109.538 69.7354 109.535 69.729 109.535 69.3551V59.6641ZM113.328 67.0476C113.267 68.0434 112.374 68.4882 111.369 68.1401H111.366V67.1217C111.366 66.9332 111.367 66.745 111.368 66.5569C111.371 66.134 111.374 65.7117 111.362 65.2879C111.356 65.0398 111.453 64.9302 111.691 64.9173C111.744 64.9143 111.796 64.9071 111.847 64.8999C111.906 64.8917 111.965 64.8836 112.023 64.8819C112.793 64.8561 113.202 65.1719 113.315 65.9325C113.367 66.2967 113.351 66.677 113.328 67.0476Z" fill="white"/>
<path fill-rule="evenodd" clip-rule="evenodd" d="M62.5607 69.8063H62.5599C62.5394 69.7269 62.5228 69.6583 62.5079 69.5961L62.5078 69.5958C62.4903 69.5232 62.4748 69.4591 62.4576 69.397C61.768 67.0024 61.0784 64.6079 60.3855 62.2133C60.2715 61.82 60.1567 61.4274 60.042 61.0348L60.0395 61.0265C59.9247 60.6339 59.8099 60.2412 59.6959 59.8478L59.691 59.8313L59.687 59.8176L59.6866 59.8164C59.6496 59.69 59.6166 59.5773 59.4381 59.5803C59.1625 59.5846 58.8854 59.5832 58.6022 59.5817C58.4584 59.581 58.3128 59.5803 58.1652 59.5803L57.4312 62.1301C56.6977 64.6783 55.9642 67.2265 55.2198 69.8128C55.3804 69.8128 55.5364 69.8113 55.6891 69.8099C56.045 69.8066 56.3833 69.8034 56.7215 69.8192C56.9858 69.8289 57.0953 69.7225 57.1501 69.484C57.212 69.2185 57.2802 68.9537 57.3484 68.6886C57.426 68.3874 57.5037 68.0857 57.5723 67.7824C57.6238 67.56 57.7269 67.4923 57.9461 67.4955C58.5326 67.5084 59.1158 67.5084 59.7023 67.4955C59.9344 67.4923 60.0504 67.5536 60.1084 67.7985C60.2437 68.3818 60.4113 68.9587 60.5789 69.5324C60.6079 69.6323 60.7078 69.7934 60.7819 69.7934C61.2266 69.8107 61.6713 69.8091 62.1334 69.8074H62.1341C62.2742 69.8068 62.4161 69.8063 62.5599 69.8063L62.5607 69.8095V69.8063ZM59.6572 65.9808L59.6235 65.8204C59.3616 64.5755 59.1087 63.3735 58.8677 62.2456L58.8377 62.3889C58.5983 63.5331 58.3445 64.7466 58.0846 65.9808H59.6572Z" fill="white"/>
<path d="M91.6407 69.8036C91.6595 69.8025 91.6786 69.8014 91.6983 69.8003C91.7216 69.799 91.7456 69.7978 91.7705 69.7966V68.1111H88.5287V65.5006H91.4161V63.8183H88.5222V61.3335H91.6996V59.6737H86.6854C86.6821 59.7219 86.6781 59.7675 86.6742 59.8114C86.6666 59.8969 86.6596 59.9764 86.6596 60.0572V69.3808C86.6596 69.8095 86.666 69.8127 87.1043 69.8127H91.4096C91.4849 69.8127 91.5587 69.8084 91.6407 69.8036Z" fill="white"/>
<path d="M53.3617 64.4853C53.4899 64.5453 53.602 64.5978 53.7088 64.6595C54.1084 64.8947 54.3952 65.2396 54.537 65.6747C54.8142 66.5223 54.8174 67.3763 54.4951 68.2142C54.16 69.0844 53.509 69.6162 52.6229 69.8547C51.5111 70.1512 50.4154 70.0416 49.3326 69.6871C49.2474 69.6594 49.1678 69.6176 49.0827 69.5729C49.0391 69.55 48.994 69.5263 48.9459 69.5034C48.9831 69.3786 49.0199 69.2551 49.0565 69.1323L49.0566 69.132L49.0568 69.1312C49.1789 68.7216 49.299 68.3189 49.4229 67.8952C49.4832 67.9173 49.5392 67.9367 49.5923 67.955C49.6783 67.9846 49.7564 68.0116 49.8321 68.0434C50.3155 68.2432 50.8247 68.3238 51.3435 68.3109C51.8978 68.298 52.3683 68.0918 52.61 67.5761C52.8774 67.0057 52.8935 66.4095 52.5423 65.8584C52.3135 65.5006 51.93 65.3911 51.5336 65.3427C51.2492 65.3104 50.962 65.291 50.667 65.2712C50.5208 65.2613 50.3727 65.2513 50.2221 65.2396V63.7635C50.2895 63.7635 50.357 63.7651 50.4245 63.7667C50.5729 63.7701 50.7214 63.7736 50.8698 63.7603C50.9155 63.7557 50.9617 63.7515 51.0081 63.7472C51.253 63.7249 51.5043 63.702 51.7238 63.6153C52.4746 63.322 52.7936 62.3229 52.3425 61.6558C52.2136 61.4689 51.9655 61.3271 51.7431 61.2465C51.3081 61.0886 50.8601 61.1595 50.4315 61.3013C50.2622 61.3556 50.0972 61.423 49.9169 61.4968C49.8296 61.5324 49.7387 61.5696 49.642 61.6075C49.5247 61.2188 49.4092 60.832 49.2872 60.4231L49.1683 60.0251C49.2746 59.9863 49.3771 59.9464 49.4775 59.9073C49.6693 59.8327 49.8533 59.761 50.0416 59.706C50.8408 59.4707 51.6529 59.4095 52.4778 59.5481C53.667 59.7479 54.2728 60.3634 54.4307 61.5494C54.508 62.1102 54.4404 62.6581 54.2406 63.1899C54.0408 63.7281 53.6637 64.0987 53.1191 64.3726H53.1256C53.2108 64.4147 53.2889 64.4512 53.3617 64.4853Z" fill="white"/>
<path d="M117.876 59.6609H116.107V69.7838H117.876V59.6609Z" fill="white"/>
<path d="M72.1317 73.7252V83.8127H70.3367V73.7252H72.1317Z" fill="white"/>
<path d="M122.081 57.1277C121.523 57.2212 120.995 57.3082 120.463 57.3952H120.46C120.485 57.7916 120.595 58.1171 120.814 58.4007C121.04 58.6972 121.339 58.8938 121.697 58.9969C122.435 59.2064 123.179 59.2258 123.921 59.0195C124.617 58.8229 125.023 58.3492 125.174 57.6498L125.176 57.6427C125.205 57.5121 125.238 57.3592 125.032 57.3275C124.772 57.2897 124.51 57.2544 124.244 57.2185C124.079 57.1962 123.912 57.1737 123.743 57.1503C123.64 57.5982 123.499 57.9818 122.967 58.0075C122.371 58.0366 122.213 57.6015 122.081 57.1277Z" fill="white"/>
</svg>
