<svg width="168" height="25" viewBox="0 0 168 25" fill="none" xmlns="http://www.w3.org/2000/svg">
<path d="M21.1915 2.77309L18.6605 4.56454C17.1371 3.56091 15.356 2.9881 13.5175 2.90096C13.352 2.89307 13.185 2.88719 13.0141 2.88696C11.7033 2.8864 10.4012 3.13514 9.18731 3.61913C8.12702 4.0416 7.1526 4.63615 6.305 5.37537L6.26168 5.41288L6.138 5.52362C6.07183 5.58399 6.00724 5.64524 5.94265 5.70738C5.07299 6.5405 4.36876 7.52067 3.86777 8.60122C3.32344 9.77699 3.03198 11.0453 3.00914 12.3306L3.00756 12.5C3.00678 13.7621 3.26515 15.012 3.7693 16.1778C4.27345 17.3435 5.01155 18.4021 5.94343 19.2928C6.81151 20.1285 7.83162 20.8059 8.95729 21.2863C10.083 21.7666 11.2898 22.0415 12.517 22.1003L12.5501 22.1026C12.7053 22.113 12.8613 22.113 13.018 22.113C14.332 22.1137 15.6333 21.8649 16.8472 21.381C18.0611 20.8972 19.1639 20.1879 20.0919 19.2938C20.9631 18.4605 21.6681 17.48 22.1683 16.3988C22.7363 15.1715 23.0293 13.8432 23.0285 12.5V12.2428L25.8305 10.26C25.9683 10.9993 26.0369 11.749 26.0353 12.5C26.0376 14.247 25.6572 15.975 24.9191 17.5719C24.1817 19.1687 23.1026 20.5988 21.7524 21.7695C20.6488 22.7311 19.3774 23.5018 17.9981 24.0508C16.4195 24.6791 14.7266 25.0017 13.018 25L12.9345 24.9997C11.1432 24.9907 9.374 24.626 7.73631 23.9281C6.13958 23.2474 4.70197 22.2645 3.51092 21.0388C2.44276 19.9445 1.58807 18.6731 0.9894 17.2852C0.334796 15.7692 -0.00156452 14.144 1.09414e-05 12.5029C-0.00235225 10.7528 0.378121 9.02476 1.11701 7.42788C1.78973 5.97314 2.74446 4.65742 3.93078 3.54972C5.11317 2.44024 6.50666 1.55762 8.03486 0.949722C9.61426 0.321578 11.3079 -0.000774063 13.0141 1.8989e-05C15.9909 -0.00497257 18.8788 0.97426 21.1915 2.77309Z" fill="white"/>
<path d="M23.3184 4.85713C23.9368 5.62485 24.4598 6.45891 24.8781 7.3426L13.0204 15.7364L8.06479 12.7533V9.16448L13.0204 12.1476L23.3184 4.85713Z" fill="white"/>
<path d="M44.7738 16.5017C43.8553 16.9741 42.8257 17.2187 41.7812 17.2128C38.6547 17.2128 36.3861 15.0935 36.3861 12.1751C36.3861 9.25666 38.6547 7.13268 41.7812 7.13268C42.9085 7.11449 44.0129 7.43912 44.9321 8.0592L47.4206 6.31966L47.252 6.20621C45.801 4.9948 43.8616 4.35322 41.6426 4.35322C39.2345 4.35322 37.0517 5.1222 35.4936 6.52119C34.705 7.24151 34.0819 8.10832 33.6621 9.06754C33.243 10.0268 33.0358 11.0577 33.054 12.0963C33.0374 13.1454 33.2438 14.1869 33.6605 15.1587C34.0764 16.1306 34.6956 17.0127 35.4786 17.7525C37.0446 19.2071 39.2227 20.0085 41.6126 20.0085C44.1105 20.0085 46.2933 19.1816 47.7719 17.6761L45.545 16.1011L44.7738 16.5017Z" fill="white"/>
<path fill-rule="evenodd" clip-rule="evenodd" d="M57.9943 10.642H53.6665V7.14747H60.5733L64.2953 4.53432H50.1115V20.1896H57.5366C61.699 20.1896 64.0882 18.3984 64.0882 15.2745C64.0882 12.2859 61.9243 10.642 57.9943 10.642ZM57.3759 17.5836H53.6665V13.2457H57.3759C59.628 13.2457 60.6836 13.9726 60.6836 15.4147C60.6836 16.8566 59.5603 17.5836 57.3759 17.5836Z" fill="white"/>
<path d="M78.8471 4.54327L75.1219 7.14854H69.9378V10.978H77.5379V13.5832H69.9378V17.5934H78.8471V20.1986H66.3812V4.54327H78.8471Z" fill="white"/>
<path fill-rule="evenodd" clip-rule="evenodd" d="M81.2244 4.54103H88.0099C92.3393 4.54103 95.0168 6.68717 95.0168 10.1429C95.0168 13.5987 92.3393 15.7614 88.0099 15.7614H84.781V20.1963H81.2244V4.54103ZM84.781 13.1542H87.9351C90.2117 13.1542 91.4689 12.0894 91.4689 10.1524C91.4689 8.21543 90.2117 7.14826 87.9351 7.14826H84.781V13.1542Z" fill="white"/>
<path fill-rule="evenodd" clip-rule="evenodd" d="M109.12 10.642H104.794V7.14747H114.09V4.53432H101.237V20.1896H108.652C112.814 20.1896 115.204 18.3984 115.204 15.2745C115.213 12.2859 113.05 10.642 109.12 10.642ZM108.502 17.5836H104.794V13.2457H108.502C110.753 13.2457 111.809 13.9726 111.809 15.4147C111.809 16.8566 110.695 17.5836 108.502 17.5836Z" fill="white"/>
<path d="M155.638 20.1672H152.033V4.51192H155.638V11.0873H157.601L162.9 4.51192H166.987L160.701 11.9593L168 20.1672H163.216L157.851 14.0102H155.638V20.1672Z" fill="white"/>
<path fill-rule="evenodd" clip-rule="evenodd" d="M128.304 17.1921H120.676L119.383 20.2321H115.546L122.7 4.57686H126.536L133.574 20.2321H129.597L128.304 17.1921ZM127.109 14.3555L124.513 8.27528L121.901 14.3555H127.109Z" fill="white"/>
<path d="M138.429 4.57686V11.1142H145.89V4.57686H149.607V20.2321H145.89V14.0634H138.429V20.2321H134.711V4.57686H138.429Z" fill="white"/>
</svg>
