<svg width="160" height="26" viewBox="0 0 160 26" fill="none" xmlns="http://www.w3.org/2000/svg">
<path d="M20.1824 3.13786L17.772 4.90977C16.321 3.91709 14.6248 3.35052 12.8738 3.26433C12.7162 3.25653 12.5572 3.25072 12.3944 3.25049C11.146 3.24993 9.9059 3.49596 8.74982 3.97467C7.74002 4.39253 6.812 4.9806 6.00476 5.71175L5.9635 5.74885L5.84572 5.85839C5.7827 5.91809 5.72118 5.97868 5.65966 6.04014C4.83142 6.86417 4.16073 7.83364 3.68359 8.90241C3.16518 10.0654 2.8876 11.3198 2.86585 12.5911L2.86435 12.7587C2.8636 14.007 3.10967 15.2433 3.58981 16.3963C4.06995 17.5493 4.7729 18.5964 5.66041 19.4773C6.48716 20.3039 7.45869 20.9739 8.53075 21.4491C9.60282 21.9242 10.7522 22.1961 11.921 22.2542L11.9525 22.2565C12.1003 22.2668 12.2488 22.2668 12.3981 22.2668C13.6495 22.2674 14.8889 22.0214 16.0449 21.5428C17.201 21.0643 18.2513 20.3627 19.1351 19.4784C19.9648 18.6541 20.6363 17.6844 21.1127 16.6149C21.6536 15.401 21.9327 14.0872 21.9319 12.7587V12.5043L24.6004 10.5431C24.7317 11.2743 24.797 12.0158 24.7955 12.7587C24.7978 14.4866 24.4354 16.1957 23.7324 17.7752C23.0302 19.3546 22.0024 20.7691 20.7166 21.927C19.6655 22.8782 18.4547 23.6404 17.141 24.1835C15.6376 24.8049 14.0254 25.1239 12.3981 25.1223L12.3186 25.122C10.6126 25.1131 8.92762 24.7524 7.36791 24.0621C5.84722 23.3889 4.47807 22.4167 3.34374 21.2043C2.32644 20.122 1.51245 18.8644 0.942286 17.4917C0.318854 15.9922 -0.00149002 14.3848 1.04204e-05 12.7615C-0.00224024 11.0305 0.360116 9.32133 1.06382 7.74187C1.70451 6.303 2.61377 5.00164 3.7436 3.90601C4.86968 2.80864 6.19682 1.93565 7.65225 1.33438C9.15644 0.713089 10.7694 0.394254 12.3944 0.395038C15.2295 0.390101 17.9798 1.35865 20.1824 3.13786Z" fill="white"/>
<path d="M22.208 5.19917C22.7969 5.95851 23.2951 6.78347 23.6934 7.65752L12.4004 15.9598L7.68075 13.0092V9.45952L12.4004 12.4101L22.208 5.19917Z" fill="white"/>
<path d="M42.6417 16.7167C41.767 17.1839 40.7864 17.4258 39.7916 17.4201C36.814 17.4201 34.6534 15.3238 34.6534 12.4373C34.6534 9.5507 36.814 7.44989 39.7916 7.44989C40.8652 7.43189 41.917 7.75299 42.7925 8.3663L45.1625 6.64574L45.0019 6.53352C43.62 5.33533 41.773 4.70075 39.6596 4.70075C37.3662 4.70075 35.2873 5.46134 33.8034 6.84507C33.0524 7.55753 32.459 8.41488 32.0591 9.36364C31.66 10.3124 31.4627 11.3321 31.48 12.3594C31.4642 13.397 31.6608 14.4272 32.0576 15.3884C32.4537 16.3496 33.0434 17.2221 33.7891 17.9539C35.2806 19.3926 37.3549 20.1852 39.6311 20.1852C42.01 20.1852 44.0889 19.3673 45.4971 17.8783L43.3762 16.3204L42.6417 16.7167Z" fill="white"/>
<path fill-rule="evenodd" clip-rule="evenodd" d="M55.2326 10.921H51.1109V7.46451H57.6889L61.2337 4.87987H47.7252V20.3644H54.7968C58.7609 20.3644 61.0363 18.5927 61.0363 15.5029C61.0363 12.5469 58.9755 10.921 55.2326 10.921ZM54.6437 17.7868H51.1109V13.4962H54.6437C56.7886 13.4962 57.7939 14.2152 57.7939 15.6415C57.7939 17.0677 56.7241 17.7868 54.6437 17.7868Z" fill="white"/>
<path d="M75.0924 4.88873L71.5447 7.46558H66.6075V11.2532H73.8456V13.8301H66.6075V17.7964H75.0924V20.3732H63.2202V4.88873H75.0924Z" fill="white"/>
<path fill-rule="evenodd" clip-rule="evenodd" d="M77.3566 4.88651H83.819C87.9422 4.88651 90.4922 7.00924 90.4922 10.4272C90.4922 13.8453 87.9422 15.9845 83.819 15.9845H80.7439V20.371H77.3566V4.88651ZM80.7439 13.4057H83.7477C85.9159 13.4057 87.1132 12.3526 87.1132 10.4367C87.1132 8.52082 85.9159 7.4653 83.7477 7.4653H80.7439V13.4057Z" fill="white"/>
<path fill-rule="evenodd" clip-rule="evenodd" d="M103.924 10.921H99.8039V7.46451H108.657V4.87987H96.4159V20.3644H103.478C107.442 20.3644 109.718 18.5927 109.718 15.5029C109.727 12.5469 107.666 10.921 103.924 10.921ZM103.335 17.7868H99.8039V13.4962H103.335C105.479 13.4962 106.485 14.2152 106.485 15.6415C106.485 17.0677 105.424 17.7868 103.335 17.7868Z" fill="white"/>
<path d="M148.227 20.3422H144.793V4.85772H148.227V11.3613H150.096L155.143 4.85772H159.035L153.048 12.2239L160 20.3422H155.444L150.334 14.2523H148.227V20.3422Z" fill="white"/>
<path fill-rule="evenodd" clip-rule="evenodd" d="M122.194 17.3995H114.93L113.698 20.4064H110.044L116.857 4.92195H120.511L127.213 20.4064H123.425L122.194 17.3995ZM121.056 14.5939L118.583 8.58002L116.096 14.5939H121.056Z" fill="white"/>
<path d="M131.837 4.92195V11.388H138.943V4.92195H142.483V20.4064H138.943V14.305H131.837V20.4064H128.296V4.92195H131.837Z" fill="white"/>
</svg>
