<svg width="179" height="34" viewBox="0 0 179 34" fill="none" xmlns="http://www.w3.org/2000/svg">
<path d="M12.5035 9.24415C12.4338 9.36684 12.363 9.49144 12.2905 9.61887C12.3174 9.62163 12.3398 9.62449 12.3595 9.62701C12.3903 9.63094 12.4145 9.63403 12.439 9.63459C12.753 9.63478 13.067 9.6348 13.381 9.63482H13.3863C14.1231 9.63486 14.8599 9.6349 15.5966 9.63706C15.6972 9.63706 15.7527 9.60005 15.8015 9.51371C16.0846 9.0115 16.3716 8.51195 16.6586 8.01234L16.7245 7.89778C17.4825 6.57811 18.2411 5.25865 19.0002 3.93939C19.0773 3.80552 19.1563 3.67278 19.2406 3.5312C19.2811 3.46307 19.3229 3.39287 19.3663 3.31954C19.4187 3.41146 19.4688 3.49965 19.5176 3.58541C19.6011 3.73236 19.6807 3.87236 19.7609 4.01155C20.8131 5.83614 21.8625 7.66249 22.9092 9.49058C22.9718 9.59944 23.0384 9.63737 23.1611 9.63737C24.193 9.63459 25.2248 9.63459 26.2566 9.63459H26.2577C26.29 9.63459 26.3222 9.63232 26.3591 9.62971C26.3783 9.62836 26.3988 9.62691 26.4212 9.62565C26.4058 9.58232 26.388 9.5399 26.3678 9.4986C25.7746 8.46223 25.1814 7.42575 24.5882 6.38918C24.122 5.57546 23.6567 4.76133 23.1921 3.94679C22.5261 2.7811 21.8619 1.61429 21.1996 0.44634C21.1453 0.35105 21.0814 0.312502 20.9688 0.312502C19.906 0.315586 18.8432 0.315586 17.7806 0.312502C17.6766 0.312194 17.617 0.343032 17.563 0.437705C17.0539 1.32708 16.5436 2.21574 16.0323 3.10367C15.4296 4.146 14.8279 5.18906 14.2272 6.23283C13.7911 6.99227 13.3553 7.75233 12.9198 8.51301C12.782 8.75391 12.645 8.99509 12.5035 9.24415Z" fill="white"/>
<path d="M11.5881 14.1466C11.708 14.3574 11.8234 14.5602 11.9371 14.7601C12.1026 15.0509 12.2646 15.3356 12.4316 15.6299C12.3733 15.6401 12.3145 15.6472 12.2555 15.6512C12.0547 15.6512 11.8539 15.6511 11.6531 15.651C10.8165 15.6507 9.97998 15.6504 9.14362 15.6552C9.01813 15.6552 8.96136 15.5969 8.90767 15.501C8.43515 14.6731 7.96161 13.8458 7.48704 13.0191C7.16303 12.4544 6.83861 11.89 6.51378 11.3261C6.49579 11.2948 6.47994 11.2623 6.46122 11.224C6.45155 11.2042 6.44097 11.1825 6.42909 11.1589H32.2924C32.2683 11.2041 32.2455 11.2476 32.2235 11.2898C32.1845 11.3645 32.1475 11.4353 32.1083 11.5046C31.348 12.829 30.5879 14.1536 29.8279 15.4785C29.7601 15.5969 29.6877 15.6555 29.5414 15.6545C28.7898 15.6493 28.0383 15.6498 27.2866 15.6503C27.0213 15.6504 26.7559 15.6506 26.4905 15.6505C26.4552 15.6505 26.4198 15.6486 26.3733 15.6461C26.3475 15.6447 26.3181 15.6431 26.2837 15.6416C26.3731 15.4839 26.4611 15.3288 26.5487 15.1745L26.5575 15.1589C26.7451 14.8282 26.9306 14.5012 27.1229 14.1614C27.0946 14.1588 27.0698 14.156 27.0473 14.1535C27.0048 14.1488 26.9703 14.145 26.9361 14.145C24.9687 14.145 23.0013 14.1437 21.0339 14.141C20.8805 14.141 20.8498 14.1971 20.8498 14.3381C20.8535 16.7108 20.8544 19.0833 20.8526 21.4558V21.6803C20.8456 21.6808 20.8388 21.6812 20.8321 21.6816C20.8244 21.6821 20.817 21.6827 20.8097 21.6832C20.8042 21.6836 20.7988 21.684 20.7934 21.6844L20.7849 21.685C20.7435 21.6881 20.707 21.6908 20.6706 21.6908C20.4629 21.6908 20.2552 21.6906 20.0475 21.6904C19.3866 21.6898 18.7256 21.6892 18.0647 21.6948C17.9051 21.6948 17.8683 21.6427 17.8686 21.4913C17.8725 19.124 17.8734 16.7565 17.8714 14.3889C17.8714 14.1444 17.8714 14.1444 17.6281 14.1444H11.5881V14.1466Z" fill="white"/>
<path d="M10.7272 18.66H10.9202C11.9523 18.66 12.9848 18.66 14.017 18.6582C14.125 18.6582 14.1922 18.685 14.2496 18.7855C14.6681 19.5189 15.0904 20.2503 15.5125 20.9812L15.5131 20.9821L15.5151 20.9857C15.6378 21.1981 15.7604 21.4104 15.8828 21.6227C16.3842 22.4933 16.8853 23.3639 17.3863 24.2343C17.9834 25.2746 18.5796 26.3152 19.1748 27.3561C19.2133 27.4235 19.2541 27.4896 19.2999 27.5639C19.3117 27.5829 19.3239 27.6028 19.3364 27.6231C19.3453 27.6376 19.3545 27.6525 19.3638 27.6679C19.3899 27.6235 19.4153 27.5805 19.44 27.5385L19.4744 27.4801C19.5294 27.3869 19.5819 27.2978 19.6344 27.2081C20.3095 26.0301 20.9853 24.8519 21.662 23.6737C22.2695 22.616 22.8779 21.5586 23.4873 20.5017C23.5662 20.3647 23.6449 20.2276 23.7236 20.0905L23.7242 20.0894C23.977 19.6491 24.2299 19.2087 24.4876 18.7714C24.5071 18.7419 24.5328 18.7171 24.5627 18.6985C24.5927 18.68 24.6263 18.6681 24.6612 18.6637C25.6481 18.6577 26.6353 18.6586 27.6222 18.6595L27.8501 18.6597C27.8949 18.6633 27.9395 18.6695 27.9836 18.6782L19.3617 33.6875L10.7272 18.66Z" fill="white"/>
<path d="M7.26183 6.62419C7.23044 6.62562 7.20345 6.62705 7.17942 6.62832C7.13088 6.63089 7.09442 6.63282 7.05809 6.63282C6.84128 6.63282 6.62447 6.63272 6.40767 6.63263C5.60253 6.63227 4.79747 6.63191 3.99225 6.63652C3.86123 6.63652 3.78913 6.59088 3.72623 6.48233C2.99659 5.20542 2.2648 3.92954 1.53086 2.65469C1.11971 1.93965 0.707431 1.22513 0.294029 0.511123C0.273022 0.47523 0.254316 0.43847 0.232298 0.395201C0.222162 0.37528 0.211307 0.35395 0.199219 0.33072H14.16C14.1341 0.377806 14.1093 0.4235 14.0851 0.468229C14.0419 0.547944 14.0003 0.624756 13.9569 0.700778C13.8158 0.946267 13.6745 1.19159 13.5331 1.43694L13.5319 1.43901C13.2004 2.01434 12.8688 2.5898 12.5408 3.16784C12.4758 3.28256 12.4009 3.3174 12.2736 3.3171C10.0562 3.31339 7.83867 3.31247 5.6209 3.31432H5.35948L7.26183 6.62419Z" fill="white"/>
<path d="M33.0911 3.31091H33.3019L33.3329 3.35779L31.4612 6.62171C31.4892 6.62353 31.5134 6.62542 31.5351 6.62712C31.5758 6.63031 31.6076 6.63281 31.6395 6.63281C31.9552 6.633 32.271 6.63299 32.5867 6.63297C33.3082 6.63294 34.0297 6.63292 34.7513 6.63528C34.8627 6.63589 34.9278 6.59889 34.983 6.50206C35.4582 5.67004 35.9346 4.83874 36.4122 4.00817C37.0134 2.9646 37.6141 1.92073 38.2142 0.876543C38.282 0.758541 38.3481 0.639705 38.4165 0.516676C38.45 0.456439 38.4841 0.395198 38.5192 0.332557H24.5977C24.6036 0.345225 24.6089 0.356618 24.6137 0.367037C24.6293 0.401001 24.6402 0.424601 24.6536 0.4482C24.7869 0.680003 24.9207 0.911548 25.0545 1.14309C25.4284 1.79007 25.8022 2.43702 26.1662 3.0895C26.2641 3.26527 26.3706 3.31492 26.5608 3.31492C28.7377 3.31225 30.9144 3.31091 33.0911 3.31091Z" fill="white"/>
<path fill-rule="evenodd" clip-rule="evenodd" d="M135.537 23.1951L126.772 11.2069L117.98 23.2038C118.243 23.2038 118.499 23.2041 118.75 23.2045H118.752C119.576 23.2057 120.345 23.2068 121.114 23.1942C121.248 23.1715 121.368 23.0963 121.448 22.985C121.569 22.8205 121.684 22.6523 121.798 22.4847C121.984 22.2118 122.17 21.9403 122.379 21.688C122.53 21.511 122.743 21.3992 122.974 21.3759C124.488 21.3645 126.002 21.3634 127.515 21.3622H127.52C128.53 21.3615 129.541 21.3607 130.551 21.3569C130.679 21.3494 130.806 21.3778 130.919 21.4389C131.031 21.5 131.125 21.5914 131.188 21.7027C131.465 22.1241 131.752 22.5365 132.05 22.94C132.129 23.0464 132.26 23.1839 132.369 23.1839C133.149 23.1985 133.928 23.1973 134.766 23.1959H134.769C135.019 23.1955 135.275 23.1951 135.537 23.1951ZM126.769 15.4419L129.222 18.9212H124.316L126.769 15.4419Z" fill="white"/>
<path fill-rule="evenodd" clip-rule="evenodd" d="M103.531 23.1986L103.531 22.366C103.531 22.1117 103.531 21.8574 103.531 21.6032C103.531 21.1947 103.531 20.7862 103.531 20.3777C103.532 17.6666 103.533 14.9558 103.523 12.2445C103.523 11.8571 103.617 11.7257 104.022 11.7257C105.675 11.7338 107.328 11.7335 108.981 11.7331H108.987C110.504 11.7328 112.021 11.7325 113.538 11.7387C114.668 11.7387 115.737 11.9687 116.567 12.8333C117.027 13.315 117.335 13.9223 117.453 14.579C117.712 15.9451 117.737 17.2983 117.165 18.603C116.901 19.2028 116.43 19.6868 115.838 19.9666C115.525 20.1213 115.537 20.2605 115.69 20.5277C115.99 21.0487 116.277 21.5779 116.564 22.1077L116.638 22.2447C116.676 22.3148 116.714 22.3849 116.752 22.455C116.8 22.5435 116.848 22.632 116.896 22.7204C116.944 22.8083 116.986 22.8999 117.035 23.0091C117.06 23.0654 117.088 23.1266 117.12 23.1942C116.898 23.1942 116.68 23.1946 116.465 23.195C115.737 23.1964 115.042 23.1977 114.348 23.183C114.245 23.183 114.105 23.0481 114.05 22.9409C113.689 22.2371 113.336 21.529 113.002 20.8122C112.875 20.5415 112.71 20.4326 112.406 20.4343C110.453 20.4453 108.5 20.4453 106.547 20.4343C106.202 20.4343 106.093 20.545 106.103 20.8839C106.115 21.2562 106.113 21.629 106.112 22.0015C106.11 22.2769 106.109 22.5528 106.113 22.8276C106.119 23.1069 106.027 23.2081 105.742 23.2012C105.253 23.1923 104.762 23.1944 104.25 23.1965H104.243C104.011 23.1975 103.774 23.1986 103.531 23.1986ZM110.112 17.7747V17.7661C110.47 17.7661 110.828 17.768 111.187 17.77C112.019 17.7745 112.851 17.7791 113.682 17.7591C114.63 17.7367 115.061 17.2144 115.049 16.2028C115.037 15.1912 114.578 14.6577 113.656 14.6525C112.395 14.6442 111.135 14.6447 109.874 14.6452C108.754 14.6457 107.633 14.6461 106.513 14.6404C106.177 14.6404 106.101 14.7813 106.106 15.0813C106.119 15.8293 106.128 16.578 106.106 17.3294C106.094 17.7047 106.247 17.7877 106.586 17.7825C107.458 17.7703 108.331 17.7719 109.205 17.7736H109.207C109.508 17.7741 109.81 17.7747 110.112 17.7747Z" fill="white"/>
<path d="M152.814 16.2097H153.433C154.139 16.2097 154.845 16.2101 155.55 16.2105H155.556C157.847 16.2117 160.138 16.213 162.429 16.2011C162.821 16.2011 162.96 16.3048 162.933 16.706C162.899 17.209 162.899 17.7136 162.933 18.2166C162.962 18.6402 162.75 18.6765 162.416 18.6757C159.429 18.6682 156.445 18.6682 153.463 18.6757C153.141 18.6757 152.979 18.6757 152.898 18.757C152.815 18.8394 152.815 19.0054 152.814 19.3397C152.814 20.5148 152.814 20.5148 153.981 20.5148C154.68 20.5148 155.38 20.5153 156.079 20.5157C158.177 20.5172 160.276 20.5187 162.374 20.507C162.791 20.507 162.964 20.5935 162.936 21.0517C162.906 21.5355 162.913 22.0194 162.919 22.515C162.922 22.728 162.925 22.9431 162.925 23.1614H150.246C150.245 23.1555 150.245 23.1496 150.245 23.1438C150.244 23.1353 150.244 23.1268 150.243 23.1183C150.243 23.1077 150.242 23.0971 150.241 23.0865C150.24 23.0626 150.238 23.0389 150.237 23.0154C150.23 22.9179 150.224 22.8237 150.224 22.7291C150.224 21.9872 150.224 21.2454 150.225 20.5035C150.226 17.747 150.227 14.9906 150.214 12.2341C150.214 11.8252 150.341 11.7309 150.726 11.7326C154.628 11.7447 158.53 11.7447 162.432 11.7326C162.835 11.7326 162.954 11.8563 162.932 12.2514C162.903 12.8122 162.903 13.3741 162.932 13.9349C162.953 14.3196 162.815 14.4312 162.443 14.4277C161.145 14.4175 159.845 14.4191 158.547 14.4206C158.081 14.4211 157.614 14.4217 157.149 14.4217C156.779 14.4217 156.41 14.4225 156.04 14.4234C155.117 14.4255 154.194 14.4276 153.271 14.4165C152.916 14.4165 152.783 14.5271 152.804 14.8868C152.825 15.1851 152.821 15.4883 152.817 15.8093L152.817 15.8115L152.816 15.9558C152.816 15.9773 152.815 15.999 152.815 16.0207C152.815 16.0829 152.814 16.1459 152.814 16.2097Z" fill="white"/>
<path fill-rule="evenodd" clip-rule="evenodd" d="M40.9876 23.1977L49.7768 11.2095C52.6954 15.199 55.5803 19.1417 58.5014 23.1329C58.3938 23.1627 58.2841 23.1841 58.1731 23.1969C57.9307 23.1969 57.6883 23.1981 57.446 23.1993C56.8129 23.2024 56.18 23.2055 55.5476 23.1873C55.3609 23.1685 55.1888 23.0777 55.0676 22.934C54.9077 22.7344 54.7619 22.524 54.616 22.3135C54.4591 22.0872 54.302 21.8606 54.1275 21.6474C53.9951 21.4907 53.8067 21.3923 53.6027 21.3733C51.0498 21.3549 48.4964 21.3549 45.9423 21.3733C45.7409 21.3935 45.5554 21.4919 45.4253 21.6474C45.2215 21.8969 45.0349 22.1602 44.8482 22.4237C44.7192 22.6058 44.5899 22.7883 44.455 22.966C44.3783 23.0672 44.2413 23.1856 44.1302 23.1873C43.3602 23.2007 42.5871 23.1996 41.7481 23.1984H41.7211C41.4825 23.1981 41.2384 23.1977 40.9876 23.1977ZM49.7768 15.4341C49.2801 16.1453 48.8074 16.821 48.3338 17.4982C48.0063 17.9664 47.6784 18.4352 47.3417 18.9169H52.2206L49.7768 15.4341Z" fill="white"/>
<path d="M64.9582 11.7387C64.4067 11.7378 63.8552 11.7369 63.3036 11.7369C62.5206 11.7369 61.7378 11.7378 60.9549 11.7386C59.6131 11.74 58.2713 11.7414 56.9289 11.7387C56.585 11.7369 56.4377 11.8234 56.4515 12.1952C56.4748 12.8713 56.4713 13.5492 56.4515 14.2254C56.4411 14.5712 56.5713 14.6577 56.9039 14.6577C58.0055 14.6462 59.1052 14.6479 60.2044 14.6495H60.2072C60.5997 14.6501 60.9922 14.6508 61.3847 14.6508C62.0016 14.6508 62.0016 14.6507 62.0016 15.256C62.0016 15.8786 62.0022 16.5012 62.0027 17.1239C62.0043 18.9924 62.0059 20.8616 61.993 22.7299C61.9904 23.1216 62.1059 23.2297 62.4807 23.2081C63.011 23.1739 63.5429 23.1739 64.0731 23.2081C64.504 23.2383 64.5901 23.0697 64.5901 22.6677C64.5827 21.3973 64.5826 20.1256 64.5825 18.8533C64.5824 17.6194 64.5823 16.385 64.5755 15.1505C64.5755 14.7536 64.6961 14.6335 65.0925 14.6386C66.1674 14.6544 67.2427 14.6518 68.3181 14.6492C68.7213 14.6483 69.1245 14.6473 69.5276 14.6473H69.5559C69.8423 14.6474 69.9856 14.6474 70.0575 14.5755C70.1295 14.5036 70.13 14.3595 70.1308 14.0712L70.1308 14.0663C70.1314 13.8773 70.1291 13.6881 70.1268 13.499C70.122 13.097 70.1172 12.695 70.1394 12.2946C70.1627 11.8666 70.0369 11.7222 69.5897 11.7266C68.047 11.7437 66.5039 11.7412 64.9607 11.7387H64.9582Z" fill="white"/>
<path d="M96.5158 11.7381C98.0826 11.7397 99.6497 11.7414 101.216 11.7291C101.6 11.7291 101.756 11.8251 101.733 12.235C101.701 12.8686 101.701 13.5035 101.733 14.1372C101.757 14.5695 101.59 14.6655 101.19 14.6559C100.124 14.6402 99.0589 14.6428 97.9936 14.6454C97.594 14.6463 97.1945 14.6473 96.795 14.6473C96.1746 14.6473 96.1737 14.6473 96.1728 15.2525C96.1728 15.8718 96.1722 16.4909 96.1716 17.11C96.1699 18.9667 96.1681 20.8234 96.1823 22.6798C96.1823 23.0983 96.0651 23.2323 95.6515 23.2055C95.1214 23.1744 94.59 23.1744 94.06 23.2055C93.7024 23.2236 93.5947 23.1043 93.5964 22.7455C93.6095 20.4351 93.6062 18.1294 93.6029 15.8224V15.8201L93.6024 15.4912C93.6024 15.4037 93.6031 15.3252 93.6038 15.2547C93.6068 14.9354 93.6083 14.7811 93.5322 14.7077C93.461 14.6391 93.322 14.6413 93.053 14.6457L93.0519 14.6457C92.9643 14.6471 92.863 14.6487 92.7459 14.6482C91.3396 14.6412 89.9333 14.6369 88.5279 14.6533C88.1789 14.6533 88.0385 14.5574 88.0505 14.1925C88.0721 13.5605 88.0798 12.9249 88.0505 12.2903C88.029 11.858 88.1565 11.7188 88.602 11.7231C90.1914 11.7428 91.7803 11.7406 93.3702 11.7383C93.8763 11.7376 94.3834 11.7369 94.8898 11.7369C95.4305 11.7369 95.9713 11.7375 96.5121 11.7381H96.5158Z" fill="white"/>
<path d="M71.4261 11.7422L71.424 11.7422C71.1594 11.7396 70.8859 11.7369 70.5996 11.7369L79.0967 23.4675L87.5361 11.7949C87.441 11.7699 87.3443 11.752 87.2466 11.7413C87.0578 11.7405 86.869 11.7391 86.6802 11.7377C86.0073 11.7326 85.3344 11.7275 84.6615 11.7525C84.4857 11.7594 84.266 11.9168 84.154 12.069C83.2016 13.3677 82.2579 14.6724 81.3139 15.9773C80.9186 16.5238 80.5233 17.0703 80.1273 17.6165C79.9077 17.9194 79.6844 18.22 79.4545 18.5294L79.4533 18.531L79.4483 18.5377C79.3337 18.692 79.2175 18.8485 79.0993 19.0085C79.0662 18.9703 79.0363 18.9361 79.009 18.905L79.0071 18.9028L79.0048 18.9001C78.9307 18.8155 78.8758 18.7528 78.8279 18.6904C78.4317 18.1436 78.0349 17.5976 77.6382 17.0517L77.6373 17.0506C76.4809 15.4594 75.3245 13.8683 74.1859 12.2592C73.905 11.8606 73.6112 11.7024 73.1295 11.7266C72.5779 11.7535 72.0246 11.7481 71.4261 11.7422Z" fill="white"/>
<path d="M149.192 11.7438L140.717 23.464L132.257 11.7862C132.3 11.7812 132.34 11.7761 132.376 11.7711C132.396 11.7684 132.415 11.7657 132.433 11.7632C132.528 11.7499 132.604 11.7392 132.681 11.7386C132.901 11.7386 133.122 11.7369 133.343 11.7351C133.911 11.7306 134.481 11.7261 135.048 11.7516C135.278 11.7733 135.49 11.8848 135.639 12.062C136.871 13.7345 138.087 15.4154 139.303 17.0968L139.303 17.0977L139.309 17.1054C139.707 17.656 140.105 18.2065 140.504 18.7569C140.536 18.8008 140.569 18.8433 140.614 18.9004C140.64 18.9332 140.67 18.9708 140.705 19.0163C140.785 18.913 140.862 18.8159 140.936 18.7223C141.077 18.5454 141.207 18.3809 141.331 18.2113C142.824 16.1506 144.315 14.0896 145.804 12.0283C145.891 11.9107 146.037 11.7603 146.159 11.7568C146.901 11.7396 147.644 11.7411 148.443 11.7428C148.687 11.7433 148.936 11.7438 149.192 11.7438Z" fill="white"/>
<path d="M167.856 13.461V11.7369H165.917C165.275 11.7378 165.275 11.7378 165.275 12.3621V21.3413C165.275 21.5094 165.277 21.6774 165.278 21.8455C165.281 22.1814 165.283 22.5173 165.275 22.8527C165.269 23.1164 165.369 23.2141 165.628 23.2029C165.847 23.1948 166.067 23.1975 166.287 23.2002C166.397 23.2015 166.507 23.2029 166.617 23.2029C167.453 23.2029 168.289 23.2026 169.124 23.2023C171.989 23.2012 174.853 23.2001 177.717 23.2115C178.103 23.2133 178.213 23.0983 178.196 22.7239C178.163 22.0902 178.163 21.4553 178.196 20.8217C178.224 20.3703 178.061 20.2735 177.636 20.2735C176.026 20.2821 174.415 20.2824 172.805 20.2827C171.332 20.283 169.859 20.2833 168.386 20.2899C167.983 20.2916 167.842 20.1905 167.846 19.7634C167.862 18.2085 167.86 16.6537 167.857 15.0993C167.857 14.5531 167.856 14.007 167.856 13.461Z" fill="white"/>
</svg>
