<svg width="146" height="19" viewBox="0 0 146 19" fill="none" xmlns="http://www.w3.org/2000/svg">
<path opacity="0.983" fill-rule="evenodd" clip-rule="evenodd" d="M8.25998 0.622803H0.0712891V18.5439H8.25998V12.6478H17.5302V18.5439H25.7189V0.622803H17.5302V5.97585H8.25998V0.622803ZM50.7486 0.622803H41.7874C45.4385 6.58571 49.0693 12.5594 52.6799 18.5439H61.6411C58.0305 12.5594 54.3997 6.58571 50.7486 0.622803ZM58.7824 0.622803H68.1299C70.1221 3.88675 72.1048 7.15806 74.0783 10.4367C72.5805 13.0138 71.0354 15.5611 69.4432 18.0784C65.8694 12.2706 62.3158 6.45212 58.7824 0.622803ZM89.915 0.622803H80.9538C77.2902 6.57738 73.6594 12.5511 70.0613 18.5439H79.0225C82.6332 12.5594 86.2641 6.58571 89.915 0.622803ZM98.3356 0.622803H107.297C110.948 6.58571 114.579 12.5594 118.189 18.5439H109.228C105.617 12.5572 101.986 6.58355 98.3356 0.622803ZM131.168 0.622803H122.979V18.5439H146V11.872H131.168V0.622803ZM39.856 18.5439H30.5085C34.0217 12.6779 37.5752 6.83353 41.1693 1.0107C42.7615 3.52805 44.3066 6.07527 45.8044 8.65236C43.8033 11.9412 41.8205 15.2384 39.856 18.5439ZM87.0568 18.5439H96.327C98.3502 15.2575 100.359 11.9603 102.353 8.65236C100.825 6.08696 99.2664 3.53974 97.6789 1.0107C94.1168 6.84648 90.5764 12.6909 87.0568 18.5439Z" fill="white"/>
</svg>
