<svg width="120" height="38" viewBox="0 0 120 38" fill="none" xmlns="http://www.w3.org/2000/svg">
<path fill-rule="evenodd" clip-rule="evenodd" d="M56.7416 27.8683C58.0327 25.0307 58.5498 22.0584 58.5712 18.8693C58.5577 17.4604 58.4229 16.0547 58.1682 14.6654C57.7912 12.5474 57.0455 10.4989 55.9606 8.59929C52.9969 3.53817 48.382 0.72352 42.1871 0.106069C40.4549 -0.0637294 38.7063 -0.0295733 36.9837 0.207882C34.1359 0.557004 31.4315 1.5666 29.1233 3.14175C26.8151 4.71691 24.9795 6.80606 23.788 9.21346C22.4206 11.8846 21.6595 14.7846 21.5518 17.7362C21.4709 19.2073 21.5294 20.6819 21.7266 22.1438C21.9748 24.0796 22.5037 25.9762 23.2994 27.7829C24.406 30.3529 26.1921 32.6276 28.4956 34.4008C31.2314 36.4532 34.5874 37.6792 38.1071 37.9118C40.053 38.0806 42.0148 37.9955 43.9347 37.6589C46.5702 37.2181 49.0532 36.2049 51.178 34.703C53.6549 32.9166 55.5744 30.5585 56.7416 27.8683ZM31.6269 22.308C31.4162 21.2826 31.3099 20.2412 31.3095 19.1978V19.201C31.2714 17.3415 31.5742 15.4894 32.2047 13.7228C32.6288 12.5112 33.3196 11.3933 34.234 10.4385C35.3071 9.3294 36.7544 8.5855 38.3425 8.32669C39.89 8.04129 41.4924 8.14803 42.9788 8.63542C44.7153 9.23908 46.1515 10.4073 47.016 11.9197C47.7486 13.1458 48.2457 14.4789 48.4854 15.8609C48.796 17.4958 48.8631 19.162 48.6851 20.8136C48.5464 22.5274 48.0485 24.2004 47.2193 25.7401C46.5499 27.0088 45.5053 28.0779 44.2057 28.8241C42.8266 29.566 41.2377 29.9092 39.6443 29.8094C38.3386 29.7962 37.059 29.4691 35.933 28.8602C34.8068 28.2513 33.8731 27.3816 33.2247 26.3378C32.4258 25.097 31.8841 23.7308 31.6269 22.308Z" fill="white"/>
<path d="M93.663 11.4173C93.6712 11.5152 93.6796 11.6155 93.6897 11.7197L103.43 11.7263C103.434 11.6474 103.434 11.5683 103.43 11.4898C103.413 10.0789 103.119 8.68238 102.563 7.368C101.584 5.13565 99.8026 3.28068 97.5165 2.1131C95.0172 0.815144 92.2107 0.100475 89.3423 0.0308474C87.4268 -0.0548731 85.5073 0.0978489 83.636 0.484084C81.5832 0.876887 79.6302 1.62473 77.8798 2.68786C75.8159 3.91882 74.287 5.77872 73.5609 7.94275C73.098 9.3908 72.961 10.9108 73.1579 12.4094C73.2988 13.8062 73.8052 15.1505 74.6344 16.3276C75.5955 17.6328 76.8787 18.71 78.3791 19.4707C79.7101 20.162 81.1128 20.7296 82.5661 21.1654C83.9902 21.6134 85.4436 21.967 86.8975 22.3206C87.3405 22.4283 87.7837 22.5361 88.226 22.6466C89.5374 22.9428 90.8216 23.3327 92.067 23.8125C92.7086 24.0605 93.3031 24.4007 93.8288 24.8208C94.3014 25.1873 94.6316 25.6852 94.7704 26.2396C94.9298 26.8219 94.8984 27.4348 94.6808 28.001C94.4633 28.5672 94.0688 29.0615 93.5471 29.4221C93.2311 29.6474 92.8877 29.8379 92.5235 29.9903C91.664 30.348 90.7403 30.5562 89.7988 30.6045C88.4503 30.7211 87.0897 30.6189 85.7794 30.3023C85.1189 30.1591 84.4973 29.8924 83.9531 29.519C83.4088 29.1456 82.9538 28.6733 82.616 28.1314C82.2159 27.4548 81.958 26.7149 81.8564 25.9506C81.8271 25.7493 81.8034 25.5474 81.7801 25.3486C81.7666 25.2329 81.7531 25.1182 81.7387 25.0047C80.9291 24.9325 72.2378 24.9653 71.9738 25.0409V25.4908C72.0017 26.4216 72.1211 27.3481 72.3305 28.2595C72.7727 30.2997 73.8209 32.1869 75.3584 33.7114C76.7229 35.0215 78.3856 36.0377 80.2265 36.687C82.3996 37.4654 84.7006 37.8986 87.0312 37.9679C89.1351 38.0661 91.2439 37.9383 93.3153 37.5869C95.1006 37.2999 96.8268 36.7603 98.4331 35.9875C100.952 34.8117 102.891 32.7964 103.854 30.3516C104.505 28.6398 104.769 26.8236 104.632 25.0146C104.571 23.5784 104.133 22.1773 103.356 20.9309C102.579 19.6848 101.486 18.6302 100.17 17.8581C98.6824 16.968 97.0728 16.2645 95.3838 15.766C93.7048 15.2322 91.9841 14.8343 90.2635 14.4363C90.036 14.3837 89.8086 14.3311 89.5812 14.2782C88.2888 14.0016 87.0159 13.6538 85.7687 13.2371C85.1025 13.019 84.4759 12.7086 83.9106 12.3174C83.6093 12.104 83.3603 11.834 83.1806 11.5256C83.0008 11.2169 82.8946 10.877 82.8682 10.5275C82.8418 10.1784 82.8963 9.82794 83.0283 9.49951C83.1599 9.17108 83.366 8.87221 83.6325 8.6226C84.1278 8.14999 84.7527 7.80973 85.4406 7.63731C86.7969 7.29673 88.2231 7.2652 89.5955 7.54535C90.4432 7.6846 91.2492 7.98775 91.96 8.4354C92.398 8.70208 92.7703 9.05088 93.0524 9.45879C93.3345 9.8667 93.52 10.3249 93.597 10.8034C93.6287 11.0074 93.6454 11.2068 93.663 11.4173Z" fill="white"/>
<path d="M70.4867 0.779333H60.7396V37.1958H70.4867V0.779333Z" fill="white"/>
<path d="M0 37.2023H9.78981C14.3074 25.0855 18.8307 12.9444 23.36 0.779333H13.5773L0 37.2023Z" fill="white"/>
<path d="M120 38H110.253V28.5412H120V38Z" fill="white"/>
</svg>
