<svg width="81" height="46" viewBox="0 0 81 46" fill="none" xmlns="http://www.w3.org/2000/svg">
<path d="M16.6433 30.3594H0.691406V6.60244L13.0279 0.328857H20.0145L40.6323 10.5417L61.2501 0.328857H68.2367L80.5732 6.60244V30.3594H64.6212V14.5782L48.6693 22.4809H32.5953L16.6433 14.5782V30.3594Z" fill="white"/>
<path fill-rule="evenodd" clip-rule="evenodd" d="M62.7668 45.1827C59.6341 45.1917 57.2364 42.8994 57.2304 39.8952C57.2244 36.9169 59.653 34.573 62.7538 34.566C65.8815 34.5591 68.2782 36.8554 68.2822 39.8645C68.2862 42.8735 65.8875 45.1728 62.7668 45.1827ZM60.1916 39.8555C60.1916 41.435 61.2787 42.5985 62.7638 42.6025C64.2489 42.6065 65.3849 41.4182 65.3749 39.8794C65.3649 38.3554 64.202 37.1453 62.7468 37.1463C61.2917 37.1472 60.1896 38.3018 60.1876 39.8555H60.1916Z" fill="white"/>
<path d="M77.6594 39.3661L75.1521 43.1773L72.6586 39.4187L72.5589 39.4485V44.9474H69.7384V34.7675C69.972 34.7675 70.2048 34.7668 70.437 34.7662C71.1695 34.764 71.8962 34.7618 72.6208 34.7814C72.7355 34.7814 72.8691 34.98 72.9509 35.1051C73.3151 35.6865 73.6762 36.2716 74.0368 36.856C74.319 37.3133 74.6009 37.7702 74.8838 38.2244C74.9382 38.3118 74.9977 38.3963 75.066 38.4936C75.104 38.5475 75.1449 38.6057 75.189 38.6701C75.3384 38.4301 75.4871 38.1921 75.635 37.9554L75.637 37.9522C76.2223 37.015 76.7942 36.0994 77.3463 35.1746C77.5308 34.8668 77.7282 34.7417 78.0933 34.7546C78.6808 34.7758 79.2688 34.7719 79.8671 34.7678C80.1087 34.7662 80.352 34.7646 80.5977 34.7646V44.9464H77.7771V39.3869L77.6594 39.3661Z" fill="white"/>
<path d="M3.76377 39.4157L6.2512 43.1813L8.7845 39.3442L8.88424 39.378V44.9504H11.6898V34.7636C11.4335 34.7636 11.18 34.7648 10.9287 34.7661H10.9262C10.3112 34.7691 9.70862 34.7721 9.10964 34.7566C8.79847 34.7477 8.6329 34.8638 8.48031 35.118C8.02232 35.8834 7.55074 36.641 7.07912 37.3988L7.07832 37.4C6.96481 37.5824 6.85123 37.7649 6.73791 37.9474C6.64022 38.1056 6.53969 38.2618 6.4278 38.4358C6.37749 38.514 6.32484 38.5959 6.26916 38.683C6.04705 38.3247 5.82929 37.9724 5.61427 37.6244L5.61356 37.6233C5.08542 36.7688 4.57364 35.9407 4.05501 35.117C3.96724 34.98 3.81165 34.7814 3.682 34.7814C2.97428 34.7597 2.2654 34.7623 1.55627 34.7649C1.32519 34.7657 1.09355 34.7665 0.862449 34.7665V44.9583H3.65507V39.4395L3.76377 39.4157Z" fill="white"/>
<path d="M46.7947 34.7636C46.5848 34.7645 46.3739 34.7655 46.1617 34.7655L46.1577 44.9523H48.9503V39.4693L49.0272 39.5603C49.1327 39.6852 49.2013 39.7664 49.2665 39.8475C50.5278 41.465 51.7938 43.079 53.0644 44.6892C53.1582 44.8094 53.3058 44.9692 53.4325 44.9692C54.0126 44.9886 54.5928 44.9861 55.1755 44.9837C55.3702 44.9829 55.565 44.9821 55.7603 44.9821V34.7973H52.9677V40.0868C52.7682 39.8564 52.6685 39.7383 52.5687 39.6142C51.3899 38.1006 50.206 36.5905 49.0171 35.0842C48.9094 34.9531 48.7508 34.7794 48.6102 34.7794C48.0087 34.758 47.4062 34.7607 46.7947 34.7636Z" fill="white"/>
<path d="M32.6055 36.073L31.0038 37.9881C30.8018 37.9002 30.6067 37.8054 30.4147 37.7122C30.0103 37.5157 29.6197 37.326 29.2085 37.2217C27.5748 36.8077 26.1277 37.8034 25.8993 39.4246C25.6459 41.2225 26.6972 42.6015 28.4146 42.7157C28.5808 42.7254 28.7475 42.7231 28.9133 42.7087C30.162 42.6174 30.3465 42.3871 30.16 41.1014H28.252V39.0454H32.9047C32.9247 39.1534 32.938 39.2624 32.9446 39.372C32.9446 39.724 32.9455 40.0761 32.9464 40.4281C32.9488 41.3665 32.9512 42.3054 32.9367 43.2438C32.9325 43.4485 32.8505 43.644 32.7073 43.7908C30.7983 45.418 27.4512 45.6563 25.3158 44.3379C23.4408 43.1793 22.5382 40.9485 23.0308 38.692C23.4837 36.6181 25.2799 34.9621 27.3933 34.6603C29.1038 34.4161 30.6986 34.6812 32.1298 35.6948C32.2421 35.7717 32.348 35.8598 32.46 35.9531C32.5071 35.9923 32.5554 36.0325 32.6055 36.073Z" fill="white"/>
<path d="M21.2186 38.7148V40.9714H16.3675V42.5439H21.7971V44.9375H13.5599V34.8112H21.7383V37.2038H16.3655V38.7197L21.2186 38.7148Z" fill="white"/>
<path fill-rule="evenodd" clip-rule="evenodd" d="M45.1044 44.9841C44.8859 44.9841 44.6691 44.9846 44.4535 44.9851H44.4513C43.736 44.9866 43.0346 44.9882 42.3348 44.9722C42.2424 44.9722 42.1501 44.8864 42.0615 44.8041C42.0314 44.7762 42.0018 44.7486 41.9727 44.725C41.9522 44.7083 41.9453 44.6766 41.9381 44.644C41.9338 44.6243 41.9294 44.6042 41.9219 44.587C41.859 44.4464 41.8067 44.2907 41.7544 44.1349C41.6343 43.7769 41.5141 43.4188 41.2646 43.2438C41.0245 43.0783 40.6446 43.1109 40.2668 43.1433C40.1096 43.1567 39.9527 43.1702 39.8065 43.1693C39.6223 43.1693 39.4381 43.17 39.254 43.1708C38.757 43.1727 38.2601 43.1747 37.7639 43.1624C37.5095 43.1554 37.3509 43.2239 37.2911 43.4751C37.283 43.5071 37.272 43.5384 37.2582 43.5684C37.199 43.7074 37.151 43.8634 37.1029 44.0195C36.9938 44.3739 36.8847 44.7281 36.6458 44.8819C36.3835 45.0514 35.9914 45.0253 35.6037 44.9994C35.4488 44.9891 35.2947 44.9789 35.1498 44.9811C34.845 44.987 34.5398 44.9851 34.2178 44.9832C34.0501 44.9822 33.8768 44.9811 33.6976 44.9811C33.724 44.9095 33.7479 44.8422 33.7708 44.7781C33.8179 44.6458 33.8604 44.5266 33.91 44.4083C34.2787 43.5403 34.6481 42.6726 35.0175 41.8047L35.0223 41.7935C35.9703 39.5665 36.9188 37.3384 37.8556 35.106C37.9962 34.7725 38.1718 34.6662 38.5189 34.6801C38.8273 34.692 39.1363 34.69 39.4451 34.6881C39.7843 34.686 40.1235 34.6839 40.4617 34.7C40.5509 34.7105 40.6366 34.7408 40.7124 34.7888C40.7882 34.8367 40.8521 34.9011 40.8996 34.977C42.3065 38.2544 43.7028 41.5362 45.0885 44.8223C45.0991 44.8756 45.1044 44.9298 45.1044 44.9841ZM39.3915 38.0963L38.2645 40.9296H40.5036L39.3915 38.0963Z" fill="white"/>
</svg>
