<svg width="95" height="57" viewBox="0 0 95 57" fill="none" xmlns="http://www.w3.org/2000/svg">
<path d="M94.4004 18.0063C94.2602 18.1193 94.1228 18.2363 93.9797 18.3445C92.5497 19.4287 91.1311 20.5303 89.6 21.4685C88.2482 22.2967 86.8458 23.0156 85.349 23.5345C84.9789 23.663 84.6011 23.7703 84.2272 23.8891C84.1632 23.9094 84.1003 23.9336 83.9887 23.9732C85.5436 25.0545 87.0147 26.1677 88.5124 27.3089C88.4104 27.3427 88.3483 27.3688 88.2835 27.3852C87.2102 27.6519 86.1303 27.8848 85.0352 28.0394C83.961 28.1911 82.8811 28.2404 81.7993 28.1853C80.5219 28.1205 79.2865 27.8384 78.1026 27.3427C77.4062 27.0518 76.8023 26.6141 76.2385 26.1155C75.5822 25.5347 74.9936 24.8854 74.4098 24.2331C73.7859 23.5355 73.1123 22.8977 72.3272 22.3904C72.0238 22.1952 71.7014 22.03 71.3828 21.8589C70.6978 21.4908 70.0043 21.1381 69.325 20.7593C68.7336 20.4288 68.185 20.0326 67.6852 19.5688C67.3589 19.2663 67.0899 18.9165 66.8323 18.5561C65.9327 17.298 65.3431 15.8968 64.9644 14.3991C64.6992 13.3516 64.5265 12.2877 64.4426 11.2103C64.3892 10.53 64.3529 9.84878 64.3109 9.1685C64.3062 9.08443 64.3109 9.00037 64.3109 8.88731C64.5542 8.99747 64.7164 9.15884 64.8986 9.28832C65.0846 9.42071 65.263 9.56372 65.4443 9.70286C65.6255 9.84201 65.8068 9.98019 65.9871 10.1203C66.174 10.2653 66.3591 10.4112 66.5451 10.5571C66.7245 10.6982 66.9029 10.8412 67.0813 10.9832C67.2597 11.1262 67.4371 11.2702 67.6146 11.4132C67.792 11.5572 67.9694 11.7012 68.1469 11.8452C68.3215 11.9872 68.496 12.1283 68.7021 12.2964C68.7154 12.1911 68.7298 12.1321 68.7298 12.0732C68.7307 9.79273 69.1104 7.57507 69.7763 5.39993C70.2456 3.86738 70.7989 2.36671 71.3799 0.874746C71.419 0.775217 71.4772 0.682452 71.544 0.552002C71.6461 0.664093 71.7281 0.745262 71.7997 0.834162C72.4579 1.64489 73.0456 2.50586 73.5741 3.40839C74.5929 5.15062 75.3714 7.00206 76.0086 8.91726C76.1012 9.19556 76.1889 9.47482 76.2796 9.75408C76.3015 9.82075 76.3272 9.88646 76.3578 9.97343C76.4036 9.93381 76.4436 9.91062 76.4684 9.8768C77.8641 7.99445 79.5984 6.48509 81.515 5.17768C82.9746 4.18239 84.5095 3.32432 86.137 2.64211C86.7962 2.36575 87.4697 2.12804 88.1566 1.93381C88.2453 1.90869 88.3369 1.89129 88.4581 1.86327C88.4685 1.95797 88.4838 2.03237 88.4848 2.10678C88.4895 2.92524 88.438 3.73886 88.3436 4.55248C88.1394 6.30922 87.7407 8.02054 87.1959 9.69803C86.5778 11.5987 85.7612 13.4057 84.6603 15.0736C84.521 15.2842 84.3722 15.4891 84.2291 15.6978C84.1938 15.749 84.1632 15.8022 84.1174 15.8766C84.1871 15.8911 84.2357 15.9084 84.2853 15.9113C84.9818 15.9461 85.6791 15.9606 86.3736 16.0138C88.999 16.2167 91.5547 16.7317 93.9883 17.785C94.1247 17.8439 94.2621 17.901 94.3985 17.958V18.0053L94.4004 18.0063ZM75.981 21.6937C75.9857 21.6811 75.9905 21.6695 75.9962 21.657C76.0563 21.6724 76.1164 21.6869 76.1756 21.7033C77.2335 21.9952 78.2829 22.3198 79.3647 22.5141C80.4933 22.717 81.6266 22.8532 82.7771 22.7759C83.3972 22.7344 84.0077 22.6397 84.6011 22.4522C85.6906 22.1092 86.7228 21.6328 87.7187 21.0724C89.1812 20.2491 90.5368 19.2625 91.8924 18.2759C91.921 18.2546 91.941 18.2218 91.9801 18.1783C91.8924 18.1493 91.8285 18.1242 91.7626 18.1077C90.6589 17.8362 89.5504 17.5869 88.4256 17.4188C87.1215 17.2236 85.8136 17.1028 84.4924 17.1849C83.7788 17.2294 83.0728 17.3173 82.3736 17.4565C81.1086 17.7087 79.8894 18.1193 78.695 18.6025C77.8441 18.9475 77.0017 19.3147 76.1555 19.6712C76.0821 19.7021 76.0105 19.7485 75.918 19.7263C76.0802 19.5871 76.249 19.4615 76.4227 19.3427C77.6495 18.502 78.8801 17.6681 80.1021 16.8216C81.0733 16.1491 82.0044 15.4243 82.8563 14.5972C83.8666 13.6164 84.7127 12.5138 85.3509 11.2489C86.0044 9.95217 86.4223 8.57616 86.6961 7.15183C86.8725 6.23191 86.9784 5.30233 87.0605 4.36985C87.0786 4.1679 87.0805 3.96497 87.09 3.74273C87.008 3.76205 86.9546 3.76978 86.905 3.78717C85.4168 4.32057 83.9743 4.95543 82.6292 5.79998C81.3948 6.57495 80.2882 7.50163 79.3638 8.64283C78.5319 9.66904 77.8908 10.8112 77.3766 12.0287C76.8834 13.198 76.4932 14.4039 76.105 15.6118C75.751 16.7134 75.3933 17.814 75.0365 18.9146C75.0184 18.9697 74.9898 19.0219 74.9659 19.075C74.9421 19.0035 74.9421 18.9407 74.9497 18.8789C75.0747 17.7599 75.2111 16.6419 75.3218 15.5219C75.4267 14.4629 75.4391 13.3999 75.3723 12.336C75.3113 11.3659 75.1558 10.4141 74.9106 9.47578C74.3144 7.19048 73.2707 5.10617 72.1097 3.07501C72.0887 3.03926 72.0506 3.01317 72.001 2.96292C71.9494 3.09047 71.9036 3.19097 71.8683 3.29436C71.6031 4.07513 71.3322 4.853 71.0794 5.63764C70.5042 7.41563 70.0758 9.22358 70.0176 11.1069C69.9976 11.7466 70.0377 12.3757 70.1598 12.9999C70.3677 14.0657 70.7551 15.0697 71.2101 16.0486C71.6718 17.0409 72.2242 17.9821 72.7966 18.9127C72.9072 19.0924 73.015 19.2731 73.1247 19.4528C73.0704 19.4528 73.0398 19.4325 73.016 19.4065C72.6182 18.9793 72.2108 18.5609 71.8273 18.1203C71.0956 17.2777 70.4355 16.379 69.9127 15.3876C69.4309 14.4735 68.8099 13.6773 68.0677 12.969C67.3074 12.2442 66.4755 11.6065 65.6646 10.9446C65.6379 10.9223 65.5988 10.9156 65.5521 10.8962C65.5492 10.9475 65.5435 10.9784 65.5473 11.0083C65.6522 11.8423 65.7467 12.6781 65.865 13.5101C66.0023 14.4716 66.2399 15.406 66.6024 16.3085C67.1538 17.6826 68.0124 18.7919 69.2878 19.5466C69.7276 19.8065 70.1674 20.0664 70.6196 20.3032C71.6432 20.8395 72.642 21.4067 73.5598 22.1276C74.2886 22.6996 74.9592 23.3229 75.586 24.0031C76.0993 24.5607 76.6211 25.1076 77.1906 25.6082C78.0148 26.3319 78.9612 26.7929 80.0296 27.0141C81.2422 27.2654 82.4585 27.247 83.6777 27.0827C84.3998 26.9861 85.1191 26.8721 85.8403 26.7648C85.9605 26.7465 86.0798 26.7213 86.2372 26.6924C86.1714 26.6218 86.1408 26.5764 86.0998 26.5484C85.3071 25.9947 84.5238 25.4236 83.7149 24.8941C82.9078 24.3655 82.0387 23.9655 81.0962 23.7432C80.8825 23.693 80.6679 23.6466 80.4551 23.5915C79.0098 23.2195 77.6581 22.6146 76.3502 21.9014C76.2271 21.8338 76.1059 21.7633 75.9838 21.6947L75.981 21.6937Z" fill="white"/>
<path d="M14.0381 40.1983C14.0171 39.9152 14.0247 39.9036 14.2527 39.8485C14.4283 39.806 14.6057 39.7722 14.7774 39.72C14.9348 39.6727 15.0922 39.6176 15.2382 39.5432C15.739 39.2881 16.0567 38.8871 16.1407 38.316C16.1683 38.1276 16.1817 37.9372 16.1941 37.7478C16.2027 37.6135 16.2017 37.4782 16.2017 37.3429C16.1998 34.1995 16.1979 31.0562 16.195 27.9128C16.195 27.8278 16.195 27.7427 16.195 27.6577C16.1798 27.6529 16.1645 27.648 16.1492 27.6422C16.1139 27.707 16.0748 27.7707 16.0443 27.8374C15.4385 29.1622 14.8308 30.487 14.2298 31.8147C13.355 33.7483 12.485 35.6847 11.614 37.6193C11.3049 38.3054 10.9968 38.9914 10.6887 39.6775C10.6696 39.721 10.6495 39.7645 10.6295 39.807C10.5112 40.0595 10.3141 40.197 10.038 40.2196C9.85584 40.2341 9.84725 40.2341 9.76712 40.0631C9.5353 39.5683 9.30444 39.0736 9.0793 38.5759C8.35714 36.9815 7.63879 35.3862 6.91567 33.7927C6.02847 31.8389 5.13841 29.886 4.24835 27.9331C4.21305 27.8558 4.17394 27.7814 4.11098 27.6558C4.08236 27.7591 4.06041 27.8075 4.05755 27.8558C4.04324 28.1486 4.02416 28.4423 4.02416 28.7351C4.02321 31.5132 4.02226 34.2913 4.02989 37.0695C4.03084 37.4811 4.07377 37.8927 4.1043 38.3034C4.13482 38.716 4.3323 39.0349 4.64997 39.29C4.95143 39.5326 5.29391 39.6775 5.6631 39.7722C5.78426 39.8031 5.90636 39.836 6.02275 39.8814C6.17443 39.9413 6.21927 39.9944 6.29273 40.1664C6.20782 40.2186 6.11242 40.2003 6.02275 40.2003C4.78448 40.2032 3.54622 40.2041 2.30795 40.2051C1.78327 40.2051 1.25762 40.208 0.732934 40.209C0.66234 40.209 0.588884 40.2177 0.522105 40.2012C0.479176 40.1906 0.427661 40.1471 0.412397 40.1065C0.388548 40.0447 0.411443 39.979 0.482992 39.9529C0.548816 39.9287 0.616549 39.9075 0.684282 39.8881C0.917053 39.8186 1.15746 39.7693 1.38164 39.6765C1.58198 39.5934 1.77659 39.4823 1.95117 39.3528C2.39477 39.0252 2.58842 38.5624 2.60464 38.0164C2.61227 37.7546 2.61609 37.4927 2.61609 37.2308C2.61609 33.7067 2.61609 30.1826 2.61227 26.6576C2.61227 26.3812 2.5951 26.1019 2.56076 25.8275C2.50734 25.4004 2.30223 25.0661 1.91014 24.8699C1.62204 24.725 1.33299 24.5839 1.04584 24.4399C0.876985 24.3558 0.710039 24.2689 0.542139 24.1829C0.409535 24.1152 0.370422 24.0089 0.422891 23.8427C0.492532 23.8369 0.567896 23.8263 0.64326 23.8263C2.08568 23.8263 3.52714 23.8292 4.96956 23.8234C5.15272 23.8234 5.24907 23.8843 5.32634 24.0553C6.66478 27.0132 8.00989 29.9681 9.35309 32.924C9.72037 33.7319 10.0829 34.5406 10.4511 35.3475C10.5427 35.5475 10.6486 35.7408 10.7488 35.9379C10.868 35.9118 10.8776 35.8229 10.9081 35.7563C11.2725 34.9562 11.635 34.1561 11.9966 33.354C12.8523 31.4552 13.7071 29.5555 14.5637 27.6577C15.1046 26.4595 15.6513 25.2642 16.1845 24.0621C16.2647 23.8814 16.3629 23.8205 16.5547 23.8215C17.9418 23.8302 19.3289 23.8273 20.7159 23.8302C20.8304 23.8302 20.9449 23.8466 21.0727 23.8563C21.026 24.0669 20.8896 24.1655 20.7493 24.2418C20.5566 24.3462 20.3477 24.4196 20.1502 24.5153C19.9747 24.6003 19.7934 24.6815 19.6341 24.7936C19.1638 25.1231 18.952 25.6111 18.8786 26.1657C18.8404 26.4479 18.8242 26.7349 18.8223 27.019C18.8156 27.8046 18.8194 28.5902 18.8223 29.3767C18.8261 31.0755 18.8328 32.7743 18.8366 34.472C18.8385 35.4963 18.8328 36.5196 18.8404 37.5439C18.8423 37.8203 18.8776 38.0976 18.9062 38.373C18.9511 38.8107 19.202 39.1122 19.5502 39.347C19.7944 39.5123 20.0634 39.6128 20.3506 39.6775C20.5404 39.721 20.7293 39.779 20.9115 39.8495C21.0889 39.9181 21.0889 39.9394 21.0451 40.1877C20.9449 40.1935 20.839 40.2061 20.7322 40.2061C18.9377 40.207 17.1423 40.2061 15.3479 40.207C14.9949 40.207 14.6429 40.2109 14.2899 40.2099C14.206 40.2099 14.122 40.2012 14.0419 40.1964L14.0381 40.1983Z" fill="white"/>
<path d="M23.4568 40.1587C23.4901 39.9413 23.5855 39.8408 23.7649 39.805C23.9948 39.7587 24.2219 39.693 24.4499 39.6369C24.9536 39.5113 25.2865 39.1972 25.4744 38.7102C25.6166 38.343 25.6709 37.9594 25.6929 37.571C25.7053 37.341 25.7053 37.111 25.7053 36.881C25.7053 33.6826 25.7053 30.4841 25.7053 27.2857C25.7053 26.8721 25.6986 26.4595 25.5994 26.0556C25.5527 25.8642 25.4945 25.6729 25.4191 25.4912C25.2264 25.0303 24.8906 24.7114 24.4317 24.5269C24.2133 24.4389 23.9939 24.3549 23.7744 24.2679C23.6103 24.2032 23.5083 24.0824 23.4539 23.9055C23.5245 23.8311 23.6142 23.8398 23.6962 23.8379C23.9471 23.8321 24.198 23.8302 24.4489 23.8292C26.1498 23.8292 27.8498 23.8253 29.5508 23.8292C30.3731 23.8311 31.1954 23.8572 32.013 23.9626C32.9784 24.0882 33.8771 24.3839 34.6412 25.0216C35.7383 25.9377 36.2563 27.1137 36.1142 28.5486C35.9692 30.0106 35.2117 31.0803 33.9334 31.7577C33.5327 31.9693 33.0958 32.1094 32.6741 32.2814C32.6026 32.3104 32.5281 32.3336 32.4251 32.3694C32.4795 32.4573 32.5196 32.5307 32.5673 32.5974C33.3343 33.6806 34.1013 34.7648 34.8711 35.8461C35.2193 36.3351 35.5828 36.8134 35.9272 37.3062C36.6331 38.314 37.5613 39.0262 38.6966 39.4697C38.8721 39.5383 39.04 39.6292 39.2184 39.6862C39.4445 39.7587 39.5113 39.921 39.5246 40.1587C39.4426 40.1722 39.3691 40.1925 39.2947 40.1964C39.0915 40.2051 38.8874 40.2119 38.6842 40.2119C37.5709 40.2119 36.4585 40.2032 35.3452 40.2119C35.1077 40.2138 34.9551 40.1375 34.8158 39.9423C33.3839 37.9353 31.9453 35.9331 30.5067 33.9309C30.2577 33.584 30.0011 33.2439 29.7568 32.8931C29.67 32.7675 29.5699 32.7221 29.422 32.7279C29.1482 32.7385 28.8735 32.7327 28.5997 32.7356C28.5233 32.7356 28.447 32.7453 28.3488 32.752C28.3402 32.8419 28.3278 32.9182 28.3278 32.9936C28.3278 34.5252 28.3278 36.0577 28.3316 37.5893C28.3316 37.9237 28.3755 38.2532 28.4556 38.5788C28.5033 38.7701 28.5968 38.9286 28.7313 39.0678C29.0175 39.3644 29.3533 39.5731 29.753 39.6717C29.9276 39.7152 30.1031 39.7567 30.2777 39.8021C30.5191 39.8659 30.5296 39.8824 30.5534 40.1896C30.478 40.1954 30.4036 40.2051 30.3283 40.2051C28.2667 40.207 26.2061 40.209 24.1446 40.2099C23.9958 40.2099 23.8469 40.2041 23.6981 40.1954C23.6228 40.1906 23.5483 40.1732 23.4577 40.1597L23.4568 40.1587ZM28.3364 25.3018C28.3306 25.4236 28.323 25.5251 28.323 25.6265C28.323 26.7378 28.324 27.848 28.324 28.9593C28.324 29.7372 28.3201 30.5141 28.3211 31.2919C28.3211 31.3828 28.3354 31.4736 28.3449 31.5876C28.6369 31.5876 28.9021 31.5905 29.1673 31.5876C29.7988 31.5809 30.416 31.4775 31.0085 31.2533C31.7707 30.9644 32.3669 30.4706 32.7485 29.7352C33.1063 29.0463 33.1597 28.3099 33.0214 27.5572C32.7752 26.215 31.7974 25.3057 30.4637 25.1395C29.8723 25.0661 29.2913 25.1308 28.7103 25.2236C28.5892 25.2429 28.469 25.2748 28.3373 25.3028L28.3364 25.3018Z" fill="white"/>
<path d="M78.8094 40.1858C78.7064 40.1925 78.5996 40.2051 78.4927 40.2051C76.9492 40.2061 75.4056 40.2061 73.8612 40.2051C73.4223 40.2051 72.9835 40.2022 72.5447 40.1954C72.4454 40.1935 72.3472 40.1713 72.2318 40.1558C72.2852 39.9471 72.3787 39.8012 72.5609 39.7335C72.6706 39.693 72.786 39.6659 72.8995 39.6359C72.9902 39.6128 73.0837 39.5983 73.1743 39.5731C73.6122 39.4543 73.8287 39.176 73.8488 38.716C73.8602 38.458 73.8125 38.2097 73.7333 37.9671C73.637 37.6734 73.5368 37.3806 73.4223 37.0946C73.1524 36.4182 72.8719 35.7456 72.6 35.0692C72.5561 34.96 72.4979 34.904 72.3777 34.9001C72.1278 34.8933 71.8769 34.8653 71.6269 34.8653C70.0595 34.8624 68.4922 34.8653 66.9248 34.8653C66.9095 34.8653 66.8933 34.8673 66.878 34.8653C66.7159 34.846 66.6185 34.9069 66.5623 35.0731C66.484 35.305 66.3781 35.5282 66.2837 35.7543C66.0223 36.3834 65.7571 37.0105 65.5014 37.6415C65.427 37.8241 65.3793 38.0174 65.3211 38.2068C65.3068 38.2522 65.2982 38.2996 65.2916 38.3459C65.2114 38.8977 65.3841 39.2059 65.8983 39.406C66.0805 39.4765 66.2761 39.5152 66.4564 39.5896C66.6214 39.6572 66.7807 39.7442 66.9314 39.8398C67.0221 39.8978 67.0889 39.9906 67.1184 40.1355C67.0288 40.1549 66.9496 40.1829 66.8694 40.1887C66.7054 40.2003 66.5403 40.2051 66.3762 40.2051C64.9109 40.2041 63.4456 40.2003 61.9803 40.1983C61.8954 40.1983 61.8114 40.1983 61.7227 40.1983C61.7056 40.0447 61.779 39.9577 61.8601 39.8881C61.9603 39.8022 62.07 39.719 62.1883 39.662C62.6986 39.4147 63.0831 39.0291 63.4046 38.5682C63.727 38.1053 63.9665 37.5961 64.1907 37.0801C65.5701 33.9058 66.9458 30.7305 68.3223 27.5562C68.8299 26.386 69.3374 25.2168 69.8382 24.0447C69.9069 23.8843 69.9937 23.8147 70.1712 23.8224C70.6634 23.8427 70.5661 23.7761 70.7493 24.208C72.4874 28.3051 74.2237 32.4032 75.9637 36.5003C76.2175 37.0975 76.4608 37.7014 76.809 38.2522C76.9187 38.4252 77.0379 38.5933 77.1648 38.7547C77.4434 39.1074 77.7801 39.3857 78.2046 39.5461C78.3296 39.5934 78.4508 39.6495 78.57 39.7084C78.7913 39.8166 78.8266 39.8862 78.8075 40.1867L78.8094 40.1858ZM71.9561 33.5695C71.8368 33.1183 69.7705 28.1814 69.6121 27.9824C69.5673 28.0645 69.5206 28.136 69.4872 28.2133C69.3154 28.6047 69.1456 28.997 68.9796 29.3912C68.4311 30.6899 67.8845 31.9886 67.3388 33.2883C67.3006 33.3801 67.2711 33.4758 67.2377 33.5705C67.479 33.6401 71.7433 33.6381 71.957 33.5705L71.9561 33.5695Z" fill="white"/>
<path d="M61.1074 40.1375C60.9786 40.1606 60.8813 40.1877 60.7821 40.1945C60.618 40.2061 60.4529 40.209 60.2888 40.209C58.2597 40.209 56.2297 40.209 54.2006 40.209C54.1166 40.209 54.0336 40.2003 53.9497 40.1954C53.9649 39.9191 54.0078 39.8543 54.2206 39.7944C54.439 39.7335 54.6613 39.6843 54.8807 39.6224C55.1393 39.5499 55.3778 39.435 55.5905 39.263C55.9101 39.005 56.077 38.6667 56.1219 38.2638C56.1476 38.028 56.1629 37.7893 56.1638 37.5516C56.1696 36.3534 56.1648 35.1552 56.1734 33.957C56.1753 33.6671 56.098 33.4207 55.9416 33.1772C54.5344 30.9895 53.1369 28.796 51.7336 26.6064C51.5418 26.3068 51.3415 26.0121 51.1278 25.729C50.6584 25.1047 50.0813 24.6167 49.3496 24.3317C49.3353 24.3259 49.3209 24.3191 49.3066 24.3133C49.0519 24.2012 49.0414 24.179 49.092 23.8505C49.1607 23.8437 49.2351 23.8311 49.3105 23.8311C51.3319 23.8311 53.3534 23.8311 55.3749 23.8331C55.5867 23.8331 55.7975 23.8476 56.0093 23.8582C56.0455 23.8601 56.0818 23.8737 56.1257 23.8833C56.1209 24.0176 56.0484 24.1046 55.9597 24.1655C55.8443 24.2457 55.7202 24.3162 55.5905 24.3674C55.4159 24.436 55.2318 24.4795 55.0525 24.5394C54.3646 24.7685 54.1385 25.2613 54.4467 25.9589C54.5545 26.2044 54.6909 26.4392 54.834 26.6663C55.871 28.3109 56.9137 29.9536 57.9554 31.5954C57.9917 31.6533 58.0365 31.7055 58.0918 31.779C58.1491 31.7036 58.1949 31.6524 58.2311 31.5954C59.2147 30.0377 60.2011 28.4819 61.177 26.9194C61.3516 26.6392 61.4985 26.3377 61.6282 26.0333C61.7103 25.8401 61.7542 25.6246 61.7856 25.4149C61.841 25.0496 61.7074 24.8003 61.3821 24.6351C61.2495 24.5684 61.1045 24.5278 60.9652 24.4757C60.7964 24.4119 60.6237 24.3578 60.4606 24.2814C60.3022 24.208 60.1763 24.092 60.119 23.9055C60.2326 23.8186 60.3528 23.835 60.4663 23.835C61.4222 23.8302 62.3781 23.8273 63.3339 23.8263C64.1172 23.8263 64.9013 23.8282 65.6845 23.8311C65.7771 23.8311 65.8687 23.8389 65.9612 23.8437C66.0146 23.9915 65.9421 24.0795 65.8572 24.1481C65.779 24.2119 65.6874 24.2631 65.5939 24.3008C64.7058 24.6641 63.9865 25.2555 63.4074 26.014C63.064 26.4653 62.7635 26.9513 62.4582 27.4306C61.3306 29.2057 60.2087 30.9847 59.0849 32.7626C59.0258 32.8564 58.9666 32.9501 58.9142 33.0477C58.834 33.1965 58.794 33.355 58.7949 33.527C58.7978 34.8441 58.7949 36.1611 58.8035 37.4792C58.8054 37.8367 58.8588 38.1904 58.9752 38.5315C59.1632 39.0813 59.5209 39.4465 60.0876 39.5886C60.2774 39.6359 60.4663 39.691 60.6504 39.7577C60.8278 39.8215 60.9891 39.9181 61.1064 40.1394L61.1074 40.1375Z" fill="white"/>
<path d="M40.4299 23.8679C40.6951 23.8553 40.9365 23.834 41.1778 23.8331C43.2546 23.8302 45.3314 23.8311 47.4073 23.8321C47.4827 23.8321 47.5571 23.8447 47.6668 23.8553C47.621 23.9944 47.599 24.1123 47.5428 24.2099C47.5094 24.2679 47.4245 24.3124 47.3548 24.3298C47.1726 24.3742 46.9866 24.41 46.8006 24.4331C46.087 24.5249 45.6739 24.9405 45.528 25.6391C45.4841 25.8478 45.4574 26.0614 45.4402 26.2739C45.424 26.4788 45.4278 26.6866 45.4278 26.8924C45.4278 30.345 45.4268 33.7966 45.4316 37.2492C45.4316 37.5739 45.4583 37.8985 45.4917 38.2213C45.5175 38.4667 45.6014 38.6996 45.7235 38.916C45.9029 39.2359 46.1623 39.4514 46.521 39.5316C46.75 39.5828 46.9809 39.6321 47.2127 39.6678C47.475 39.7075 47.6086 39.8659 47.6649 40.1104C47.6124 40.2012 47.5265 40.1896 47.4531 40.1925C47.2413 40.2012 47.0305 40.208 46.8187 40.208C44.9851 40.209 43.1516 40.209 41.3171 40.208C41.1129 40.208 40.9097 40.2032 40.7065 40.1945C40.6235 40.1906 40.5405 40.1713 40.4604 40.1597C40.4671 39.8408 40.5157 39.7693 40.779 39.7036C40.9613 39.6582 41.1473 39.6253 41.3314 39.5876C41.3696 39.5799 41.4087 39.5731 41.4468 39.5654C41.9916 39.462 42.3522 39.1412 42.5067 38.6059C42.583 38.3411 42.6507 38.0657 42.6641 37.7913C42.6927 37.1738 42.686 36.5544 42.6927 35.936C42.6937 35.8403 42.6899 35.7456 42.6899 35.65C42.6899 32.8168 42.6918 29.9836 42.687 27.1504C42.687 26.7465 42.6641 26.3416 42.6231 25.9396C42.6011 25.7212 42.5353 25.5038 42.46 25.297C42.2949 24.8458 41.9706 24.5704 41.5012 24.4776C41.2932 24.437 41.0853 24.3993 40.8773 24.3645C40.6188 24.3211 40.4871 24.1577 40.4318 23.8679H40.4299Z" fill="white"/>
<path d="M11.7895 46.6503C11.8229 46.7122 11.8372 46.7489 11.8601 46.7798C12.1902 47.2427 12.5164 47.7084 12.8542 48.1655C12.9372 48.2776 13.0554 48.3636 13.1594 48.4592C13.209 48.5047 13.2634 48.5452 13.3617 48.6264C13.1909 48.6303 13.0774 48.6341 12.9629 48.6341C12.7282 48.6341 12.4926 48.6283 12.2579 48.6361C12.0948 48.6409 11.9794 48.5839 11.8821 48.4467C11.5777 48.0138 11.2629 47.5886 10.9529 47.1596C10.8832 47.0639 10.8098 46.9702 10.7487 46.8687C10.6533 46.7102 10.5188 46.6706 10.3519 46.7064C10.3376 46.7363 10.3194 46.7576 10.3204 46.7788C10.3252 47.2378 10.3166 47.6988 10.3452 48.1568C10.3652 48.4776 10.369 48.4389 10.6772 48.5182C10.7401 48.5346 10.8021 48.5549 10.8613 48.5984C10.1849 48.6322 9.51141 48.6796 8.79784 48.609C8.89801 48.5104 9.00008 48.4998 9.09071 48.4728C9.20423 48.4389 9.26147 48.3713 9.26529 48.2524C9.26815 48.1577 9.2796 48.0621 9.2796 47.9674C9.2796 46.9441 9.2796 45.9208 9.27864 44.8984C9.27864 44.8511 9.27387 44.8037 9.27483 44.7554C9.27483 44.6462 9.22904 44.5766 9.12124 44.5476C9.00104 44.5148 8.88179 44.4742 8.75777 44.4066C8.80452 44.3998 8.85031 44.3901 8.89705 44.3872C9.74228 44.3322 10.5875 44.3496 11.4327 44.3872C11.6626 44.3979 11.884 44.4433 12.09 44.5467C12.568 44.7854 12.8017 45.3081 12.6672 45.8222C12.5966 46.0928 12.4277 46.2812 12.1978 46.4203C12.0709 46.4967 11.9393 46.5643 11.7905 46.6465L11.7895 46.6503ZM10.3528 46.4387C10.5951 46.4648 10.8289 46.4687 11.0597 46.4165C11.3631 46.3469 11.5672 46.1604 11.614 45.8444C11.6426 45.6512 11.6512 45.4473 11.6245 45.255C11.5911 45.0115 11.4661 44.8037 11.2353 44.6936C10.95 44.5563 10.6495 44.5621 10.3509 44.5989C10.2975 44.8279 10.2975 46.2116 10.3528 46.4397V46.4387Z" fill="white"/>
<path d="M36.4947 46.6638C37.0127 47.3103 37.3733 48.0553 38.0468 48.6013C37.96 48.6167 37.9114 48.6332 37.8617 48.6332C37.5565 48.6361 37.2502 48.6283 36.945 48.638C36.7866 48.6428 36.6874 48.5858 36.5958 48.4544C36.2219 47.9152 35.8345 47.3866 35.4587 46.8484C35.3642 46.7141 35.2574 46.6581 35.0857 46.7025C35.0742 46.7508 35.0523 46.802 35.0523 46.8532C35.0523 47.29 35.0494 47.7268 35.058 48.1626C35.0628 48.4187 35.079 48.4273 35.3327 48.496C35.4205 48.5191 35.5073 48.5452 35.6304 48.58C35.4033 48.6486 34.105 48.6641 33.4839 48.6109C33.5879 48.5675 33.6442 48.5414 33.7024 48.5191C33.917 48.4399 34.0267 48.2988 34.0258 48.0534C34.0201 47.0378 34.0258 46.0213 34.0239 45.0057C34.0239 44.6366 33.9914 44.6008 33.6432 44.479C33.607 44.4665 33.5707 44.451 33.483 44.4153C33.5765 44.3988 33.6223 44.3863 33.669 44.3834C34.5075 44.3312 35.3451 44.3476 36.1827 44.3921C36.4766 44.4075 36.7513 44.4877 36.9984 44.6617C37.5412 45.0434 37.6385 46.0135 36.9259 46.4252C36.8448 46.4725 36.757 46.5092 36.674 46.5537C36.6206 46.5827 36.5701 46.6155 36.4937 46.6619L36.4947 46.6638ZM35.0857 46.4445C35.3566 46.4551 35.6189 46.4745 35.8784 46.3923C36.052 46.3372 36.1789 46.2223 36.26 46.0599C36.4422 45.6927 36.4241 45.3265 36.2447 44.9641C36.1827 44.8385 36.0845 44.7477 35.9595 44.6926C35.68 44.5679 35.3871 44.5602 35.0962 44.5921C35.0361 44.8066 35.0275 46.142 35.0866 46.4455L35.0857 46.4445Z" fill="white"/>
<path d="M22.9912 55.2861C22.9053 55.2929 22.829 55.3055 22.7527 55.3035C21.586 55.2755 20.4183 55.2465 19.2516 55.2175C19.1734 55.2156 19.0951 55.2117 19.0169 55.2098C18.0372 55.1876 17.0584 55.1683 16.0787 55.1431C14.974 55.1141 13.8702 55.0784 12.7655 55.0465C11.7085 55.0156 10.6505 54.9856 9.59351 54.9528C8.67769 54.9238 7.76092 54.8909 6.84509 54.8571C6.6419 54.8494 6.43965 54.8281 6.2355 54.7914C6.29751 54.7866 6.35952 54.7779 6.42153 54.7759C7.04066 54.7595 7.65884 54.7441 8.27797 54.7267C9.50002 54.6919 10.7221 54.6571 11.9432 54.6204C12.8676 54.5933 13.791 54.5624 14.7154 54.5353C15.9766 54.4986 17.2377 54.4658 18.4989 54.43C19.5168 54.401 20.5357 54.3711 21.5535 54.3421C21.9533 54.3305 22.352 54.3189 22.7517 54.3092C22.8138 54.3073 22.8815 54.3005 22.9378 54.3198C22.9797 54.3343 23.0379 54.3875 23.0398 54.4252C23.0503 54.7073 23.0799 54.9934 22.9912 55.2861Z" fill="white"/>
<path d="M56.2222 55.2987V54.3276C56.3166 54.3208 56.3996 54.3083 56.4826 54.3102C57.7905 54.3411 59.0984 54.372 60.4073 54.4068C61.4328 54.4339 62.4593 54.4658 63.4848 54.4957C64.6124 54.5286 65.74 54.5624 66.8676 54.5962C67.8464 54.6252 68.8252 54.6552 69.804 54.6841C70.8219 54.7141 71.8397 54.745 72.8586 54.775C72.9044 54.7759 72.9511 54.7808 72.9979 54.8117C72.7451 54.8281 72.4932 54.8523 72.2404 54.86C70.9564 54.8996 69.6714 54.9334 68.3873 54.9721C67.4238 55.0011 66.4612 55.0349 65.4977 55.0639C64.3625 55.0977 63.2263 55.1267 62.091 55.1586C60.9634 55.1905 59.8358 55.2262 58.7082 55.2581C57.925 55.2803 57.1418 55.2997 56.3586 55.32C56.3214 55.32 56.2832 55.3084 56.2222 55.2987Z" fill="white"/>
<path d="M49.445 46.0251C49.632 46.3585 50.4534 47.2427 50.7205 47.4098C50.9142 47.2185 51.063 46.8088 51.0382 46.5508C51.0267 46.43 50.9781 46.3421 50.8665 46.288C50.8073 46.259 50.7549 46.2155 50.6871 46.1691C50.898 46.0889 51.5801 46.0773 51.9063 46.1391C51.9025 46.1536 51.9035 46.1759 51.8949 46.1797C51.6402 46.315 51.4818 46.5305 51.3625 46.7914C51.2347 47.0707 51.0849 47.3393 50.9361 47.6302C51.1441 47.8089 51.3549 47.9664 51.6087 48.0582C51.7346 48.1036 51.8567 48.0804 51.9721 48.0205C52.0685 47.9703 52.1639 47.9181 52.265 47.864C52.2307 48.4708 51.6526 48.8776 51.084 48.6969C50.9285 48.6477 50.7825 48.5655 50.6356 48.4911C50.2111 48.2766 50.3332 48.2863 49.9011 48.4757C49.7646 48.5356 49.632 48.6061 49.4908 48.6525C49.0835 48.7858 48.6723 48.7965 48.2745 48.6196C47.8882 48.4486 47.6105 48.1751 47.54 47.7306C47.4875 47.3973 47.5552 47.0977 47.7908 46.8523C47.9158 46.7218 48.0532 46.603 48.1868 46.4803C48.2554 46.4174 48.3279 46.3585 48.4138 46.2851C48.3604 46.1942 48.3155 46.1131 48.2678 46.0338C48.1438 45.829 48.0503 45.6125 48.0141 45.3729C47.9645 45.0521 48.0494 44.7767 48.2802 44.5496C48.6704 44.164 49.343 44.0916 49.8047 44.3843C49.8448 44.4095 49.8829 44.4375 49.9182 44.4684C50.2445 44.7506 50.2807 45.1738 49.9984 45.5014C49.9163 45.5961 49.8114 45.6695 49.7198 45.7555C49.6244 45.8454 49.5319 45.9391 49.4441 46.0251H49.445ZM48.5779 46.4754C48.2402 46.7247 48.1696 46.9972 48.3613 47.3383C48.618 47.7935 49.0053 48.066 49.5176 48.1442C49.6683 48.1674 49.8276 48.1887 49.9736 48.1027C49.8858 47.9181 49.1388 47.0475 48.5779 46.4754ZM49.591 45.311C49.5662 44.9883 49.4241 44.7322 49.1302 44.5931C49.0234 44.5428 48.8879 44.5351 48.7668 44.5409C48.6294 44.5467 48.5922 44.6066 48.5931 44.7428C48.5931 44.7825 48.597 44.8221 48.6046 44.8607C48.6714 45.2009 48.8536 45.4734 49.0949 45.7091C49.1884 45.8009 49.2848 45.8009 49.3926 45.7207C49.5271 45.6202 49.6015 45.4869 49.591 45.3101V45.311Z" fill="white"/>
<path d="M29.4001 44.2752C29.6319 44.3061 29.8694 44.3157 30.0946 44.3727C30.9722 44.5931 31.5131 45.1622 31.6715 46.0618C31.8318 46.9711 31.5646 47.7519 30.8224 48.3095C29.8837 49.0139 28.4184 48.8718 27.6571 48.0379C27.3834 47.7374 27.2164 47.3847 27.1372 46.9895C26.9913 46.2638 27.1258 45.599 27.6114 45.0337C28.012 44.5679 28.5319 44.336 29.1387 44.3032C29.2245 44.2983 29.3104 44.3032 29.3972 44.3032L29.4001 44.2771V44.2752ZM30.5401 46.5189C30.5401 46.3527 30.5496 46.1855 30.5382 46.0193C30.5134 45.6695 30.4571 45.3255 30.2796 45.0153C29.8961 44.3428 29.0252 44.307 28.5835 44.9429C28.4547 45.1284 28.3831 45.3371 28.3335 45.5545C28.2066 46.1102 28.1971 46.6696 28.2925 47.2311C28.345 47.5374 28.4213 47.836 28.5997 48.0969C28.9755 48.6467 29.8122 48.6612 30.1842 48.1094C30.3006 47.9365 30.3808 47.7316 30.4466 47.5306C30.5525 47.203 30.5544 46.86 30.5401 46.5179V46.5189Z" fill="white"/>
<path d="M50.3322 56.552C50.378 56.2582 50.4162 56.0263 50.4505 55.7925C50.4811 55.5809 50.5021 55.3673 50.5393 55.1567C50.5631 55.0223 50.5145 54.9344 50.42 54.8455C50.1558 54.5972 49.9001 54.3401 49.6425 54.085C49.6044 54.0473 49.5738 54.0039 49.5223 53.942C49.7398 53.8551 49.9526 53.8647 50.1558 53.8261C50.379 53.7836 50.6032 53.7497 50.8274 53.712C50.9523 53.6908 51.042 53.626 51.0973 53.5082C51.2023 53.2869 51.3082 53.0646 51.4179 52.8462C51.4951 52.6936 51.5476 52.5235 51.684 52.4095C51.789 52.422 51.809 52.509 51.8414 52.5757C51.9845 52.8665 52.1315 53.1564 52.2564 53.456C52.3232 53.6144 52.4215 53.6908 52.5836 53.7149C52.9089 53.7633 53.2333 53.8174 53.5586 53.8715C53.6492 53.8869 53.7399 53.9092 53.8686 53.9372C53.8 54.0213 53.758 54.0841 53.7046 54.1372C53.4918 54.3488 53.282 54.5634 53.0606 54.7634C52.9051 54.9045 52.8431 55.0678 52.8717 55.2717C52.9099 55.5461 52.949 55.8205 52.9891 56.0949C53.0072 56.2196 53.0291 56.3433 53.0549 56.4989C52.9748 56.4786 52.9147 56.4747 52.8641 56.4496C52.6323 56.3336 52.4052 56.208 52.1744 56.092C51.6401 55.8234 51.7613 55.8311 51.2462 56.0785C51.0344 56.1809 50.8321 56.3027 50.6242 56.4138C50.5498 56.4534 50.4715 56.4863 50.3351 56.5501L50.3322 56.552Z" fill="white"/>
<path d="M41.7923 53.9333C41.7064 54.0348 41.6559 54.1024 41.5967 54.1623C41.3754 54.3865 41.1531 54.6107 40.9261 54.8291C40.8154 54.9354 40.7563 55.0552 40.7782 55.2088C40.8183 55.4987 40.8593 55.7886 40.9022 56.0785C40.9204 56.2012 40.9452 56.3239 40.9719 56.4737C40.8908 56.4621 40.8355 56.467 40.7925 56.4467C40.6008 56.3568 40.4119 56.2602 40.223 56.1655C40.0761 56.092 39.9273 56.0196 39.7823 55.9413C39.6602 55.8756 39.5447 55.8814 39.4245 55.9452C39.1412 56.0969 38.8559 56.2466 38.5707 56.3955C38.4963 56.4351 38.419 56.4699 38.3284 56.5133C38.2731 56.3684 38.3026 56.2447 38.3208 56.1239C38.3656 55.8263 38.4085 55.5277 38.4686 55.233C38.4972 55.091 38.4639 54.9914 38.3637 54.8938C38.109 54.6465 37.8609 54.3933 37.611 54.142C37.5566 54.087 37.5051 54.03 37.4355 53.9555C37.6463 53.8686 37.8495 53.8647 38.0451 53.827C38.2759 53.7836 38.5077 53.7459 38.7405 53.713C38.8855 53.6918 38.9761 53.6212 39.0372 53.4811C39.1631 53.1912 39.3034 52.9071 39.4436 52.623C39.4837 52.5419 39.5151 52.4462 39.6363 52.393C39.6821 52.4655 39.7327 52.5332 39.7689 52.6076C39.9015 52.8772 40.0427 53.1439 40.1543 53.4222C40.2287 53.6077 40.3461 53.6946 40.533 53.7207C40.8507 53.7652 41.1674 53.8193 41.4842 53.8705C41.5681 53.884 41.6511 53.9034 41.7913 53.9314L41.7923 53.9333Z" fill="white"/>
<path d="M25.3323 53.9304C25.7797 53.858 26.1728 53.7836 26.5677 53.7352C26.789 53.7082 26.9188 53.6144 26.997 53.4019C27.0848 53.1651 27.1983 52.9371 27.3109 52.711C27.3652 52.6018 27.4454 52.5051 27.536 52.3689C27.6018 52.479 27.6495 52.5486 27.6867 52.623C27.8279 52.9061 27.9729 53.1883 28.0998 53.4772C28.1695 53.6347 28.2753 53.7014 28.4375 53.7246C28.8096 53.7778 29.1797 53.8435 29.5508 53.9053C29.5957 53.913 29.6386 53.9275 29.7139 53.9459C29.6538 54.0155 29.6138 54.0686 29.5661 54.115C29.3352 54.3401 29.1044 54.5672 28.8678 54.7875C28.7228 54.9228 28.6627 55.0823 28.6922 55.2775C28.7333 55.5432 28.7733 55.8099 28.8163 56.0756C28.8372 56.207 28.863 56.3365 28.8935 56.5027C28.8039 56.4805 28.7428 56.4766 28.6922 56.4505C28.4824 56.3442 28.2773 56.2273 28.0674 56.121C27.4502 55.8089 27.5417 55.8514 27.0046 56.1104C26.8139 56.2022 26.6326 56.3143 26.4456 56.4148C26.3779 56.4515 26.3073 56.4824 26.2195 56.5249C26.1833 56.3916 26.2081 56.2756 26.2243 56.1635C26.2682 55.8572 26.3111 55.5509 26.375 55.2485C26.4094 55.0871 26.3703 54.9789 26.2558 54.8697C26.0049 54.63 25.7635 54.3807 25.5193 54.1343C25.4649 54.0802 25.4153 54.0213 25.3285 53.9275L25.3323 53.9304Z" fill="white"/>
<path d="M34.8903 56.5443C34.7214 56.4563 34.5907 56.3877 34.46 56.3191C34.2234 56.1954 33.9859 56.0737 33.7522 55.9452C33.6386 55.8833 33.5289 55.8804 33.4164 55.9384C33.1578 56.0708 32.9003 56.2061 32.6417 56.3365C32.5368 56.3897 32.429 56.436 32.3202 56.4824C32.3021 56.4902 32.2764 56.4795 32.2306 56.4757C32.2401 56.38 32.2458 56.2872 32.2592 56.1954C32.3069 55.8901 32.3546 55.5847 32.408 55.2803C32.4357 55.119 32.3985 54.9847 32.283 54.8687C32.077 54.6619 31.8728 54.4542 31.6706 54.2435C31.5847 54.1546 31.5046 54.0599 31.4092 53.9536C31.6124 53.8444 31.8118 53.8628 31.9997 53.828C32.2077 53.7893 32.4166 53.7594 32.6255 53.7285C32.8125 53.7014 32.9346 53.598 33.0138 53.426C33.1397 53.1535 33.2761 52.8849 33.4097 52.6153C33.4507 52.5322 33.5003 52.453 33.549 52.365C33.653 52.4172 33.6739 52.5061 33.7102 52.5805C33.8476 52.8569 33.9849 53.1332 34.1156 53.4125C34.2072 53.6077 34.3408 53.7198 34.5621 53.742C34.8731 53.7729 35.1822 53.827 35.4922 53.8724C35.5666 53.8831 35.641 53.8995 35.7546 53.9208C35.6782 54.0097 35.6306 54.0696 35.5781 54.1237C35.3453 54.3595 35.1211 54.6049 34.874 54.8243C34.7109 54.9702 34.6794 55.119 34.7243 55.3258C34.7949 55.6504 34.8368 55.9819 34.8874 56.3104C34.8969 56.3703 34.8884 56.4341 34.8884 56.5443H34.8903Z" fill="white"/>
<path d="M45.6616 52.3389C45.7217 52.4472 45.7618 52.5129 45.7961 52.5824C45.9459 52.8878 46.1004 53.1912 46.2407 53.5014C46.2998 53.6328 46.3876 53.6966 46.5221 53.7169C46.855 53.7671 47.188 53.8193 47.5209 53.8724C47.6135 53.8869 47.7041 53.9092 47.8252 53.9333C47.7747 54 47.7432 54.0512 47.7022 54.0928C47.4522 54.345 47.209 54.6039 46.9466 54.8426C46.8054 54.9711 46.774 55.1045 46.8092 55.2842C46.8713 55.6031 46.919 55.9249 46.9705 56.2466C46.9829 56.322 46.9867 56.3993 46.9991 56.5143C46.8942 56.4737 46.8207 56.4534 46.7539 56.4196C46.4744 56.2766 46.192 56.1375 45.9192 55.9828C45.7522 55.8882 45.5948 55.8824 45.4288 55.9693C45.1856 56.0969 44.9433 56.2264 44.7 56.3539C44.5912 56.4119 44.4815 56.4689 44.3642 56.5307C44.2946 56.4138 44.326 56.3124 44.3413 56.2148C44.39 55.9094 44.4338 55.6021 44.5006 55.3006C44.5435 55.1093 44.5092 54.9721 44.3623 54.8387C44.1238 54.6213 43.9025 54.3846 43.6773 54.1536C43.6287 54.1034 43.5896 54.0435 43.5419 53.9816C43.5991 53.8908 43.6888 53.8898 43.768 53.8763C44.0847 53.8251 44.4024 53.771 44.721 53.7323C44.9032 53.7111 45.0148 53.6357 45.0911 53.4589C45.219 53.1613 45.3735 52.8752 45.5195 52.5853C45.5548 52.5158 45.5987 52.451 45.6645 52.3389H45.6616Z" fill="white"/>
<path d="M15.3574 44.423C15.7294 44.3486 18.6095 44.3312 18.8928 44.4017C18.9281 44.7699 18.9281 45.1429 18.8327 45.5304C18.7898 45.4415 18.7402 45.3545 18.7039 45.2627C18.5475 44.8559 18.2422 44.6636 17.8253 44.6163C17.5448 44.5844 17.2663 44.5747 16.9915 44.6037C16.9238 44.795 16.9143 46.0474 16.9734 46.3343C17.3216 46.3749 17.5716 46.2435 17.7089 45.9275C17.7805 45.7633 17.8301 45.5884 17.895 45.4067C18.018 45.7372 18.0257 47.0272 17.9055 47.5326C17.8721 47.4456 17.8473 47.3818 17.8225 47.318C17.7748 47.2011 17.7328 47.0813 17.6774 46.9673C17.5353 46.6706 17.2758 46.5991 16.9696 46.5943C16.9591 46.661 16.9429 46.7151 16.9429 46.7682C16.9429 47.2204 16.9429 47.6727 16.9505 48.1249C16.9543 48.3423 16.9839 48.3626 17.1938 48.3935C17.5239 48.4428 17.8482 48.4322 18.1716 48.3423C18.4979 48.2515 18.7459 48.0602 18.9129 47.7616C18.9892 47.6253 19.0655 47.4891 19.1418 47.3528C19.179 47.7761 19.1132 48.1819 19.0378 48.6071C18.9634 48.6167 18.8966 48.6322 18.8299 48.6322C17.7251 48.6341 16.6204 48.6341 15.5167 48.6341C15.4661 48.6341 15.4156 48.6206 15.365 48.5723C15.4117 48.5665 15.4594 48.5491 15.5033 48.5568C15.6235 48.5781 15.697 48.5191 15.758 48.4273C15.8296 48.3201 15.8744 48.2051 15.8744 48.0718C15.8706 46.9924 15.8697 45.914 15.863 44.8346C15.862 44.6085 15.8496 44.6037 15.6436 44.5283C15.5577 44.4964 15.4718 44.4646 15.3602 44.423H15.3574Z" fill="white"/>
<path d="M60.9606 44.4365C61.7667 44.3438 62.5728 44.3312 63.377 44.3998C63.6451 44.423 63.896 44.5148 64.1163 44.681C64.6286 45.0685 64.6782 45.8096 64.2232 46.2648C63.9513 46.5363 63.6107 46.6368 63.2444 46.6716C63.1194 46.6832 62.9935 46.6793 62.8685 46.689C62.7598 46.6967 62.652 46.7122 62.5508 46.7238C62.5337 46.7595 62.5165 46.7798 62.5155 46.802C62.4945 47.2688 62.4602 47.7355 62.5127 48.2032C62.5289 48.3491 62.5995 48.437 62.7273 48.4853C62.8141 48.5182 62.9048 48.5433 63.0021 48.5742C62.8218 48.6535 61.5387 48.6738 60.9214 48.6061C61.0283 48.5675 61.0979 48.5414 61.1685 48.5172C61.4337 48.4235 61.4767 48.3665 61.4852 48.0891C61.4871 48.0341 61.4881 47.978 61.4881 47.9229C61.4862 46.9315 61.4833 45.9401 61.4814 44.9487C61.4814 44.9245 61.4814 44.9013 61.4805 44.8772C61.4754 44.6974 61.3908 44.5805 61.2267 44.5264C61.138 44.4974 61.0502 44.4665 60.9615 44.4365H60.9606ZM62.5442 44.5902C62.4764 44.8839 62.4831 46.2648 62.5547 46.4687C62.6644 46.4571 62.7807 46.4493 62.8943 46.43C63.1289 46.3913 63.294 46.2609 63.3818 46.0338C63.5201 45.6763 63.5086 45.3188 63.356 44.9719C63.314 44.8772 63.2263 44.7892 63.1366 44.7351C62.961 44.6279 62.7617 44.5882 62.5432 44.5902H62.5442Z" fill="white"/>
<path d="M21.7081 48.7511C21.6976 48.208 21.6766 47.7104 21.7252 47.2137C21.7424 47.2117 21.7605 47.2088 21.7777 47.2069C21.8082 47.2688 21.8368 47.3306 21.8683 47.3915C21.9666 47.5809 22.0467 47.7838 22.1688 47.9548C22.4359 48.3278 22.7975 48.5452 23.2669 48.5356C23.4939 48.5307 23.6952 48.4467 23.8564 48.2805C24.0463 48.0843 24.0825 47.8398 23.9394 47.607C23.8793 47.5084 23.7973 47.4118 23.7028 47.349C23.4882 47.205 23.2602 47.0803 23.036 46.9518C22.8109 46.8233 22.5762 46.7112 22.3587 46.5721C22.1249 46.4232 21.9217 46.2358 21.8054 45.972C21.4906 45.2598 21.9275 44.4472 22.6973 44.2993C23.0141 44.2384 23.3203 44.2761 23.6227 44.3737C23.7419 44.4124 23.8602 44.453 23.9795 44.4926C24.1302 44.5419 24.258 44.5283 24.3353 44.365C24.3449 44.3438 24.3592 44.3244 24.4002 44.2568C24.4965 44.7554 24.4717 45.196 24.425 45.6463C24.3916 45.5874 24.3582 45.5294 24.3258 45.4705C24.2447 45.3255 24.1722 45.1757 24.0816 45.0376C23.9003 44.7622 23.6446 44.5873 23.327 44.51C23.0875 44.452 22.8586 44.4868 22.6506 44.6211C22.3568 44.8124 22.3062 45.1555 22.5437 45.4144C22.643 45.5226 22.766 45.6164 22.8939 45.6889C23.1877 45.8551 23.4939 45.9981 23.7877 46.1643C23.9709 46.2686 24.155 46.3807 24.3143 46.5189C24.8972 47.0204 24.8991 47.834 24.3286 48.351C23.9079 48.7317 23.4138 48.8071 22.8795 48.6989C22.726 48.668 22.5733 48.6293 22.4264 48.5752C22.2079 48.495 22.0133 48.5047 21.8378 48.6718C21.8159 48.6931 21.7853 48.7037 21.7071 48.7511H21.7081Z" fill="white"/>
<path d="M58.485 45.6512C58.3839 45.4579 58.3066 45.3033 58.2236 45.1516C58.0691 44.8694 57.842 44.6733 57.5434 44.5583C57.3145 44.4703 57.0846 44.4588 56.8547 44.5457C56.4387 44.7023 56.3395 45.1806 56.6639 45.485C56.766 45.5806 56.89 45.657 57.013 45.7236C57.2677 45.8628 57.5349 45.9807 57.7867 46.1256C58.0033 46.2512 58.2246 46.3798 58.4097 46.5469C59.1423 47.2079 58.797 48.2689 58.0309 48.6022C57.6322 48.7752 57.2229 48.7723 56.8098 48.6709C56.7116 48.6467 56.6105 48.6206 56.5198 48.5762C56.3052 48.4737 56.1106 48.5027 55.9226 48.6399C55.8921 48.6622 55.8559 48.6786 55.8215 48.6969C55.7337 48.5288 55.729 47.6215 55.8148 47.1953C55.853 47.2523 55.8854 47.2919 55.9083 47.3354C55.998 47.5113 56.0734 47.6968 56.1754 47.865C56.4426 48.3017 56.8318 48.5443 57.346 48.5288C57.4948 48.524 57.657 48.4689 57.7867 48.3916C58.1445 48.1771 58.1845 47.6997 57.8726 47.4205C57.7447 47.3064 57.5931 47.2166 57.4433 47.1315C57.2248 47.0079 56.9968 46.9016 56.7745 46.7837C56.5303 46.6542 56.2976 46.5083 56.1087 46.3015C55.79 45.9527 55.6632 45.5526 55.8435 45.0975C56.0257 44.6366 56.3557 44.3525 56.8594 44.2887C57.139 44.2529 57.4051 44.2887 57.6703 44.3708C57.7676 44.4008 57.8688 44.4249 57.9594 44.4684C58.1492 44.5583 58.3057 44.5399 58.4316 44.3592C58.4383 44.3496 58.4593 44.3496 58.4726 44.3457C58.5299 44.5254 58.5442 45.3275 58.4869 45.6512H58.485Z" fill="white"/>
<path d="M41.3362 44.5969C41.0528 44.567 40.8067 44.594 40.5672 44.6752C40.4108 44.7283 40.3049 44.8453 40.2248 44.9863C40.1437 45.1294 40.0683 45.2743 39.9844 45.4299C39.9042 45.1748 39.8899 44.6423 39.9567 44.4017C40.0101 44.394 40.0702 44.3795 40.1313 44.3785C41.2827 44.3708 42.4351 44.365 43.5866 44.3583C43.6181 44.3583 43.6496 44.3602 43.681 44.3602C43.7736 44.3611 43.828 44.4037 43.8318 44.5022C43.8442 44.8095 43.8413 45.1168 43.7745 45.4579C43.7297 45.3951 43.702 45.3622 43.681 45.3265C43.661 45.2927 43.6477 45.255 43.6305 45.2192C43.3691 44.6694 43.0466 44.5032 42.4113 44.6076C42.4046 44.6771 42.3903 44.7535 42.3903 44.8288C42.3884 45.884 42.3884 46.9402 42.3874 47.9954C42.3874 48.0196 42.3874 48.0428 42.3894 48.0669C42.4008 48.3578 42.4638 48.4389 42.7395 48.5249C42.7977 48.5423 42.8549 48.5607 42.9112 48.5964C42.2148 48.6573 41.5203 48.6312 40.8181 48.5858C40.8887 48.5617 40.9593 48.5375 41.029 48.5124C41.2617 48.4283 41.3419 48.3259 41.3457 48.0717C41.3524 47.5876 41.3533 47.1035 41.3543 46.6194C41.3543 46.0483 41.3543 45.4763 41.3514 44.9052C41.3514 44.8114 41.3428 44.7177 41.3371 44.595L41.3362 44.5969Z" fill="white"/>
<path d="M68.2719 44.3196C68.3339 44.4404 68.3959 44.5506 68.4474 44.6646C68.8949 45.6608 69.3432 46.6561 69.784 47.6553C69.9423 48.0128 70.1093 48.3587 70.4518 48.5887C70.2352 48.6506 68.996 48.6631 68.5056 48.608C68.6316 48.494 68.7966 48.5259 68.9359 48.4273C68.9254 48.3616 68.9235 48.2834 68.8996 48.2128C68.8281 48.0031 68.7489 47.7964 68.6716 47.5886C68.6392 47.5007 68.5877 47.4408 68.4846 47.4379C68.0706 47.4253 67.6585 47.3663 67.2426 47.4282C67.1023 47.4485 67.0012 47.4997 66.9545 47.6301C66.8934 47.8002 66.8228 47.9713 66.7971 48.1471C66.7656 48.3578 66.8343 48.4293 67.0336 48.4931C67.1071 48.5162 67.1787 48.5443 67.2512 48.5713C67.255 48.5723 67.254 48.5849 67.2559 48.5916C67.0899 48.6467 66.4212 48.6612 65.9509 48.6148C66.0053 48.5617 66.0415 48.5182 66.0854 48.4863C66.3153 48.322 66.4784 48.1085 66.5958 47.8485C67.0976 46.7383 67.607 45.6309 68.1155 44.5245C68.1488 44.452 68.1641 44.3583 68.2719 44.3206V44.3196ZM67.8064 45.7787C67.587 46.2377 67.3542 46.6754 67.2197 47.1885C67.6423 47.2001 68.0325 47.2243 68.4265 47.176C68.3673 46.8813 67.9571 45.9527 67.8064 45.7787Z" fill="white"/>
<path d="M86.426 4.58437C86.4308 4.65588 86.4441 4.70903 86.4374 4.75927C86.2028 6.50248 85.8298 8.20993 85.1515 9.83911C84.4379 11.5543 83.3752 13.0028 81.9738 14.2039C80.8872 15.1354 79.7014 15.921 78.4908 16.6709C77.9566 17.0023 77.4147 17.3221 76.8757 17.6449C76.8108 17.6835 76.7412 17.7145 76.642 17.7647C76.6544 17.6758 76.6563 17.6227 76.6687 17.5724C77.0293 16.1259 77.4099 14.6851 77.8917 13.2743C78.3286 11.9949 78.8657 10.7648 79.6308 9.64585C80.3844 8.54427 81.3232 7.63015 82.3897 6.84455C83.5869 5.96328 84.8901 5.27141 86.2333 4.65298C86.2886 4.62786 86.3478 4.61143 86.4241 4.58341L86.426 4.58437Z" fill="white"/>
</svg>
