<svg width="118" height="27" viewBox="0 0 118 27" fill="none" xmlns="http://www.w3.org/2000/svg">
<path fill-rule="evenodd" clip-rule="evenodd" d="M14.4998 0.597243C11.857 0.310823 9.19272 0.873599 6.87334 2.20821C4.55395 3.54283 2.69328 5.58377 1.54707 8.0505C0.400853 10.5172 0.0253693 13.2887 0.472227 15.9839C0.919084 18.6791 2.16635 21.1657 4.04257 23.102C5.9188 25.0383 8.33189 26.3292 10.9502 26.7973C13.5684 27.2654 16.2633 26.8876 18.6645 25.716C21.0656 24.5444 23.0551 22.6364 24.3595 20.2543C25.6639 17.8721 26.2191 15.1328 25.9489 12.4129C25.6515 9.38948 24.3507 6.56384 22.2653 4.41173C20.18 2.25963 17.4376 0.91252 14.4998 0.597243ZM14.083 20.7621C12.6616 20.9582 11.2162 20.6913 9.94983 19.9986C8.68352 19.306 7.65999 18.2225 7.02309 16.9005C6.3862 15.5785 6.16796 14.0844 6.39904 12.6281C6.63013 11.1719 7.29893 9.8268 8.31144 8.78183C9.32395 7.73687 10.6293 7.04458 12.044 6.80228C13.4586 6.55997 14.9116 6.77983 16.1985 7.43095C17.4855 8.08207 18.5418 9.13171 19.219 10.4324C19.8961 11.733 20.1602 13.2193 19.9739 14.6823C19.7785 16.2211 19.0954 17.6508 18.0305 18.7498C16.9655 19.8489 15.5781 20.5562 14.083 20.7621ZM32.8289 1.1208C32.3828 1.1219 31.9425 1.22531 31.5401 1.42352C31.1377 1.62172 30.7833 1.90973 30.5027 2.26659C30.2221 2.62345 30.0223 3.04018 29.918 3.48645C29.8137 3.93272 29.8073 4.39732 29.8995 4.84643C30.1817 6.30139 31.5026 7.29552 32.9416 7.29552H41.2922L28.2968 24.989C28.2007 25.1196 28.1418 25.2752 28.1268 25.4383C28.1119 25.6014 28.1413 25.7656 28.2119 25.9124C28.2826 26.0593 28.3915 26.183 28.5267 26.2696C28.6618 26.3563 28.8177 26.4026 28.9769 26.4032H49.3615C50.7994 26.4032 52.1213 25.4093 52.4036 23.9541C52.4957 23.5051 52.4895 23.0406 52.3852 22.5943C52.281 22.1481 52.0813 21.7314 51.8009 21.3745C51.5204 21.0176 51.1662 20.7296 50.7639 20.5312C50.3616 20.3329 49.9214 20.2293 49.4754 20.228H39.3008L52.2863 2.54827C52.3833 2.41638 52.4427 2.25928 52.4578 2.09459C52.4729 1.92989 52.4431 1.76413 52.3718 1.61589C52.3004 1.46765 52.1903 1.3428 52.0538 1.25535C51.9173 1.1679 51.7599 1.12131 51.5991 1.1208H32.8289ZM114.284 1.19202C113.609 1.35713 113.009 1.75425 112.584 2.31772C112.158 2.88119 111.932 3.57728 111.943 4.29088V14.5716L95.7511 1.31498C95.6241 1.21128 95.4712 1.14657 95.3101 1.12828C95.1489 1.11 94.9861 1.13889 94.8402 1.21162C94.6943 1.28436 94.5713 1.39799 94.4854 1.53945C94.3995 1.6809 94.3542 1.84443 94.3546 2.01122V23.2386C94.3436 23.9523 94.5697 24.6484 94.9954 25.2118C95.4211 25.7753 96.0211 26.1724 96.696 26.3375C97.1342 26.4367 97.5885 26.4334 98.0253 26.3279C98.4622 26.2224 98.8704 26.0173 99.22 25.7278C99.5695 25.4383 99.8514 25.0718 100.045 24.6552C100.238 24.2387 100.338 23.7828 100.338 23.3211V12.9514L116.53 26.2083C116.657 26.3119 116.81 26.3766 116.971 26.3949C117.132 26.4131 117.295 26.3843 117.44 26.3116C117.586 26.2388 117.709 26.1253 117.795 25.9839C117.881 25.8425 117.926 25.679 117.926 25.5123V4.20741C117.926 3.74586 117.826 3.29009 117.633 2.8737C117.439 2.4573 117.157 2.09091 116.808 1.80152C116.458 1.51214 116.05 1.30714 115.613 1.20166C115.176 1.09617 114.722 1.09288 114.284 1.19202ZM72.1252 6.70449C78.9739 6.70449 84.0912 10.4281 84.0912 13.7589C84.0912 17.0897 78.9739 20.8133 72.1252 20.8133C65.2765 20.8133 60.1593 17.0897 60.1593 13.7589C60.1593 10.4281 65.2765 6.70449 72.1252 6.70449ZM72.1252 0.530018C62.2121 0.530018 54.1761 6.45283 54.1761 13.7589C54.1761 21.0649 62.2121 26.9878 72.1252 26.9878C82.0384 26.9878 90.0741 21.0649 90.0741 13.7589C90.0741 6.45283 82.0381 0.530018 72.1252 0.530018Z" fill="white"/>
</svg>
