<svg width="191" height="22" viewBox="0 0 191 22" fill="none" xmlns="http://www.w3.org/2000/svg">
<path d="M139.543 6.5874V6.32721C139.57 5.63283 139.455 4.9401 139.206 4.28766C138.999 3.70997 138.679 3.17575 138.262 2.71393C137.719 2.08534 137.042 1.57554 136.276 1.21871C135.511 0.861877 134.675 0.666267 133.824 0.644999C133.489 0.627323 133.153 0.637148 132.819 0.674372C132.346 0.769218 131.883 0.901156 131.433 1.06885C130.757 1.32829 130.141 1.71497 129.623 2.20614C129.366 2.41109 129.133 2.64182 128.928 2.89438C128.65 3.27599 128.417 3.68548 128.233 4.11559C128.038 4.56813 127.909 5.0439 127.848 5.52986C127.797 5.93924 127.784 6.35207 127.809 6.76365C127.842 7.37718 127.99 7.97994 128.246 8.54302C128.625 9.47981 129.291 10.2844 130.156 10.8512C130.571 11.1129 131 11.3525 131.442 11.5688C131.697 11.6753 131.964 11.7528 132.237 11.7996C132.491 11.8228 132.743 11.8663 132.989 11.9297C133.158 11.9836 133.333 12.0161 133.51 12.0262C133.995 12.0284 134.479 11.9691 134.948 11.8499C135.325 11.7973 135.691 11.6868 136.032 11.5226C136.49 11.2955 136.928 11.0345 137.344 10.742C137.822 10.3869 138.24 9.9621 138.581 9.48307C138.812 9.14617 139 8.7841 139.141 8.40453C139.416 7.83563 139.553 7.21446 139.543 6.5874Z" fill="white"/>
<path fill-rule="evenodd" clip-rule="evenodd" d="M119.946 5.67261C120.213 6.27112 120.471 6.85077 120.726 7.43941C120.861 7.74523 120.993 8.05416 121.125 8.36242L121.125 8.36303L121.126 8.36497L121.127 8.36679C121.212 8.56467 121.296 8.76227 121.382 8.95859L121.858 10.0413C121.991 10.3442 122.123 10.6498 122.255 10.9558C122.357 11.1925 122.459 11.4293 122.562 11.6654C122.651 11.8735 122.743 12.0816 122.836 12.2906L122.836 12.2908L122.836 12.2911L122.837 12.2915C122.903 12.4404 122.969 12.5897 123.034 12.7397C123.063 12.8068 123.092 12.8739 123.12 12.9411L123.19 13.1046C123.37 13.5257 123.551 13.9481 123.734 14.368C123.874 14.6954 124.018 15.0185 124.171 15.3458C124.362 15.7916 124.548 16.2352 124.735 16.6798L124.738 16.6878C124.807 16.8516 124.876 17.0155 124.945 17.1798C124.979 17.2577 125.013 17.336 125.047 17.4144L125.047 17.4157L125.048 17.4165C125.13 17.6077 125.214 17.7997 125.303 17.9897C125.403 18.2078 125.504 18.426 125.605 18.6441L125.605 18.6443C125.757 18.9717 125.908 19.299 126.055 19.6264C126.256 20.0754 126.453 20.5245 126.637 20.9819C126.674 21.0967 126.699 21.2148 126.711 21.3344H123.471C123.357 21.352 123.24 21.3288 123.143 21.2693C123.045 21.2097 122.974 21.1179 122.942 21.0113C122.858 20.7979 122.769 20.5921 122.68 20.3878L122.68 20.3875L122.68 20.3872C122.595 20.1899 122.51 19.9941 122.431 19.7942C122.349 19.5887 122.269 19.3768 122.187 19.1632L122.187 19.1622L122.187 19.1611L122.186 19.1598L122.186 19.1587C122.107 18.9509 122.027 18.7415 121.946 18.5353C121.9 18.4168 121.85 18.3034 121.796 18.1814C121.751 18.0787 121.703 17.9698 121.653 17.847H114.832C114.395 17.847 114.395 17.847 114.233 18.2667L113.079 21.133C113.064 21.1988 113.024 21.2572 112.968 21.2979C112.912 21.3387 112.843 21.359 112.773 21.3554H109.546C109.512 21.348 109.479 21.3382 109.446 21.326C109.469 21.1836 109.504 21.0433 109.551 20.9063C109.671 20.6316 109.798 20.3589 109.924 20.0863L109.925 20.0859C110.051 19.8131 110.178 19.5403 110.298 19.2655C110.539 18.7157 110.736 18.2205 110.937 17.7001C110.991 17.565 111.052 17.4313 111.113 17.2982C111.154 17.2082 111.195 17.1184 111.234 17.0287C111.283 16.91 111.333 16.7911 111.382 16.672C111.515 16.3491 111.649 16.0257 111.789 15.7067C111.923 15.4067 112.06 15.1099 112.198 14.813C112.336 14.5161 112.473 14.2191 112.607 13.919C112.8 13.4803 112.987 13.0399 113.175 12.5989L113.175 12.5986L113.175 12.5982L113.175 12.5977C113.286 12.3389 113.396 12.0798 113.507 11.8207L113.945 10.7757C114.028 10.5797 114.11 10.3837 114.193 10.1877C114.358 9.79615 114.523 9.40464 114.692 9.01314C114.767 8.84318 114.844 8.67531 114.922 8.50745C114.999 8.33959 115.077 8.17172 115.151 8.00176C115.387 7.46459 115.619 6.92323 115.851 6.38187C115.969 6.10909 116.078 5.83631 116.188 5.54254C116.204 5.48159 116.242 5.42777 116.294 5.38972C116.346 5.35167 116.41 5.3316 116.476 5.33271L119.799 5.3411C119.837 5.42664 119.875 5.51171 119.912 5.59637L119.946 5.67261ZM120.44 14.8505L120.439 14.8486C120.315 14.5526 120.201 14.2791 120.1 14.0029C119.983 13.7048 119.866 13.4074 119.749 13.1103L119.749 13.1092L119.748 13.107L119.746 13.1025C119.56 12.6284 119.374 12.1553 119.187 11.6822C119.071 11.3897 118.958 11.0991 118.846 10.8098L118.845 10.8088C118.661 10.3346 118.479 9.86401 118.286 9.39503C118.278 9.37479 118.271 9.35108 118.263 9.32618L118.263 9.3259C118.23 9.21665 118.19 9.08469 118.037 9.12226C117.97 9.12226 117.918 9.20401 117.867 9.28336C117.845 9.31768 117.823 9.35165 117.801 9.37825V9.44959C117.569 10.0413 117.333 10.633 117.097 11.2248C117.023 11.411 116.945 11.5963 116.868 11.7815L116.867 11.7829L116.867 11.7831C116.79 11.9688 116.712 12.1544 116.638 12.3411C116.578 12.4898 116.527 12.6308 116.472 12.7799L116.472 12.7809L116.472 12.7814L116.472 12.7818C116.446 12.8509 116.421 12.9216 116.393 12.9957C116.322 13.174 116.25 13.3515 116.177 13.5292L116.177 13.5305C116.092 13.7372 116.007 13.9444 115.925 14.154C115.818 14.4246 115.718 14.7021 115.612 14.996L115.58 15.0856H120.538C120.53 15.0659 120.521 15.0462 120.513 15.0267C120.49 14.972 120.468 14.9182 120.446 14.8651L120.44 14.8505Z" fill="white"/>
<path fill-rule="evenodd" clip-rule="evenodd" d="M89.6261 21.242C89.6288 21.2657 89.6317 21.2923 89.6317 21.3217L106.399 21.3091C106.387 21.2224 106.368 21.1367 106.342 21.0531C106.269 20.8789 106.195 20.7084 106.12 20.5379L106.12 20.5375L106.12 20.5373L106.12 20.537L106.12 20.5365L106.12 20.5363C106.018 20.3049 105.917 20.0732 105.821 19.8319C105.741 19.6305 105.662 19.4284 105.584 19.2265L105.584 19.226C105.464 18.9148 105.344 18.6038 105.214 18.296C105.126 18.0863 105.03 17.8767 104.934 17.6671L104.934 17.6664C104.838 17.4566 104.741 17.2468 104.654 17.037C104.391 16.3949 104.142 15.763 103.887 15.1174L103.886 15.114L103.885 15.113L103.885 15.1121C103.814 14.9324 103.743 14.7517 103.67 14.5694C103.479 14.0699 103.272 13.5744 103.065 13.0788L103.065 13.078C102.975 12.8618 102.885 12.6457 102.796 12.4291C102.701 12.1966 102.607 11.9641 102.514 11.732L102.512 11.7287L102.511 11.7242L102.51 11.7215L102.509 11.7209L102.509 11.7205L102.509 11.7199C102.398 11.445 102.288 11.1705 102.175 10.8973C102.122 10.7646 102.065 10.6341 102.009 10.5042L102.009 10.5036L102.008 10.5031C101.958 10.3869 101.908 10.2712 101.86 10.1545C101.728 9.83003 101.599 9.50209 101.47 9.17371L101.469 9.17248L101.469 9.17099C101.351 8.87175 101.233 8.57215 101.113 8.27445C101.004 8.00672 100.888 7.73312 100.774 7.46492L100.774 7.46439C100.695 7.27875 100.618 7.09569 100.544 6.91895C100.494 6.79742 100.443 6.6749 100.391 6.55222C100.259 6.23855 100.127 5.92387 100.011 5.62219C99.9783 5.52926 99.9127 5.45024 99.8257 5.39888C99.7386 5.34751 99.6356 5.32704 99.5344 5.34102H96.3734C96.3395 5.40891 96.3055 5.47373 96.2725 5.53675L96.2717 5.53818L96.2703 5.54086L96.269 5.54331C96.2012 5.67262 96.1372 5.79453 96.0849 5.92015C95.898 6.36072 95.7185 6.80129 95.539 7.24186L95.533 7.25655C95.4751 7.39861 95.4173 7.54067 95.3591 7.68273C95.2049 8.05537 95.0492 8.43482 94.8942 8.81241C94.6844 9.32356 94.476 9.83128 94.2748 10.314C93.9251 11.1533 93.5753 11.9927 93.2124 12.832C93.023 13.267 92.8275 13.6991 92.6322 14.1309L92.6319 14.1314L92.6317 14.132L92.6314 14.1326L92.631 14.1336L92.6306 14.1345L92.63 14.1358L92.6298 14.1363C92.4924 14.44 92.3551 14.7435 92.22 15.0478C92.1502 15.2152 92.0897 15.3672 92.0283 15.5213L92.0256 15.5281L92.0252 15.5291L92.0228 15.5351L92.0159 15.5525C92.0001 15.592 91.9843 15.6316 91.9683 15.6718L91.9577 15.6983C91.8028 16.1071 91.6281 16.5186 91.454 16.9285L91.454 16.9288L91.3991 17.0581C91.3753 17.114 91.3517 17.17 91.3281 17.2258C91.2706 17.3591 91.2094 17.4907 91.1484 17.622L91.148 17.6229C91.0746 17.7808 91.0014 17.9385 90.9346 18.0987C90.8458 18.3089 90.7624 18.52 90.6791 18.7308C90.5777 18.987 90.4766 19.2429 90.3662 19.4962C90.2088 19.8656 90.0436 20.2312 89.8784 20.5969C89.7959 20.7796 89.7133 20.9623 89.6317 21.1455C89.618 21.1693 89.6216 21.2015 89.6261 21.242ZM97.8396 9.58635L97.8398 9.58606C97.8712 9.49767 97.9038 9.40635 97.9386 9.31102C97.9597 9.32367 97.984 9.33479 98.0084 9.34601C98.0651 9.37198 98.1227 9.39841 98.1441 9.44531C98.2582 9.7547 98.3696 10.0711 98.4803 10.3857L98.4804 10.386L98.4809 10.3874C98.6117 10.7593 98.7417 11.1286 98.8742 11.4807C99.0259 11.8836 99.191 12.2833 99.356 12.6828L99.3562 12.6833C99.4575 12.9286 99.5587 13.1737 99.6568 13.4195C99.7115 13.5611 99.761 13.7044 99.8107 13.8483L99.811 13.849C99.8407 13.9351 99.8706 14.0214 99.9016 14.1077C99.9328 14.1966 99.9637 14.2854 99.9947 14.3742C100.129 14.7595 100.263 15.1442 100.409 15.5262C100.538 15.8683 100.672 16.2117 100.807 16.5557C100.918 16.8404 101.03 17.1254 101.139 17.4105C101.207 17.5922 101.269 17.7755 101.335 17.9683C101.376 18.0873 101.417 18.2099 101.462 18.3379C101.352 18.3657 101.239 18.3854 101.126 18.3967H94.6814C94.3404 18.3967 94.3273 18.3547 94.441 18.0568C94.5352 17.8243 94.6224 17.5886 94.7099 17.3524C94.7929 17.128 94.8762 16.9031 94.9656 16.6803C95.1195 16.292 95.2804 15.9065 95.4411 15.5214L95.4413 15.521L95.4421 15.5191L95.4422 15.5188L95.4423 15.5185C95.5644 15.226 95.6863 14.9338 95.8051 14.6407C95.962 14.2496 96.1167 13.8574 96.2714 13.4652L96.2731 13.4609C96.4282 13.0677 96.5834 12.6744 96.7407 12.2822C96.8483 12.0232 96.9565 11.7659 97.0644 11.5093C97.2503 11.0673 97.4353 10.6273 97.6151 10.1839C97.6952 9.9917 97.7644 9.79741 97.8396 9.58635Z" fill="white"/>
<path fill-rule="evenodd" clip-rule="evenodd" d="M35.7377 21.343V5.36649C35.8056 5.36649 35.8677 5.35973 35.9275 5.35322C35.9833 5.34716 36.037 5.3413 36.0919 5.3413H43.7123C44.1422 5.37976 44.5688 5.44707 44.9889 5.54275C45.6481 5.64055 46.2783 5.87078 46.8383 6.2184C47.3123 6.47143 47.7201 6.82475 48.0307 7.25158C48.3413 7.6784 48.5465 8.16751 48.6309 8.68181C48.6656 8.9603 48.673 9.24132 48.6527 9.52113C48.66 10.3361 48.3949 11.1318 47.8964 11.7915C47.5936 12.1703 47.2271 12.4979 46.8121 12.7609C46.756 12.8062 46.6979 12.8477 46.6217 12.9022L46.6213 12.9025L46.6196 12.9037C46.5835 12.9296 46.5433 12.9583 46.4973 12.9917L46.9345 13.1638C47.6385 13.4115 48.2481 13.8577 48.6833 14.4438C48.9466 14.8732 49.1634 15.3274 49.3304 15.7993C49.3542 15.8954 49.3645 15.9942 49.361 16.093C49.377 16.2182 49.3945 16.3465 49.4118 16.4722C49.4229 16.553 49.4338 16.6327 49.4441 16.7099C49.4506 16.7587 49.4506 16.8081 49.4441 16.8568C49.4423 16.8743 49.4405 16.8918 49.4387 16.9093L49.4371 16.9253C49.4343 16.9537 49.4315 16.982 49.4287 17.0104C49.4084 17.2152 49.3881 17.42 49.3566 17.6248C49.3299 17.7904 49.2874 17.9534 49.2298 18.1116C49.1358 18.3896 49.0234 18.6615 48.8932 18.9257C48.7701 19.1493 48.6236 19.3602 48.456 19.5552C48.094 19.9813 47.6484 20.3349 47.1444 20.596C46.7969 20.7434 46.439 20.8668 46.0732 20.9653C45.6571 21.074 45.2334 21.154 44.8053 21.2045C44.055 21.3485 43.3048 21.3324 42.5545 21.3163C42.2117 21.3089 41.869 21.3015 41.5263 21.3094C40.7967 21.3262 40.0671 21.3206 39.3414 21.315C38.98 21.3122 38.6194 21.3094 38.2604 21.3094L35.7377 21.343ZM39.2747 18.6068H43.4719C43.8295 18.6214 44.1869 18.5716 44.5255 18.4599C44.8528 18.3652 45.1449 18.1825 45.3673 17.9333C45.5897 17.6841 45.733 17.379 45.7803 17.0541C45.8887 16.5802 45.8461 16.0859 45.6579 15.6356C45.5462 15.3767 45.3689 15.1488 45.142 14.9725C44.6185 14.6552 44.0122 14.4865 43.3932 14.4857C42.5714 14.4689 41.7515 14.4745 40.931 14.4801C40.5206 14.4829 40.1099 14.4857 39.6988 14.4857C39.5764 14.4857 39.4496 14.4857 39.2616 14.5109C39.266 15.1923 39.267 15.8674 39.2681 16.5478V16.5484C39.2692 17.2255 39.2703 17.9078 39.2747 18.6068ZM39.3228 8.0733C39.2988 8.17837 39.2827 8.28496 39.2747 8.39224V11.674C39.2865 11.7765 39.3085 11.8777 39.3403 11.9762H42.9647C43.3346 11.9678 43.6984 11.8833 44.0315 11.7286C44.2171 11.6484 44.3837 11.5327 44.5211 11.3886C44.8554 11.0444 45.0548 10.5993 45.0851 10.1296C45.0966 9.86022 45.0551 9.59113 44.9627 9.33648C44.8336 8.98415 44.5985 8.67649 44.2872 8.45239C43.976 8.22829 43.6024 8.09783 43.2139 8.0775H39.7512L39.3228 8.0733Z" fill="white"/>
<path d="M74.8892 15.6561C74.9389 15.5925 74.9898 15.5295 75.0408 15.4665L75.0411 15.4662C75.1246 15.3629 75.2084 15.2593 75.287 15.1525C75.4998 14.8588 75.7086 14.5614 75.9175 14.2639C76.0219 14.1152 76.1265 13.9663 76.2314 13.818C76.4041 13.5812 76.575 13.3428 76.7464 13.1037L76.7467 13.1034L76.7472 13.1027C76.8489 12.9608 76.9508 12.8186 77.0533 12.6765L77.7747 11.6609C78.0458 11.2832 78.3125 10.9097 78.5748 10.5362L79.5017 9.2269L80.551 7.75389L80.5522 7.75215C80.8753 7.2995 81.1984 6.84684 81.5172 6.38999C81.5639 6.32473 81.6108 6.25946 81.6577 6.19425C81.8128 5.97851 81.9674 5.76335 82.1118 5.55067C82.136 5.49391 82.1771 5.4453 82.23 5.41094C82.2829 5.37659 82.3452 5.35804 82.4091 5.35763H85.4695C85.5657 5.65139 85.5744 20.9271 85.4695 21.3048H82.138C82.138 21.2297 82.1316 21.1537 82.1251 21.0771C82.1184 20.9995 82.1118 20.9213 82.1118 20.8431V11.0692C81.9288 11.0224 81.8668 11.1135 81.8098 11.1974L81.8025 11.2082L81.7991 11.213L81.797 11.2161L80.4504 13.1507C80.3996 13.223 80.3488 13.2953 80.2981 13.3675L80.2397 13.4507C79.8124 14.0589 79.387 14.6645 78.9552 15.27C78.79 15.4993 78.6221 15.7259 78.4544 15.9523L78.4541 15.9526L78.4539 15.953C78.2533 16.2237 78.053 16.4941 77.8578 16.7682C77.6329 17.0766 77.4198 17.3987 77.2098 17.716C77.1341 17.8303 77.0587 17.9443 76.9834 18.0566C76.7815 18.3394 76.5747 18.6187 76.3682 18.8976L76.3673 18.8989C76.185 19.1451 76.003 19.391 75.8248 19.6387C75.6934 19.8214 75.5567 20.0121 75.4176 20.2064L75.4141 20.2112C75.1516 20.5776 74.8802 20.9564 74.6181 21.3173H71.3216C71.2298 21.0068 71.221 5.73112 71.3216 5.37022H74.8192V15.6058L74.8892 15.6561Z" fill="white"/>
<path fill-rule="evenodd" clip-rule="evenodd" d="M57.0689 21.3426H53.9866C53.5494 21.3426 53.5188 21.3048 53.5188 20.8894V5.36191C53.6075 5.36191 53.6837 5.35474 53.7547 5.34805C53.8168 5.34221 53.875 5.33673 53.9341 5.33673H61.0474C61.4133 5.37076 61.7768 5.42541 62.1361 5.5004C62.5173 5.5455 62.8907 5.63863 63.2466 5.77738C63.7906 5.96017 64.3023 6.222 64.7637 6.55375C65.0374 6.75289 65.2987 6.96729 65.5463 7.19584C66.1578 7.82485 66.5952 8.59101 66.8185 9.42424C67.0098 10.1918 67.0762 10.9831 67.0153 11.7701C66.9163 13.0986 66.3145 14.3465 65.3233 15.2785C65.071 15.486 64.802 15.674 64.5188 15.8409C64.0126 16.1451 63.4712 16.3915 62.9055 16.5753C62.766 16.6293 62.6184 16.6618 62.4683 16.6718C62.2375 16.6873 62.0226 16.7285 61.8087 16.7696C61.6174 16.8063 61.4269 16.8428 61.2267 16.8606C60.3204 16.936 59.4141 16.9353 58.5165 16.9345H58.5161C58.1148 16.9342 57.7152 16.9339 57.3181 16.9404C57.2517 16.9469 57.186 16.9581 57.1213 16.9739C57.1213 17.0426 57.1117 17.1113 57.1019 17.1805C57.092 17.2508 57.082 17.3217 57.082 17.3936V20.8264L57.0689 21.3426ZM57.1082 8.29954C57.1082 8.39248 57.0975 8.46612 57.0879 8.53186C57.0802 8.58486 57.0732 8.63273 57.0732 8.68143V13.5243C57.0732 13.9188 57.1563 14.0069 57.5848 13.9901C57.9529 13.9751 58.3211 13.9806 58.6895 13.986H58.6897C59.3493 13.9958 60.0095 14.0055 60.6714 13.8978C61.2307 13.8557 61.7731 13.6936 62.2585 13.4236C62.5326 13.2639 62.7729 13.0561 62.9668 12.8109C63.3047 12.3306 63.4802 11.7621 63.4695 11.1826C63.4526 10.9404 63.4204 10.6993 63.3734 10.4608C63.3399 10.0941 63.2079 9.74206 62.9902 9.43901C62.7726 9.13596 62.4768 8.89228 62.1317 8.73179C61.539 8.44714 60.8838 8.30322 60.2211 8.31213H57.5979L57.1082 8.29954Z" fill="white"/>
<path fill-rule="evenodd" clip-rule="evenodd" d="M164.38 19.3138C164.379 18.5356 164.377 17.7584 164.394 16.9701L164.813 16.9407C165.042 16.9407 165.272 16.9421 165.501 16.9435C165.959 16.9463 166.418 16.9491 166.873 16.9407C167.327 16.9324 167.782 16.909 168.237 16.8857L168.237 16.8857C168.464 16.8741 168.692 16.8624 168.919 16.8526C168.983 16.8588 169.047 16.8588 169.111 16.8526L169.182 16.8339C169.57 16.731 169.961 16.6272 170.344 16.5085C171.188 16.28 171.956 15.8464 172.574 15.2495C172.821 15.0316 173.052 14.7974 173.265 14.5487C173.556 14.1467 173.787 13.7073 173.951 13.2435C174.185 12.5962 174.315 11.9183 174.336 11.2333C174.333 10.9141 174.303 10.5956 174.248 10.2807C174.187 9.69979 174.026 9.13261 173.772 8.60207C173.569 8.14965 173.303 7.72604 172.98 7.34309C172.738 7.10611 172.478 6.88594 172.202 6.68422C171.856 6.39313 171.461 6.15915 171.035 5.99178C170.561 5.77887 170.06 5.62785 169.544 5.54275C169.16 5.45569 168.772 5.38845 168.381 5.3413H161.189C161.075 5.34522 160.961 5.35502 160.848 5.37068V21.3262C161.242 21.3262 161.634 21.33 162.024 21.3337H162.025C162.805 21.3411 163.583 21.3486 164.372 21.3262C164.382 20.6513 164.381 19.9843 164.38 19.3181V19.3138ZM164.398 8.55047C164.409 8.47515 164.42 8.39493 164.42 8.29992L165.05 8.31671C165.351 8.31671 165.653 8.31251 165.955 8.30832C166.56 8.29992 167.165 8.29152 167.769 8.31671C168.386 8.31342 168.991 8.47469 169.518 8.78253C170.014 9.09651 170.383 9.56469 170.563 10.1087C170.725 10.6946 170.754 11.3074 170.646 11.9048C170.596 12.2543 170.456 12.5864 170.239 12.8713C170.023 13.1562 169.736 13.385 169.404 13.5373C168.914 13.7419 168.393 13.8681 167.861 13.9108C166.886 13.9988 165.906 14.0282 164.927 13.9989C164.451 14.0157 164.381 13.9402 164.381 13.4869V8.71958C164.383 8.66311 164.39 8.60823 164.398 8.55047Z" fill="white"/>
<path fill-rule="evenodd" clip-rule="evenodd" d="M144.177 21.326H140.579C140.613 21.235 140.644 21.1476 140.674 21.0628L140.674 21.0625C140.724 20.9205 140.771 20.7859 140.828 20.6545C140.941 20.4027 141.056 20.1515 141.171 19.9004C141.339 19.5366 141.506 19.173 141.663 18.808C141.77 18.5629 141.868 18.3131 141.966 18.0635L141.967 18.0631L141.967 18.0628C142.053 17.8426 142.14 17.6226 142.232 17.4063C142.313 17.2082 142.407 17.0165 142.5 16.8242C142.557 16.7071 142.614 16.5896 142.669 16.4705C142.826 16.1089 142.977 15.7455 143.129 15.3816L143.13 15.3802C143.219 15.166 143.308 14.9517 143.399 14.7373C143.462 14.5909 143.528 14.4456 143.593 14.3003L143.594 14.2987C143.659 14.1529 143.725 14.0071 143.788 13.8602C143.898 13.6052 144.008 13.3494 144.118 13.0933L144.118 13.092L144.119 13.0912L144.123 13.0803L144.126 13.0729C144.279 12.7162 144.432 12.3586 144.588 12.0011C144.708 11.7263 144.833 11.4536 144.958 11.1809C145.082 10.908 145.207 10.6352 145.327 10.3602C145.415 10.1602 145.495 9.95872 145.574 9.75835L145.574 9.75812L145.574 9.75782L145.574 9.7576L145.574 9.75732C145.63 9.61753 145.685 9.47828 145.742 9.34045C145.882 9.00472 145.983 8.76971 146.11 8.50113C146.173 8.36403 146.24 8.22888 146.307 8.09389C146.411 7.88592 146.514 7.67833 146.604 7.46457C146.702 7.23545 146.791 7.00305 146.88 6.77016L146.88 6.76988L146.88 6.76958C146.966 6.5463 147.052 6.32238 147.146 6.10067C147.219 5.92714 147.31 5.7598 147.403 5.58854C147.443 5.51542 147.483 5.44159 147.522 5.36626H151.02C151.11 5.57504 151.203 5.78471 151.296 5.99568C151.405 6.2427 151.514 6.4915 151.623 6.74275C151.682 6.87965 151.74 7.0192 151.797 7.15916C151.842 7.26806 151.887 7.3772 151.933 7.48554C152.015 7.67681 152.098 7.87244 152.181 8.06925L152.182 8.07169C152.281 8.30589 152.38 8.54175 152.48 8.77391C152.513 8.85 152.546 8.9261 152.579 9.00209C152.658 9.18593 152.737 9.36916 152.821 9.55028C152.915 9.75676 153.013 9.96264 153.11 10.1686L153.111 10.1708C153.271 10.5083 153.431 10.846 153.577 11.187C153.714 11.5065 153.832 11.8091 153.949 12.1086L153.95 12.1095L153.95 12.11C154.034 12.3253 154.117 12.5391 154.207 12.7565C154.275 12.9214 154.349 13.0821 154.423 13.2426L154.423 13.2429L154.424 13.244L154.424 13.2447C154.478 13.3613 154.531 13.4778 154.583 13.5958L154.583 13.5972C154.889 14.2808 155.195 14.9644 155.492 15.6564C155.674 16.076 155.851 16.4957 156.028 16.9153C156.205 17.335 156.382 17.7547 156.563 18.1743C156.647 18.3732 156.738 18.5681 156.829 18.7628C156.899 18.9131 156.969 19.0634 157.035 19.2151C157.194 19.5786 157.351 19.9433 157.511 20.314C157.655 20.6494 157.802 20.9897 157.954 21.3386L157.564 21.3637H154.609C154.442 21.3637 154.358 21.3637 154.301 21.3258C154.243 21.2872 154.214 21.2092 154.155 21.0519L154.141 21.0154C153.934 20.4854 153.712 19.9625 153.496 19.4537L153.446 19.3368C153.418 19.2689 153.39 19.2008 153.361 19.1326L153.361 19.1324L153.361 19.1319C153.23 18.817 153.098 18.4992 152.987 18.1785C152.972 18.0929 152.924 18.0158 152.853 17.9622C152.782 17.9086 152.692 17.8825 152.602 17.889H145.594C145.108 19.0038 144.653 20.1393 144.19 21.2955L144.177 21.326ZM149.266 8.96695C149.237 8.99324 149.209 9.01441 149.184 9.03317C149.141 9.06532 149.107 9.09043 149.096 9.12223C148.303 11.0974 147.515 13.0754 146.731 15.0562C148.39 15.1395 150.052 15.1325 151.71 15.0353C151.456 14.403 151.203 13.7707 150.949 13.1373C150.397 11.7568 149.842 10.3708 149.266 8.96695Z" fill="white"/>
<path fill-rule="evenodd" clip-rule="evenodd" d="M31.6038 21.3254C31.6598 21.3176 31.7197 21.3092 31.7897 21.3092C31.6547 20.9974 31.5339 20.6983 31.4156 20.4053C31.2887 20.091 31.1647 19.7837 31.0289 19.4753C30.8811 19.1396 30.7278 18.8051 30.5743 18.4705L30.5741 18.47C30.4553 18.2109 30.3365 17.9517 30.2201 17.6918C30.1301 17.4877 30.0421 17.2781 29.9546 17.0698C29.855 16.8328 29.7562 16.5974 29.6561 16.374C29.6028 16.2515 29.5462 16.1307 29.4894 16.0097C29.416 15.8528 29.3424 15.6958 29.2757 15.5347C29.1639 15.271 29.0555 15.0064 28.9471 14.7417C28.8141 14.4168 28.681 14.0917 28.5412 13.7679C28.4894 13.6529 28.4376 13.5383 28.386 13.424C28.2151 13.0461 28.0455 12.6709 27.8811 12.2907C27.575 11.6277 27.2909 10.9647 27.0067 10.3017C26.9263 10.1177 26.8481 9.93357 26.7705 9.75108L26.7704 9.75084L26.7696 9.74899L26.7695 9.74855C26.7377 9.6738 26.706 9.5993 26.6744 9.52515C26.4383 8.95441 26.2066 8.39626 25.9705 7.8465C25.8131 7.473 25.6513 7.09951 25.4852 6.73021L24.8644 5.38309H21.3667C21.0753 6.01258 20.7838 6.64068 20.4923 7.26737C20.3786 7.51497 20.2693 7.75837 20.1644 8.01017C20.0792 8.20741 19.9972 8.4057 19.9152 8.60399C19.8332 8.80228 19.7513 9.00057 19.666 9.19781C19.6135 9.32161 19.5556 9.44331 19.4977 9.56501C19.4397 9.68671 19.3818 9.80842 19.3294 9.93222C19.202 10.2213 19.0807 10.5115 18.9571 10.8073C18.8475 11.0697 18.7359 11.3366 18.6167 11.6109C18.5027 11.8732 18.3833 12.1348 18.2638 12.3966C18.1176 12.7169 17.9712 13.0376 17.8341 13.3609C17.6715 13.7433 17.5134 14.1323 17.3557 14.5203C17.1363 15.0604 16.9176 15.5985 16.6886 16.1138C16.6094 16.2922 16.5296 16.4703 16.4498 16.6486L16.4495 16.6492C16.1331 17.3558 15.8163 18.0634 15.5301 18.7871C15.3697 19.191 15.1832 19.5842 14.9961 19.9783C14.8976 20.1861 14.7988 20.3942 14.7037 20.6042C14.6381 20.7548 14.5762 20.9072 14.5108 21.0684L14.5106 21.0687L14.5099 21.0707C14.4753 21.1558 14.4397 21.2434 14.4021 21.3344H18.0221L19.4124 17.8596H26.3071C26.6875 17.8596 26.7137 17.8848 26.8361 18.2121C27.0285 18.7283 27.2253 19.2445 27.4351 19.7565C27.5225 19.9663 27.6165 20.1761 27.7105 20.386C27.8045 20.5958 27.8985 20.8056 27.986 21.0155L27.9949 21.04C28.05 21.1911 28.0772 21.2657 28.132 21.3026C28.1855 21.3386 28.2654 21.3386 28.4232 21.3386H31.4618C31.5087 21.3386 31.5547 21.3322 31.6038 21.3254ZM22.9104 9.287C22.9556 9.19166 23.0009 9.09626 23.0456 9.00057C23.9331 11.0149 24.7507 13.0167 25.5508 15.0269C23.9339 15.1327 22.3118 15.1439 20.6934 15.0605C20.6178 14.8723 20.6936 14.7023 20.7677 14.5362C20.7878 14.4911 20.8078 14.4464 20.8246 14.4016C20.9586 14.0294 21.1068 13.6626 21.2554 13.2946C21.2911 13.2063 21.3268 13.1179 21.3624 13.0293L21.9963 11.464C22.0621 11.3001 22.1262 11.1363 22.1902 10.9726C22.3049 10.6794 22.4193 10.3868 22.5428 10.0959C22.6557 9.82337 22.7829 9.55543 22.9104 9.287Z" fill="white"/>
<path d="M190.6 5.36626V8.30389H185.738C185.738 8.42291 185.729 8.53472 185.721 8.63868C185.714 8.72899 185.707 8.81338 185.707 8.89141V20.6755C185.716 20.8152 185.716 20.9554 185.707 21.0952C185.708 21.1325 185.7 21.1695 185.684 21.2036C185.668 21.2378 185.645 21.2683 185.616 21.2933C185.587 21.3183 185.553 21.3371 185.516 21.3485C185.479 21.3599 185.44 21.3637 185.401 21.3595H182.179C182.179 21.2634 182.172 21.1752 182.165 21.0908L182.165 21.0904C182.159 21.0129 182.153 20.9386 182.153 20.8644V8.31228C181.592 8.29264 181.048 8.29926 180.51 8.3058C180.244 8.30905 179.979 8.31228 179.713 8.31228H177.317C177.217 7.33595 177.204 6.35314 177.278 5.37465L190.6 5.36626Z" fill="white"/>
<path d="M0.599609 5.3622V8.28724H3.93547C4.09818 8.28848 4.26088 8.28679 4.42448 8.28509C4.81481 8.28104 5.21026 8.27693 5.62308 8.31242V21.3093H9.06388V8.29983H13.9955C14.0984 7.32311 14.0984 6.33892 13.9955 5.3622H0.599609Z" fill="white"/>
</svg>
