<svg width="57" height="57" viewBox="0 0 57 57" fill="none" xmlns="http://www.w3.org/2000/svg">
<path fill-rule="evenodd" clip-rule="evenodd" d="M4.24508 4.69503C0.308594 8.63152 0.308594 14.9671 0.308594 27.6385V29.8785C0.308594 42.5499 0.308594 48.8855 4.24508 52.8221C8.18156 56.7585 14.5172 56.7585 27.1886 56.7585H29.4286C42.1 56.7585 48.4356 56.7585 52.3722 52.8221C56.3086 48.8855 56.3086 42.5499 56.3086 29.8785V27.6385C56.3086 14.9671 56.3086 8.63152 52.3722 4.69503C48.4356 0.758545 42.1 0.758545 29.4286 0.758545H27.1886C14.5172 0.758545 8.18156 0.758545 4.24508 4.69503ZM9.75871 17.7926C10.062 32.3526 17.3419 41.1026 30.1053 41.1026H30.8288V32.7726C35.5188 33.2392 39.0651 36.6692 40.4885 41.1026H47.1154C45.2954 34.4759 40.5118 30.8126 37.5251 29.4126C40.5118 27.6859 44.7118 23.4859 45.7151 17.7926H39.695C38.3884 22.4126 34.5155 26.6126 30.8288 27.0092V17.7926H24.8086V33.9392C21.0753 33.0059 16.362 28.4792 16.152 17.7926H9.75871Z" fill="white"/>
</svg>
