<svg width="120" height="50" viewBox="0 0 120 50" fill="none" xmlns="http://www.w3.org/2000/svg">
<path d="M98.8055 11.7624L95.6093 16.8915L73.3314 16.8912L76.4895 11.7768L98.8055 11.7624Z" fill="white"/>
<path d="M91.6916 23.0934L88.4955 28.2228L66.2175 28.2221L69.3756 23.1076L91.6916 23.0934Z" fill="white"/>
<path d="M60.2189 18.5951L71.575 0.429992H77.5747L60.2189 28.2228L45.8384 5.19482L31.4582 28.2228L28.493 23.4741L42.8732 0.446155L42.8632 0.429992H48.8754L60.2189 18.5951Z" fill="white"/>
<path d="M105.91 0.384521L102.714 5.51358L80.4363 5.51332L83.5941 0.398898L105.91 0.384521Z" fill="white"/>
<path d="M28.4806 13.8268L28.4947 13.8492L25.5278 18.5951L14.1844 0.429992H20.1147L28.4806 13.8268Z" fill="white"/>
<path d="M1.365 43.8059V40.8831H8.07844L8.19194 39.5261H0V49.4293H8.07816L8.19222 48.0856H1.365V45.1628H7.33176L7.40747 43.8059H1.365Z" fill="white"/>
<path d="M11.2858 49.4293V41.9041L17.9102 49.4293H18.963V39.5261H17.611V47.063L11 39.5261H9.92077V49.4293H11.2858Z" fill="white"/>
<path d="M22.1792 43.8059V40.8831H28.8927L29.0062 39.5261H20.8143V49.4293H28.8924L29.0065 48.0856H22.1792V45.1628H28.1462L28.2217 43.8059H22.1792Z" fill="white"/>
<path fill-rule="evenodd" clip-rule="evenodd" d="M39.3851 49.1067L37.4355 45.8773V45.8755C37.6715 45.814 37.9012 45.7313 38.1204 45.6239C38.428 45.4737 38.6913 45.2659 38.9063 45.0016C39.1337 44.7218 39.2913 44.3956 39.3981 44.0538C39.5302 43.6316 39.5698 43.1683 39.5698 42.7282C39.5698 42.1501 39.5027 41.5059 39.2433 40.98C39.0311 40.5497 38.726 40.1933 38.3132 39.9416C37.8953 39.6866 37.4244 39.5424 36.9404 39.4734C36.3923 39.3951 35.8357 39.3649 35.2822 39.3649C34.9951 39.3649 34.708 39.3719 34.4211 39.3789L34.4203 39.3789C34.0654 39.3885 33.7103 39.3996 33.3552 39.4122C32.9569 39.4262 32.5586 39.4419 32.1605 39.4588C31.752 39.4762 31.344 39.4983 30.9363 39.5256L30.7352 39.5396V49.4287H32.1V45.998C32.659 46.0265 33.2185 46.0496 33.7779 46.066C34.2789 46.08 34.781 46.0926 35.2822 46.0926H35.7036C35.7963 46.0926 35.8889 46.0912 35.9815 46.087L38.1009 49.5783L39.3341 49.4203L39.3851 49.1067ZM32.1 44.6542V40.8189C32.664 40.7898 33.2281 40.7641 33.7924 40.7434C34.2795 40.7253 34.7686 40.7102 35.2561 40.7102C35.6671 40.7102 36.0794 40.7307 36.4871 40.7818C36.8081 40.8219 37.1302 40.9053 37.4141 41.062C37.6666 41.2013 37.8545 41.402 37.9902 41.654C38.1613 41.9715 38.2049 42.3759 38.2049 42.73C38.2049 43.0826 38.1635 43.496 37.9909 43.8113C37.8542 44.0613 37.6653 44.2593 37.4141 44.3977C37.1302 44.5545 36.8081 44.6379 36.4871 44.6782C36.0794 44.7292 35.667 44.7496 35.2561 44.7496C34.768 44.7496 34.2786 44.7374 33.7907 44.723C33.227 44.7065 32.6633 44.683 32.1 44.6542Z" fill="white"/>
<path d="M49.0075 45.1628V48.0694C48.5906 48.1448 48.1692 48.1956 47.7459 48.2189C47.2965 48.2437 46.8462 48.2585 46.3961 48.2585C45.8817 48.2585 45.3677 48.2229 44.8588 48.1478C44.3971 48.0796 43.9662 47.9236 43.5798 47.664C43.1714 47.3893 42.8858 46.988 42.6822 46.5486C42.3966 45.9327 42.3322 45.1402 42.3322 44.4711C42.3322 43.9704 42.368 43.4421 42.4939 42.9556C42.5871 42.5962 42.7236 42.2346 42.9317 41.924C43.1038 41.667 43.3162 41.4432 43.5773 41.2732C43.8341 41.1061 44.1128 40.9801 44.4079 40.8943C44.7211 40.8032 45.0432 40.7476 45.3687 40.723C45.7191 40.6962 46.0705 40.6836 46.422 40.6836C46.9641 40.6836 47.5073 40.7072 48.048 40.743C48.6287 40.7816 49.2065 40.8567 49.7767 40.9717L50.0143 41.0199L50.1294 39.6646L49.9297 39.6349C49.3289 39.5456 48.7256 39.4742 48.1206 39.4208C47.5214 39.3677 46.9199 39.3401 46.3183 39.3401C45.6785 39.3401 45.0394 39.3905 44.4085 39.4959C43.7777 39.6013 43.1962 39.8344 42.6776 40.2045C42.1176 40.6043 41.7209 41.1604 41.4401 41.7785C41.0709 42.5908 40.9802 43.59 40.9802 44.4711C40.9802 45.113 41.029 45.7797 41.1878 46.4037C41.3125 46.8944 41.4983 47.3808 41.7809 47.8048C42.0228 48.1678 42.3191 48.4893 42.6802 48.7393C43.0204 48.975 43.3922 49.1569 43.7867 49.2855C44.1873 49.4161 44.6003 49.5005 45.0198 49.5413C45.4383 49.5819 45.8588 49.602 46.2794 49.602C46.9138 49.602 47.5483 49.5676 48.1785 49.4942C48.8555 49.4156 49.5299 49.3032 50.1987 49.1727L50.3725 49.1388V43.8059H45.2079V45.1628H49.0075Z" fill="white"/>
<path d="M60.3396 39.5261L56.7974 43.7508L53.2804 39.5261H51.565L56.1403 44.9734V49.4293H57.4793V44.9734L62.0546 39.5261H60.3396Z" fill="white"/>
<path d="M69.6027 39.5261L66.7301 47.1253L64.1889 39.5261H62.7721L66.1872 49.4293H67.2565L70.1296 41.7836L73.0396 49.4293H74.1217L77.5096 39.5261H76.0672L73.5511 47.1241L70.6667 39.5261H69.6027Z" fill="white"/>
<path fill-rule="evenodd" clip-rule="evenodd" d="M81.5704 49.3825C82.1918 49.5429 82.8309 49.6153 83.4728 49.6153C84.1288 49.6153 84.7839 49.5414 85.4171 49.3684C86.015 49.2049 86.5566 48.926 87.0203 48.518C87.5116 48.0856 87.8534 47.5299 88.0895 46.9273C88.3867 46.1689 88.4737 45.3055 88.4737 44.4976C88.4737 43.6716 88.383 42.7845 88.0691 42.0125C87.8211 41.4023 87.4659 40.8413 86.9595 40.4087C86.4867 40.0049 85.9409 39.729 85.3364 39.5729C84.7147 39.4125 84.0757 39.3401 83.4338 39.3401C82.7778 39.3401 82.1226 39.414 81.4895 39.5871C80.8895 39.7511 80.3483 40.0329 79.8854 40.4448C79.3971 40.8795 79.0546 41.4325 78.8171 42.0344C78.5192 42.7896 78.4329 43.6526 78.4329 44.4577C78.4329 45.2838 78.5236 46.171 78.8375 46.943C79.0856 47.5531 79.4407 48.1142 79.9471 48.5467C80.4199 48.9505 80.9658 49.2264 81.5704 49.3825ZM84.9324 48.0734C84.4576 48.2042 83.9649 48.2585 83.4728 48.2585C82.9861 48.2585 82.5011 48.2035 82.0304 48.0796C81.6003 47.9663 81.2136 47.7695 80.8782 47.4803C80.5191 47.1705 80.2692 46.7668 80.0937 46.3325C79.8604 45.7549 79.7979 45.0746 79.7979 44.4577C79.7979 43.853 79.8599 43.1954 80.0816 42.6273C80.2495 42.1971 80.4911 41.7962 80.8412 41.4867C81.1694 41.1967 81.5505 40.9984 81.9744 40.8818C82.4492 40.7512 82.9417 40.6969 83.4338 40.6969C83.9206 40.6969 84.4055 40.7519 84.8763 40.8758C85.3063 40.9891 85.6931 41.1859 86.0285 41.4751C86.3875 41.7848 86.6374 42.1884 86.8129 42.6229C87.0462 43.2005 87.1087 43.8808 87.1087 44.4976C87.1087 45.1024 87.0467 45.7598 86.825 46.3282C86.6571 46.7585 86.4155 47.1592 86.0654 47.4687C85.7372 47.7587 85.3562 47.9568 84.9324 48.0734Z" fill="white"/>
<path fill-rule="evenodd" clip-rule="evenodd" d="M99.0268 49.1069L97.0772 45.8773V45.8755C97.3131 45.814 97.5428 45.7313 97.7622 45.6239C98.0697 45.4737 98.3331 45.2659 98.5479 45.0016C98.7755 44.7218 98.9328 44.3956 99.0397 44.0538C99.1717 43.6314 99.2115 43.1683 99.2115 42.7282C99.2115 42.1501 99.1443 41.5057 98.885 40.98C98.6727 40.5497 98.3677 40.1933 97.9549 39.9416C97.537 39.6866 97.066 39.5424 96.5821 39.4734C96.034 39.3951 95.4774 39.3649 94.9238 39.3649C94.6369 39.3649 94.3497 39.3719 94.0628 39.3789L94.062 39.3789C93.707 39.3885 93.3519 39.3996 92.9968 39.4122C92.5985 39.4262 92.2003 39.4419 91.8022 39.4588C91.3938 39.4762 90.9857 39.4983 90.5779 39.5256L90.3768 39.5396V49.4287H91.7417V45.998C92.3008 46.0265 92.8602 46.0496 93.4197 46.066C93.9206 46.08 94.4226 46.0926 94.9238 46.0926H95.3454C95.4379 46.0926 95.5306 46.0912 95.6232 46.087L97.7425 49.5783L98.9756 49.4203L99.0268 49.1069ZM91.7417 44.6542V40.8189C92.3057 40.7898 92.8698 40.7641 93.4341 40.7434C93.9212 40.7253 94.4103 40.7102 94.8979 40.7102C95.3087 40.7102 95.7211 40.7307 96.1289 40.7818C96.4498 40.8219 96.7719 40.9053 97.0558 41.062C97.3083 41.2013 97.4962 41.402 97.6321 41.654C97.8031 41.9715 97.8465 42.3759 97.8465 42.73C97.8465 43.0826 97.8052 43.496 97.6327 43.8113C97.4958 44.0613 97.307 44.2591 97.0558 44.3977C96.7718 44.5545 96.4498 44.6379 96.1289 44.6782C95.7211 44.7292 95.3087 44.7496 94.8979 44.7496C94.4096 44.7496 93.9204 44.7374 93.4324 44.723C92.8686 44.7065 92.305 44.683 91.7417 44.6542Z" fill="white"/>
<path d="M108.866 48.0856H102.039V39.5261H100.674V49.4293H108.752L108.866 48.0856Z" fill="white"/>
<path fill-rule="evenodd" clip-rule="evenodd" d="M111.84 39.4535C111.498 39.4752 111.156 39.4993 110.815 39.5261L110.595 39.525V49.4281H110.817C111.159 49.4461 111.501 49.4637 111.843 49.4811C112.187 49.4984 112.532 49.5137 112.877 49.5277C113.2 49.5404 113.524 49.5502 113.848 49.5544C114.128 49.5586 114.408 49.5614 114.688 49.5614C115.334 49.5614 115.979 49.5114 116.617 49.4058C117.241 49.3022 117.822 49.0772 118.335 48.7103C118.885 48.3168 119.273 47.7636 119.547 47.1556C119.912 46.3462 120 45.3469 120 44.4703C120 43.5851 119.911 42.5784 119.547 41.7595C119.275 41.1471 118.888 40.5862 118.335 40.1905C117.823 39.825 117.245 39.5992 116.624 39.4952C115.988 39.3891 115.345 39.3394 114.701 39.3394C114.418 39.3394 114.134 39.345 113.852 39.3534C113.525 39.3628 113.2 39.3764 112.874 39.3936C112.529 39.4116 112.185 39.4318 111.84 39.4535ZM111.96 48.1518V40.7868C112.415 40.7518 112.871 40.7253 113.327 40.7095C113.763 40.6943 114.2 40.6831 114.636 40.6831C115.155 40.6831 115.674 40.716 116.188 40.7874C116.642 40.8505 117.067 41.0013 117.443 41.2625C117.84 41.5388 118.115 41.9423 118.31 42.377C118.587 42.9978 118.648 43.7998 118.648 44.4705C118.648 45.1352 118.587 45.929 118.31 46.5435C118.114 46.978 117.836 47.3738 117.433 47.6431C117.046 47.9019 116.611 48.0506 116.15 48.1136C115.622 48.1857 115.09 48.218 114.558 48.218H114.007C113.78 48.218 113.554 48.2138 113.327 48.2054C113.07 48.1962 112.813 48.1872 112.555 48.1788C112.356 48.1722 112.158 48.163 111.96 48.1518Z" fill="white"/>
</svg>
