<svg width="140" height="20" viewBox="0 0 140 20" fill="none" xmlns="http://www.w3.org/2000/svg">
<path d="M8.68513 19.4396H0C2.30873 11.4585 4.59755 7.36479 9.01288 0.190887H17.3703L13.9836 7.64908L21.03 7.32004C22.5078 4.46622 23.4246 2.9115 25.1814 0.190887H33.9212L24.7991 19.4396H16.0047L19.0636 11.1588C13.0257 11.2529 10.7777 13.1066 8.68513 19.4396Z" fill="white"/>
<path d="M66.2037 19.4396L64.7288 0.190887H72.5946L73.6325 11.2686L84.7757 0.190887H94.8264L74.8342 19.4396H66.2037Z" fill="white"/>
<path d="M114.382 15.8203L120.008 0.190887H130.441V0.574706C125.743 2.65862 125.907 6.49739 123.012 13.6266C122.63 14.5682 122.684 15.1621 123.886 15.1621H140L136.176 19.4396H117.932C115.201 19.3299 113.671 17.6299 114.382 15.8203Z" fill="white"/>
<path fill-rule="evenodd" clip-rule="evenodd" d="M27.7487 19.4396H36.4885C38.6103 16.3702 41.2478 15.6439 48.014 15.7653L46.867 19.4396H54.0773L61.1783 0.190887C47.4678 -0.741337 40.5346 3.95601 27.7487 19.4396ZM49.5435 11.8718H42.8794C46.9943 7.24422 49.1205 5.74704 52.6024 4.90715C51.2309 7.65448 50.5702 9.17902 49.5435 11.8718Z" fill="white"/>
<path fill-rule="evenodd" clip-rule="evenodd" d="M81.7167 19.4396H90.675C92.6896 16.0974 95.5551 15.5818 102.146 15.8203L100.726 19.4396H108.045C111.207 11.9918 112.801 7.77796 115.31 0.190888C101.418 -0.178988 99.4408 1.78979 83.5864 17.5784C82.9838 18.1787 82.361 18.7988 81.7167 19.4396ZM103.839 11.8718H97.1206C101.677 6.98803 103.94 5.06281 106.789 4.96188C105.642 7.62071 104.996 9.12995 103.839 11.8718Z" fill="white"/>
</svg>
