<svg width="118" height="66" viewBox="0 0 118 66" fill="none" xmlns="http://www.w3.org/2000/svg">
<path fill-rule="evenodd" clip-rule="evenodd" d="M55.6138 0.0370069C56.0478 0.0259545 56.5528 0.0177584 57.0539 0.0119217C57.7799 0.00347716 58.4999 0 59.001 0L59.6441 0.00136603L60.447 0.00670595C60.9836 0.0117975 61.532 0.0201179 62.0173 0.0329088C62.6762 0.0502947 63.2168 0.076125 63.4456 0.113629H63.5127C63.5995 0.118596 63.6784 0.124805 63.7553 0.138093C63.8224 0.14989 63.8875 0.167028 63.9526 0.193728C64.0611 0.238434 64.1696 0.309716 64.2919 0.426573L64.3826 0.520581C64.4418 0.58466 64.503 0.659171 64.5681 0.745975C64.9942 1.31064 68.7858 7.70961 70.9203 11.5753C72.2973 14.1049 73.6151 16.6677 74.8698 19.2612C75.1164 19.7817 75.1618 20.1649 75.1618 20.3464C75.1618 20.5719 75.1164 20.8669 74.8698 21.4315C74.6449 21.9521 72.6919 25.8619 70.9203 29.1174C69.0798 32.5084 64.9725 39.4041 64.5898 39.9468C64.1637 40.535 63.85 40.5791 63.491 40.6028C63.1083 40.6249 60.4608 40.6927 59.001 40.6927C57.6319 40.6927 55.0949 40.6469 54.511 40.6028C54.2723 40.5741 54.0671 40.5548 53.8422 40.3982C53.7101 40.3056 53.57 40.1653 53.4122 39.9468C53.0078 39.3821 49.1925 32.9831 47.0816 29.1174C46.7522 28.5089 46.4385 27.9226 46.1406 27.3629C45.4127 25.9954 44.7854 24.7866 44.2863 23.7996C44.0199 23.2743 43.7891 22.8118 43.5997 22.4215L43.3452 21.8931L43.1322 21.4315C42.929 21.0245 42.8402 20.6634 42.8402 20.3464C42.8402 20.053 42.929 19.6902 43.1322 19.2612C43.3334 18.7644 45.6238 14.1966 47.0816 11.5753C49.08 7.93513 52.9407 1.37845 53.3905 0.76808C53.7278 0.339147 53.8837 0.157714 54.4676 0.0899095C54.5347 0.0825826 54.6254 0.0758766 54.7339 0.0696674C54.9588 0.0567522 55.2646 0.0459482 55.6138 0.0370069ZM63.128 1.57503C63.0846 1.56485 63.0254 1.55988 62.9524 1.55988C62.7946 1.55988 62.5697 1.74131 62.3685 2.08046C60.3484 5.49354 55.5211 14.6714 53.501 19.1476C53.211 19.736 53.0748 20.0293 53.0748 20.3244C53.0748 20.4049 53.0847 20.4853 53.1064 20.5719C53.1597 20.7955 53.28 21.0598 53.4674 21.4695L53.4793 21.4993C55.016 24.7944 56.6495 28.0438 58.3737 31.2435C57.1604 34.3396 55.454 37.7086 54.7813 39.0429C54.805 39.087 54.8937 39.1107 55.0496 39.1107C55.2074 39.1107 55.4323 38.9294 55.6335 38.5903C57.6319 35.1772 62.4572 25.9976 64.5227 21.5214C64.791 20.9347 64.9271 20.6397 64.9271 20.3464C64.9271 20.053 64.791 19.758 64.5227 19.1713C62.9859 15.8763 61.3525 12.6269 59.6283 9.42721C60.8139 6.40133 62.4691 3.11814 63.1734 1.7238L63.2207 1.62768C63.2089 1.60372 63.1773 1.58621 63.128 1.57503Z" fill="white"/>
<path d="M102.382 52.0602H101.934V48.8313H118V52.0602H117.552C117.179 51.3064 116.442 50.8405 115.54 50.8405H112.362V65.6658H107.57V50.8405H104.396C103.494 50.8405 102.759 51.3064 102.382 52.0602Z" fill="white"/>
<path d="M102.149 63.6404H97.0238V48.8318H91.2219V49.2819C91.8492 49.696 92.2359 50.4183 92.2359 51.3085V65.6663H104.595V62.4318H104.163C103.788 63.1871 103.052 63.6404 102.149 63.6404Z" fill="white"/>
<path d="M85.8481 51.3085C85.8481 50.4183 85.4792 49.696 84.848 49.2819V48.8318H88.2588V58.0284C88.2588 63.5015 85.9783 66 80.4763 66C75.4951 66 72.9562 62.7395 72.9562 58.6463V51.3085C72.9562 50.4183 72.5715 49.696 71.9442 49.2819V48.8318H77.7461V57.775C77.7461 61.0365 78.8409 62.8189 81.7902 62.8189C84.7355 62.8189 85.8481 61.0365 85.8481 57.775V51.3085Z" fill="white"/>
<path fill-rule="evenodd" clip-rule="evenodd" d="M70.9933 63.9573L64.5582 48.8318H60.8317L53.5621 65.6663H56.3733L57.9377 61.8128H64.9922L66.4718 65.6663H72.2441V65.2132C71.7134 65.0067 71.2419 64.5376 70.9933 63.9573ZM58.7682 59.7837L61.5478 53.2357L64.1913 59.7837H58.7682Z" fill="white"/>
<path d="M49.372 51.3085C49.372 50.4183 49.0031 49.696 48.3698 49.2819V48.8313H51.7827V65.6658H46.3419L38.7566 53.2683V65.6658H36.3617V51.3079C36.3617 50.4177 35.977 49.6955 35.3477 49.2814V48.8313H41.8006L49.372 61.24V51.3085Z" fill="white"/>
<path d="M30.5737 63.6404H24.9533V57.9922H31.3056V55.9627H24.9533V50.8405H30.3724C31.2582 50.8405 31.9783 51.226 32.3847 51.8619H32.8187V48.8318H19.1633V49.2819C19.7926 49.696 20.1615 50.4183 20.1615 51.3085V65.6663H33.0376V62.5488H32.5859C32.213 63.2538 31.562 63.6404 30.5737 63.6404Z" fill="white"/>
<path fill-rule="evenodd" clip-rule="evenodd" d="M12.5585 57.9755L16.6678 64.1927C16.9933 64.6805 17.4391 65.0234 17.9481 65.2132V65.6663H11.5603L7.60298 58.5131H5.8058V65.6663H1.01597V51.3085C1.01597 50.4183 0.633253 49.696 0 49.2819V48.8318H10.6134C14.0045 48.8318 16.2022 50.4691 16.2022 53.3868C16.2022 55.5989 14.6043 57.3259 12.5585 57.9755ZM5.8058 56.6524H7.88508C9.74144 56.6524 11.1283 55.631 11.1283 53.6213C11.1283 51.6258 9.62307 50.7067 7.88508 50.7067H5.8058V56.6524Z" fill="white"/>
</svg>
